{"glyphs":{"0":{"ha":510,"x_min":8,"x_max":615,"o":"m 100 -1 q 33 27 57 1 q 8 92 8 53 q 17 153 8 122 q 38 215 25 185 q 67 272 51 244 q 97 324 82 299 q 190 450 139 389 q 296 557 242 511 q 344 596 317 576 q 400 631 371 615 q 461 655 429 646 q 525 663 493 664 q 584 646 564 661 q 610 608 604 631 q 610 556 615 585 q 595 499 606 528 q 572 446 585 471 q 550 404 560 421 q 467 276 517 346 q 359 144 418 206 q 234 42 300 83 q 100 -1 168 0 m 518 622 q 426 597 478 622 q 321 525 375 571 q 221 424 272 485 q 131 301 169 363 q 99 248 117 281 q 67 180 81 215 q 49 112 54 144 q 56 58 43 79 q 99 31 71 31 q 161 48 126 31 q 233 94 196 65 q 302 152 269 122 q 358 208 335 182 q 392 244 382 233 q 423 286 400 254 q 472 360 446 318 q 523 448 499 401 q 558 533 547 494 q 562 597 569 572 q 518 622 554 622 z "},"1":{"ha":219,"x_min":-118,"x_max":392,"o":"m 354 671 q 368 673 361 675 q 381 667 375 671 q 389 657 386 663 q 389 647 392 651 q 151 324 271 488 q -82 6 31 161 q -93 3 -86 1 q -106 8 -100 4 q -115 19 -112 13 q -114 31 -118 25 l 294 592 l 251 567 q 242 564 246 564 q 224 576 232 564 q 226 600 217 593 l 354 671 z "},"2":{"ha":708,"x_min":47,"x_max":781,"o":"m 689 428 q 539 249 621 332 q 361 96 457 167 q 452 53 406 71 q 543 36 499 36 q 611 53 579 36 l 610 53 q 626 55 618 57 q 636 46 633 53 l 636 47 q 638 31 642 39 q 625 18 635 22 l 626 18 q 538 -6 589 -6 q 438 13 490 -6 q 384 38 414 22 q 324 69 354 53 q 271 40 297 53 q 222 17 244 26 q 132 -4 174 -4 q 93 0 101 -4 q 47 63 47 26 q 69 131 47 94 q 124 183 89 163 q 200 189 160 204 q 233 172 213 183 q 282 144 254 160 l 281 144 l 297 135 l 308 129 l 324 118 q 501 269 415 186 q 658 449 586 351 q 724 562 703 513 q 731 626 744 611 q 711 633 722 629 q 689 636 700 636 q 628 626 661 636 q 568 601 596 615 q 526 578 546 590 q 489 556 506 567 q 451 531 469 543 q 422 532 435 519 q 421 547 419 539 q 431 563 422 556 q 460 583 433 564 q 526 622 486 601 q 611 660 565 643 q 697 678 657 678 q 733 673 715 678 q 767 656 750 668 q 781 615 781 642 q 770 565 781 592 q 745 513 760 539 q 715 465 731 488 q 689 428 699 442 m 103 43 q 177 41 129 26 q 285 92 225 56 l 279 94 l 267 103 l 244 115 q 210 135 226 126 q 179 150 194 143 q 135 146 157 160 q 103 111 114 132 q 90 72 92 92 q 103 43 88 53 z "},"3":{"ha":488,"x_min":-75,"x_max":614,"o":"m 606 658 q 603 616 614 639 q 570 570 593 593 q 517 525 547 547 q 456 484 486 503 q 400 451 426 465 q 360 429 374 436 l 361 429 q 351 423 354 425 q 345 419 347 421 q 340 416 343 418 q 329 410 338 414 q 338 411 332 410 q 346 413 343 413 q 379 417 363 415 q 415 419 396 419 q 460 412 439 419 q 496 388 482 404 q 476 269 524 347 q 404 185 450 228 q 304 107 358 143 q 192 44 250 71 q 83 6 135 17 q 63 2 75 3 q 40 1 51 1 q -24 17 6 1 q -74 68 -53 32 q -58 88 -75 74 q -42 92 -51 94 q -29 82 -33 90 q -1 51 -21 60 q 42 43 18 43 q 63 44 53 43 q 83 49 74 46 q 181 81 129 57 q 283 138 233 104 q 374 209 332 171 q 440 285 415 247 q 456 358 474 338 q 393 378 444 378 q 313 369 363 378 q 287 365 304 368 q 251 357 269 361 q 215 348 232 353 q 189 339 197 343 q 190 342 188 339 q 176 335 185 339 q 163 331 167 331 q 151 351 149 338 q 164 371 153 364 q 221 397 190 382 q 280 427 247 410 q 349 464 313 444 q 513 569 458 526 q 563 636 567 613 q 545 647 556 643 q 524 650 535 650 q 457 639 494 650 q 399 619 419 628 q 283 568 329 592 q 236 543 258 554 q 224 548 232 540 q 210 568 217 556 q 216 575 208 571 q 233 585 224 579 q 242 590 228 585 l 242 589 q 301 619 261 599 q 392 658 342 639 q 472 684 433 675 q 536 693 510 693 q 606 658 589 693 z "},"4":{"ha":565,"x_min":24,"x_max":744,"o":"m 711 714 q 736 713 728 724 q 740 686 744 701 l 479 286 l 603 286 q 617 281 613 286 q 623 267 622 275 q 619 253 624 260 q 604 246 614 247 l 454 246 l 300 10 q 289 6 296 4 q 275 11 282 7 q 265 22 268 15 q 265 33 261 28 l 404 246 l 47 246 q 28 260 33 246 q 35 285 24 274 l 710 714 l 711 714 m 431 286 l 656 631 q 386 459 517 543 q 115 286 256 375 l 431 286 z "},"5":{"ha":522,"x_min":-17,"x_max":688,"o":"m 668 664 q 682 658 676 664 q 686 642 688 653 q 664 624 681 624 l 403 619 q 324 500 360 556 q 246 381 289 444 q 281 389 263 385 q 318 396 299 393 q 360 401 339 400 q 399 403 381 403 q 493 372 467 403 l 493 374 q 510 326 510 357 q 490 260 510 297 l 492 260 q 434 176 472 218 q 349 99 396 135 q 249 39 301 64 q 149 4 197 14 q 103 0 125 0 q -4 54 28 0 q 1 83 -17 69 q 26 85 15 96 q 63 51 42 60 q 107 42 83 42 q 144 46 125 42 q 235 76 188 54 q 324 130 282 99 q 401 198 367 161 q 454 272 436 235 q 467 335 478 324 q 396 363 447 363 q 322 354 361 363 q 258 341 288 349 q 217 329 229 333 q 197 321 206 321 q 186 324 189 321 l 188 324 q 181 334 183 326 q 182 349 179 342 q 184 356 182 353 q 188 360 186 358 l 188 358 l 378 656 l 382 657 q 394 660 385 660 l 668 664 l 668 664 z "},"6":{"ha":593,"x_min":6,"x_max":542,"o":"m 538 214 q 499 97 542 161 q 414 15 463 49 q 307 -32 365 -18 q 235 -40 271 -40 q 171 -31 206 -40 q 110 -8 136 -21 q 21 104 36 33 q 72 285 6 186 q 332 560 153 404 q 418 630 379 600 q 478 676 457 660 q 492 688 489 685 q 497 692 494 690 q 514 697 504 697 q 528 686 524 696 l 526 688 q 531 673 532 681 q 522 660 529 665 q 499 642 521 660 q 440 597 476 625 q 358 529 404 568 q 267 447 313 490 q 178 356 221 403 q 106 265 136 310 l 96 251 q 276 328 176 308 q 310 333 293 331 q 344 335 328 335 q 422 324 386 335 q 486 296 458 314 q 522 260 508 281 q 538 214 535 239 m 465 119 q 496 197 496 165 q 458 263 496 238 q 339 293 415 293 q 310 292 325 293 q 279 288 294 290 q 163 247 217 276 q 69 174 110 218 l 64 172 q 74 83 53 119 q 131 28 94 47 q 239 3 176 3 q 361 31 299 3 q 465 119 424 58 m 65 174 l 58 169 l 63 172 l 64 172 q 65 174 65 172 z "},"7":{"ha":333,"x_min":-67,"x_max":522,"o":"m 503 674 q 519 664 517 674 q 515 643 522 654 l 297 394 l 375 394 q 388 388 383 394 q 390 375 392 382 q 383 361 389 368 q 368 353 378 354 l 261 353 q 114 180 186 267 q -32 7 42 93 q -44 3 -36 1 q -57 8 -51 4 q -65 19 -62 13 q -61 31 -67 25 q 74 191 3 108 q 211 353 144 274 l 119 353 q 105 359 108 353 q 102 372 101 365 q 109 386 103 379 q 126 394 115 393 l 246 394 l 457 632 l 39 632 q 24 638 28 632 q 21 651 19 644 q 28 665 22 658 q 46 674 35 672 l 503 674 l 503 674 z "},"8":{"ha":590,"x_min":-36,"x_max":643,"o":"m 558 349 q 599 279 599 318 q 578 217 599 247 q 528 167 557 188 q 466 127 500 146 q 394 90 432 108 q 219 31 313 57 q 33 6 126 6 q 1 10 18 6 q -24 35 -17 15 q 1 115 -36 64 q 39 157 15 133 q 90 208 63 181 q 191 301 135 251 q 306 399 247 350 l 294 401 q 265 412 281 406 q 229 429 249 418 l 229 428 q 203 441 217 433 q 177 459 189 449 q 157 481 165 469 q 149 508 149 493 q 174 557 149 533 q 235 601 199 581 q 312 637 272 621 q 379 664 351 653 q 388 667 383 665 q 396 671 393 669 l 396 669 l 415 679 q 444 690 426 683 q 482 701 461 696 q 526 710 503 706 q 571 714 549 714 q 610 709 593 714 q 635 692 628 704 q 639 659 643 675 q 624 628 635 643 q 601 601 614 614 q 575 576 588 588 l 576 576 l 564 565 q 494 501 533 535 q 410 431 454 468 l 393 415 q 431 403 408 411 q 478 385 454 394 q 524 367 501 376 q 558 349 546 357 m 200 511 q 214 486 200 497 q 248 465 228 475 q 290 448 268 456 q 329 435 313 440 l 344 431 q 437 507 393 469 q 529 589 481 544 q 581 642 567 622 q 593 669 596 661 q 529 667 582 681 q 411 631 476 654 q 340 603 378 618 q 272 574 303 589 q 221 542 242 558 q 200 511 200 526 m 378 131 q 419 151 390 136 q 480 187 449 167 q 535 231 511 207 q 558 278 558 254 q 553 295 558 286 q 535 314 549 304 q 468 349 506 336 q 392 372 431 361 l 351 383 q 227 278 288 329 q 117 178 167 226 q 70 131 93 156 q 35 89 47 106 q 19 58 21 71 q 43 49 17 46 q 210 75 122 54 q 378 131 299 96 z "},"9":{"ha":428,"x_min":-28,"x_max":586,"o":"m 56 503 q 74 557 58 529 q 114 614 89 585 q 213 687 158 658 q 326 724 268 715 q 401 724 367 728 q 465 708 433 721 q 521 681 497 696 q 586 558 583 631 q 564 474 586 519 q 504 388 542 429 q 374 270 453 333 q 197 140 296 207 q 104 83 146 108 q 38 44 63 58 q 28 40 33 42 q 21 35 24 38 q 14 29 17 32 q -9 24 1 22 q -22 35 -19 26 l -21 33 q -8 61 -28 49 q 18 75 -7 61 q 84 114 43 89 q 176 172 125 139 q 281 244 228 206 q 385 324 335 283 q 474 407 435 365 l 485 421 q 392 382 442 397 q 293 364 342 367 q 176 374 231 360 q 90 415 122 388 q 63 456 72 433 q 56 501 53 478 l 56 503 m 144 589 q 97 500 97 539 q 124 447 97 469 q 196 411 150 422 q 299 403 242 400 q 419 431 361 407 q 526 494 478 454 l 531 496 l 533 497 l 538 500 l 531 496 q 543 551 543 526 q 529 606 543 582 q 493 646 515 631 q 433 673 467 663 q 364 683 400 683 q 250 660 308 683 q 144 589 192 638 z "},"\u0000":{"ha":0,"x_min":0,"x_max":0,"o":""},"\r":{"ha":694,"x_min":0,"x_max":0,"o":""}," ":{"ha":694,"x_min":0,"x_max":0,"o":""},"i":{"ha":404,"x_min":-35,"x_max":508,"o":"m 479 283 q 493 288 486 289 q 504 283 500 288 q 508 270 508 278 q 500 256 507 263 q 419 195 465 228 q 323 131 372 163 q 228 72 274 99 q 147 29 182 44 q 111 14 133 22 q 65 2 89 6 q 20 4 42 -1 q -15 31 -1 10 q -22 105 -35 60 q 22 205 -10 150 q 100 320 54 260 q 194 442 146 381 q 208 450 200 450 q 223 447 217 450 q 232 437 229 443 q 232 426 235 431 q 185 366 213 401 q 128 291 157 331 q 75 211 100 251 q 35 135 50 171 q 18 74 19 100 q 36 36 17 47 q 78 41 47 29 q 152 75 110 53 q 243 126 194 97 q 338 185 292 156 q 421 241 383 215 q 479 283 458 267 m 297 682 q 313 682 306 685 q 324 673 321 679 q 326 660 328 667 q 315 649 325 653 l 253 621 q 238 622 246 618 q 226 631 231 625 q 220 642 221 636 q 226 653 219 649 l 297 682 z "},"d":{"ha":700,"x_min":-24,"x_max":803,"o":"m 768 283 q 788 292 781 292 q 799 286 796 292 q 801 273 803 281 q 793 258 800 265 q 734 213 769 240 q 656 157 699 186 q 569 99 614 128 q 481 48 524 69 q 403 15 439 26 q 343 11 367 4 q 317 37 324 19 q 309 75 310 54 q 313 117 308 96 q 322 158 317 139 q 275 117 301 139 q 222 75 249 94 q 169 40 194 56 q 126 17 144 24 q 64 4 90 4 q 24 11 40 4 q -1 29 8 18 q -24 92 -24 54 q -7 165 -24 124 q 44 251 10 206 q 128 344 81 300 q 222 421 175 389 q 290 454 251 439 q 365 469 329 469 q 424 447 400 469 q 449 369 449 425 q 552 522 510 461 q 624 626 594 583 q 676 700 654 669 q 718 763 697 731 q 733 773 725 772 q 748 769 742 774 q 756 757 754 765 q 750 739 757 749 q 695 665 735 719 q 606 540 656 611 q 506 391 557 469 q 418 244 456 313 q 364 124 381 175 q 368 60 347 74 q 411 60 381 50 q 481 92 442 71 q 566 142 521 114 q 651 199 611 171 q 723 251 692 228 q 768 283 754 274 m 304 196 q 378 296 350 249 q 408 378 406 343 q 391 422 410 413 q 345 428 372 432 q 290 410 318 424 q 244 386 261 397 q 178 337 213 367 q 112 272 143 307 q 56 197 81 236 q 21 121 31 158 q 19 76 14 93 q 38 53 25 60 q 71 47 51 46 q 111 56 90 47 q 207 110 154 72 q 304 196 260 147 z "},"u":{"ha":696,"x_min":-18,"x_max":801,"o":"m 772 286 q 789 292 782 293 q 799 284 796 290 q 799 269 801 278 q 789 256 797 261 q 724 206 763 235 q 642 147 685 178 q 553 88 599 117 q 465 39 507 60 q 389 9 424 18 q 332 8 354 0 q 311 28 317 14 q 306 63 306 43 q 312 103 307 82 q 324 146 317 125 q 268 104 301 129 q 197 56 235 79 q 122 15 160 32 q 50 -1 83 -1 q -3 19 13 0 q -17 71 -18 39 q 0 144 -15 103 q 38 230 15 186 q 88 317 61 274 q 142 397 115 361 q 156 407 147 406 q 172 405 165 408 q 182 394 179 401 q 179 379 185 388 q 137 315 160 351 q 94 242 114 279 q 58 168 74 204 q 34 103 42 132 q 29 55 26 74 q 50 35 32 36 q 101 44 67 32 q 181 81 136 56 q 274 144 225 106 q 368 238 322 183 q 408 299 392 275 q 439 344 424 322 q 471 389 454 365 q 513 449 488 413 q 526 458 518 457 q 542 455 535 458 q 553 445 550 451 q 554 435 557 439 q 520 385 543 418 q 471 313 497 353 q 417 228 444 272 q 372 147 390 185 q 349 81 354 108 q 358 47 343 54 q 406 51 375 40 q 477 84 438 63 q 560 135 517 106 q 644 194 604 165 q 719 247 685 222 q 772 286 753 272 z "},"l":{"ha":383,"x_min":-19,"x_max":554,"o":"m 549 942 q 517 893 547 940 q 439 774 486 846 q 336 617 392 703 q 228 450 281 531 q 137 304 176 369 q 82 210 97 239 q 65 178 76 200 q 46 131 54 156 q 35 87 38 107 q 49 60 33 67 q 104 60 69 50 q 181 93 139 71 q 267 144 222 115 q 349 202 311 174 q 417 253 388 231 q 458 286 446 276 q 472 290 465 292 q 481 283 478 289 q 483 269 485 278 q 474 254 482 261 q 453 238 475 256 q 393 192 431 219 q 308 133 356 165 q 213 72 261 100 q 118 26 164 44 q 40 8 72 7 q -10 35 0 8 q -12 97 -19 61 q 12 169 -6 132 q 42 229 29 207 q 97 323 57 258 q 188 467 138 388 q 294 633 239 547 q 397 790 350 718 q 477 910 444 861 q 514 965 510 958 q 528 974 519 974 q 543 970 536 975 q 552 958 550 965 q 549 942 554 950 z "},"v":{"ha":521,"x_min":-32,"x_max":801,"o":"m 571 407 q 475 302 524 357 q 374 195 426 247 q 263 99 321 143 q 138 24 204 54 q 72 1 108 8 q 4 11 36 -6 q -28 57 -25 25 q -21 125 -32 89 q 10 197 -10 161 q 46 257 29 233 q 108 349 79 306 q 165 429 136 393 q 182 441 172 439 q 200 440 192 443 q 213 432 208 438 q 213 421 217 426 q 174 365 197 400 q 124 289 150 329 q 73 206 97 249 q 32 129 49 164 q 11 70 15 94 q 21 40 7 46 q 114 51 53 29 q 263 140 175 72 q 349 219 303 171 q 435 313 394 267 q 508 397 476 360 q 550 446 539 435 q 581 447 567 447 q 618 447 596 447 q 676 447 640 447 q 772 447 711 447 q 794 441 786 447 q 801 427 801 435 q 794 413 801 419 q 772 407 786 407 l 571 407 l 571 407 z "},"w":{"ha":1017,"x_min":-3,"x_max":1219,"o":"m 985 406 q 912 339 954 382 q 820 247 869 296 q 717 147 771 197 q 609 60 663 97 q 505 6 556 24 q 411 4 454 -11 q 379 28 390 11 q 365 65 368 44 q 364 107 361 85 q 374 149 367 129 q 304 97 344 122 q 220 50 264 71 q 133 16 176 29 q 56 3 90 3 q 10 24 22 1 q 2 83 -3 46 q 24 167 7 119 q 66 263 42 214 q 119 360 90 313 q 175 444 149 407 q 189 450 181 450 q 203 447 197 450 q 213 436 210 443 q 210 419 215 429 q 173 363 194 396 q 129 293 151 331 q 86 218 107 256 q 53 148 65 181 q 39 90 40 115 q 53 56 38 65 q 110 48 74 42 q 184 69 146 54 q 258 105 222 85 q 314 140 293 125 q 377 194 349 165 q 434 259 406 224 q 495 338 463 294 q 571 438 528 382 q 588 447 579 447 q 603 443 597 447 q 611 431 610 439 q 607 415 613 422 q 556 351 585 386 q 500 281 528 317 q 449 210 472 246 q 414 144 426 175 q 403 86 401 113 q 428 42 406 60 q 516 55 464 29 q 626 126 568 81 q 742 227 683 171 q 850 332 800 283 q 938 414 900 381 q 990 446 975 447 l 1201 444 q 1215 439 1211 444 q 1219 426 1219 433 q 1215 412 1219 418 q 1201 406 1210 406 l 985 406 l 985 406 z "},"n":{"ha":618,"x_min":-107,"x_max":728,"o":"m 692 285 q 713 293 704 293 q 724 288 721 293 q 726 274 728 282 q 715 260 724 265 q 668 223 699 247 q 601 169 638 199 q 526 110 565 140 q 450 53 486 79 q 385 12 414 28 q 340 -4 356 -4 q 306 2 322 -4 q 282 32 289 8 q 296 108 274 63 q 351 210 318 154 q 384 264 368 236 q 410 315 400 292 q 424 357 421 339 q 415 383 426 375 q 366 376 403 393 q 285 329 329 358 q 197 268 240 300 q 132 215 154 236 q 9 97 64 154 q -79 6 -46 40 q -91 -1 -85 -1 q -101 4 -97 0 q -106 15 -106 8 q -101 29 -107 22 l 176 450 q 190 459 182 458 q 205 456 199 460 q 214 445 211 453 q 210 428 217 438 l 56 193 q 301 384 207 331 q 438 413 394 438 q 465 367 464 393 q 454 313 465 342 q 426 256 446 288 q 388 192 407 224 q 370 163 385 186 q 342 115 356 140 q 323 67 329 89 q 329 39 317 44 q 365 47 340 35 q 421 79 389 58 q 490 128 453 100 q 563 185 526 157 q 633 240 599 214 q 692 285 667 267 z "},"h":{"ha":642,"x_min":-71,"x_max":753,"o":"m 719 288 q 738 294 729 296 q 749 288 746 293 q 751 275 753 283 q 740 260 749 267 q 683 214 718 242 q 605 154 647 186 q 519 91 563 122 q 437 37 475 60 q 369 3 399 14 q 326 1 339 -7 q 299 42 300 14 q 308 103 297 71 q 335 164 318 135 q 360 208 351 193 q 388 263 374 235 q 413 315 403 290 q 424 356 422 339 q 413 382 425 374 q 370 383 397 392 q 306 351 343 375 q 229 294 271 329 q 139 214 188 258 q 82 159 107 183 q 38 114 57 135 q 1 74 18 93 q -29 38 -15 56 q -44 28 -36 29 q -60 33 -53 28 q -69 47 -67 38 q -64 64 -71 56 l 490 954 q 505 967 496 965 q 521 963 514 968 q 530 947 528 957 q 525 928 532 938 l 69 204 l 111 246 q 432 417 342 468 q 462 367 460 397 q 453 304 464 338 q 424 240 442 271 q 396 190 407 210 q 381 162 393 185 q 356 113 368 139 q 340 65 344 88 q 347 38 335 43 q 377 46 354 35 q 432 78 400 57 q 502 126 464 99 q 579 183 540 154 q 655 239 618 211 q 719 288 692 267 z "},"k":{"ha":524,"x_min":-64,"x_max":631,"o":"m 446 285 q 433 274 442 278 q 417 269 425 269 q 403 272 408 268 q 400 285 397 276 q 423 348 417 321 q 414 383 429 375 q 376 386 399 392 q 331 368 354 381 q 288 340 308 356 q 254 317 267 325 q 213 257 233 286 q 174 192 193 228 q 150 131 158 160 q 144 81 142 103 q 167 47 147 56 q 221 49 186 39 q 297 81 256 60 q 384 132 339 103 q 469 190 429 161 q 542 244 510 219 q 592 282 575 268 q 613 292 604 293 q 626 286 622 292 q 629 272 631 281 q 622 260 628 264 q 572 221 606 247 q 495 164 539 194 q 403 101 451 133 q 308 47 354 69 q 220 12 261 24 q 153 10 179 0 q 103 79 108 29 q 103 113 100 93 q 114 153 107 132 q 131 194 121 174 q 150 232 140 214 q 94 177 118 201 q 50 132 69 153 q 15 92 31 111 q -17 57 -1 74 q -32 49 -22 50 q -49 53 -42 49 q -60 67 -57 58 q -56 85 -64 75 l 514 960 q 527 968 519 968 q 542 964 535 968 q 551 951 549 960 q 549 935 554 943 l 69 206 q 203 324 144 276 q 306 396 261 371 q 382 426 350 421 q 435 418 414 431 q 458 391 451 406 q 463 359 464 376 q 457 323 463 342 q 446 285 451 304 z "},"o":{"ha":554,"x_min":-29,"x_max":661,"o":"m 631 288 q 645 292 638 293 q 657 286 653 292 q 661 273 661 281 q 653 260 661 265 q 594 215 633 244 q 509 159 556 185 q 412 121 463 133 q 318 125 361 108 q 227 51 274 82 q 139 4 181 19 q 74 -8 101 -8 q 33 -1 49 -8 q 6 17 17 7 q -19 62 -10 32 q -11 147 -29 92 q 24 222 1 182 q 79 300 47 261 q 159 383 115 344 q 247 446 203 422 q 333 474 292 469 q 408 454 375 478 q 453 343 461 417 q 420 255 446 303 q 350 158 394 207 q 419 163 381 151 q 497 194 458 174 q 572 241 536 215 q 631 288 607 267 m 411 349 q 392 415 417 392 q 360 371 378 397 q 328 315 343 344 q 306 256 314 286 q 301 204 297 226 q 313 179 303 190 q 379 267 353 222 q 411 349 406 313 m 125 43 q 205 85 164 58 q 283 149 246 113 q 260 197 267 168 q 308 365 250 260 q 331 403 319 386 q 351 432 343 421 q 306 425 328 432 q 263 407 285 418 q 186 351 225 386 q 111 274 147 317 q 61 201 82 238 q 29 133 40 165 q 20 88 22 113 q 33 47 18 63 q 77 33 51 31 q 125 43 103 36 z "},"q":{"ha":603,"x_min":-44,"x_max":721,"o":"m 683 288 q 709 292 697 301 q 710 268 721 283 q 547 148 635 193 q 346 92 458 103 q 309 11 325 47 q 278 -59 293 -25 q 247 -131 264 -93 q 210 -217 231 -168 q 174 -295 196 -247 q 124 -388 151 -343 q 68 -467 97 -433 q 14 -500 39 -500 q -23 -484 -8 -500 q -42 -444 -37 -468 q -42 -406 -44 -426 q -31 -361 -39 -386 q -6 -304 -22 -336 q 36 -231 11 -272 q 151 -61 90 -143 q 278 101 211 21 q 213 58 249 81 q 141 19 176 36 q 73 -4 106 3 q 18 0 40 -11 q -28 58 -22 19 q -17 142 -35 96 q 38 236 1 188 q 120 327 75 285 q 214 400 165 369 q 304 440 263 431 q 336 446 321 444 q 367 447 351 447 q 452 433 417 447 q 506 408 488 418 q 513 399 510 406 q 515 385 517 392 l 557 433 q 572 439 564 440 q 586 433 581 438 q 593 419 592 428 q 589 404 594 411 q 570 384 589 404 q 519 328 551 364 q 445 242 488 292 q 356 132 403 192 q 520 170 436 131 q 683 288 604 210 m 422 272 q 468 329 447 304 q 506 374 489 354 q 485 372 496 368 q 434 396 461 385 q 371 407 407 407 q 211 353 288 407 q 79 218 135 299 q 30 137 50 176 q 13 71 10 97 q 35 38 15 44 q 127 54 64 25 q 276 150 190 83 q 342 206 301 171 q 422 272 382 240 m 181 -201 q 215 -127 200 -160 q 244 -62 229 -94 q 275 4 258 -31 q 314 86 292 39 q 168 -110 226 -29 q 69 -253 110 -192 q 45 -293 61 -265 q 16 -352 29 -321 q -3 -412 3 -383 q 6 -457 -8 -442 q 43 -446 25 -460 q 81 -401 61 -432 q 125 -320 101 -369 q 181 -201 149 -271 z "},"r":{"ha":506,"x_min":-117,"x_max":478,"o":"m 432 249 q 417 238 425 239 q 403 240 410 236 q 394 249 397 243 q 394 263 392 256 q 433 339 422 307 q 425 383 443 371 q 383 385 411 393 q 317 353 356 376 q 236 295 281 331 q 142 215 192 260 q 75 155 108 185 q 13 98 42 125 q -40 48 -17 71 q -76 7 -62 25 q -91 0 -83 0 q -105 4 -99 0 q -114 15 -111 8 q -112 26 -117 21 l 190 438 q 204 445 196 444 q 219 441 213 446 q 228 428 226 436 q 224 411 231 421 q 181 353 199 376 q 148 310 164 331 q 115 265 132 289 q 72 207 97 242 l 115 247 q 447 418 361 468 q 474 382 469 404 q 472 335 478 360 q 454 288 467 311 q 432 249 442 265 z "},"m":{"ha":1025,"x_min":-82,"x_max":1124,"o":"m 421 303 q 443 366 439 339 q 432 404 447 393 q 390 406 417 414 q 325 374 363 397 q 249 316 292 351 q 160 236 207 281 q 97 172 128 206 q 41 108 67 139 q -7 49 15 76 q -44 6 -29 22 q -58 1 -50 0 q -72 6 -65 1 q -80 17 -78 10 q -78 33 -82 25 l 165 436 q 178 444 171 443 q 192 440 186 444 q 201 428 199 436 q 200 413 204 421 q 167 357 181 379 q 140 315 153 335 q 113 272 128 294 q 79 217 99 250 l 131 268 q 451 439 361 490 q 476 408 469 426 q 483 371 483 390 q 476 332 483 351 q 461 296 469 313 q 442 261 451 278 q 422 229 432 244 q 656 426 561 364 q 794 465 751 489 q 826 419 824 447 q 818 361 828 390 q 797 311 811 339 q 767 256 782 283 q 746 215 760 243 q 720 158 732 188 q 703 101 708 128 q 710 67 699 75 q 751 67 722 58 q 817 95 781 76 q 895 140 854 114 q 974 191 936 165 q 1043 238 1013 217 q 1090 272 1074 260 q 1110 280 1103 281 q 1121 274 1118 279 q 1122 260 1124 268 q 1114 247 1121 251 q 1067 212 1099 236 q 994 158 1035 188 q 908 100 954 129 q 819 49 863 71 q 740 19 776 28 q 682 21 704 10 q 663 42 668 28 q 657 74 657 56 q 662 113 657 92 q 674 154 667 133 q 721 258 689 201 q 760 336 744 300 q 779 395 772 367 q 774 432 786 424 q 744 431 764 439 q 697 405 724 422 q 640 365 671 388 q 581 318 610 342 q 528 272 553 294 q 489 236 504 250 q 422 169 454 203 q 362 104 389 135 q 315 49 335 74 q 286 13 294 25 q 272 3 279 4 q 258 8 264 3 q 252 21 253 13 q 260 39 251 29 q 298 102 278 68 q 340 171 318 136 q 382 240 361 206 q 421 303 403 274 z "},"g":{"ha":582,"x_min":-261,"x_max":688,"o":"m 653 282 q 671 286 663 288 q 683 278 679 285 q 686 265 688 272 q 676 251 685 257 q 642 230 675 251 q 552 172 608 208 q 422 83 496 135 q 264 -28 347 32 q 201 -105 232 -68 q 138 -178 171 -142 q 68 -254 104 -215 q -8 -336 32 -293 q -87 -416 -54 -386 q -144 -462 -121 -446 q -182 -485 -167 -479 q -207 -492 -197 -490 q -244 -478 -226 -492 q -258 -439 -261 -465 q -253 -413 -258 -429 q -231 -374 -247 -397 q -183 -318 -214 -351 q -100 -239 -151 -285 q 222 17 21 -131 q 233 24 228 21 q 243 32 238 28 q 376 210 315 125 q 319 157 349 182 q 261 111 289 132 q 217 80 244 99 q 158 44 189 61 q 95 15 126 26 q 38 3 64 3 q -6 19 14 3 q -29 64 -26 36 q -26 108 -32 85 q -12 153 -21 131 q 8 195 -3 175 q 28 229 19 215 q 100 322 60 278 q 183 399 140 367 q 313 464 251 447 q 449 457 386 485 q 465 447 456 454 q 483 429 475 440 q 492 401 490 418 q 486 360 494 383 q 533 424 515 400 q 550 450 550 449 q 564 458 556 458 q 579 454 572 458 q 588 442 586 450 q 585 426 590 435 q 563 393 585 425 q 508 311 542 361 q 429 198 474 261 q 338 71 385 135 q 461 152 404 114 q 560 219 518 190 q 627 265 603 247 q 653 282 651 282 m 238 144 q 368 260 313 201 q 443 364 424 319 q 435 417 458 403 q 374 431 411 431 q 281 408 325 431 q 208 365 236 386 q 130 293 168 335 q 64 207 92 251 q 23 129 36 165 q 13 69 10 93 q 18 53 14 58 q 26 47 22 49 q 106 64 54 42 q 238 144 158 86 m -211 -450 q -181 -438 -203 -450 q -119 -389 -160 -426 q -14 -281 -78 -351 q 144 -93 50 -210 q -46 -247 25 -185 q -155 -349 -117 -308 q -205 -410 -193 -389 q -218 -442 -217 -432 q -218 -447 -218 -444 q -211 -450 -218 -450 z "},"j":{"ha":200,"x_min":-619,"x_max":326,"o":"m 300 683 q 313 683 307 686 q 323 674 319 681 q 326 661 326 668 q 319 650 326 654 l 257 622 q 232 629 242 617 q 231 654 222 642 l 300 683 m 281 288 q 295 289 289 292 q 304 280 301 286 q 305 266 307 274 q 294 253 303 258 q 265 231 293 253 q 185 174 236 210 q 65 88 135 138 q -87 -18 -4 39 q -97 -24 -93 -25 q -107 -29 -101 -22 q -249 -206 -183 -128 q -368 -342 -315 -283 q -447 -422 -414 -392 q -503 -468 -481 -451 q -541 -490 -526 -485 q -565 -497 -556 -496 l -572 -497 q -591 -494 -583 -497 q -603 -486 -599 -490 q -615 -469 -610 -479 q -618 -444 -619 -460 q -611 -419 -617 -435 q -589 -380 -606 -403 q -542 -324 -572 -357 q -460 -244 -511 -290 q -319 -128 -400 -192 q -136 11 -239 -64 q -127 19 -132 15 q -117 26 -122 22 q 0 181 -56 106 q 98 314 56 256 q 166 408 140 372 q 192 444 192 443 q 205 453 196 451 q 221 449 214 454 q 229 436 228 444 q 225 421 231 428 q 203 389 225 419 q 144 310 181 358 q 63 199 108 261 q -31 74 17 138 q 92 156 36 117 q 190 224 149 194 q 256 270 232 253 q 281 288 279 288 m -571 -456 q -541 -442 -562 -454 q -478 -393 -519 -431 q -374 -286 -437 -356 q -215 -100 -310 -217 q -406 -253 -335 -190 q -515 -356 -476 -315 q -565 -417 -553 -396 q -576 -447 -576 -439 q -576 -453 -578 -451 q -575 -456 -575 -454 l -571 -456 z "},"y":{"ha":558,"x_min":-315,"x_max":672,"o":"m 38 32 q 3 44 17 32 q -15 75 -10 57 q 81 300 -31 140 q 119 355 100 329 q 155 400 139 381 q 181 432 171 419 q 190 444 190 444 q 206 451 197 451 q 219 445 214 450 q 226 432 225 440 q 222 417 228 424 l 188 375 q 153 330 172 356 q 115 276 135 304 q 62 194 81 228 q 35 137 43 160 q 26 102 26 114 q 26 85 25 90 q 47 74 29 71 q 85 86 64 76 q 123 106 106 96 q 143 119 140 117 q 311 247 214 165 q 393 318 354 283 q 462 381 432 353 q 510 426 492 408 q 529 444 528 443 q 543 453 535 453 q 558 448 551 453 q 566 435 564 443 q 563 421 568 428 q 530 374 551 406 q 478 299 508 343 q 410 202 449 256 q 329 90 372 149 q 460 168 403 132 q 558 231 518 204 q 618 273 597 257 q 640 289 639 289 q 656 292 649 293 q 668 285 664 290 q 672 272 672 279 q 663 260 671 265 q 628 235 658 257 q 543 176 597 213 q 415 90 489 139 q 250 -18 340 40 q 91 -210 160 -135 q -31 -342 22 -285 q -85 -399 -49 -361 q -161 -469 -121 -436 q -239 -519 -201 -503 q -297 -515 -276 -536 q -310 -471 -315 -497 q -281 -410 -304 -444 q -216 -333 -257 -375 q -122 -244 -175 -292 q 56 -102 -32 -164 q 221 26 143 -40 q 319 157 272 93 q 407 274 367 221 q 374 244 392 258 q 339 215 357 231 q 244 140 288 172 q 165 85 201 108 q 38 32 85 32 m 122 -100 q -72 -256 6 -187 q -196 -374 -150 -325 q -258 -451 -242 -424 q -268 -486 -275 -479 q -235 -474 -262 -492 q -159 -412 -208 -457 q -40 -290 -110 -367 q 122 -100 31 -212 z "},"x":{"ha":676,"x_min":-93,"x_max":783,"o":"m 750 286 q 766 291 758 292 q 778 286 774 290 q 783 274 783 282 q 775 261 783 267 q 724 221 757 246 q 649 167 690 196 q 562 109 608 139 q 472 56 515 79 q 389 16 428 32 q 324 0 350 0 q 258 16 289 -1 q 197 79 226 33 l -64 -111 q -78 -117 -71 -118 q -89 -110 -85 -115 q -92 -96 -93 -104 q -85 -81 -92 -87 l 175 111 q 129 186 150 150 q 82 265 108 222 q 82 276 79 271 q 91 286 85 282 q 104 292 97 290 q 115 288 111 293 q 127 269 117 286 q 151 228 138 251 q 181 178 165 204 q 208 133 196 153 l 558 404 q 573 410 565 410 q 586 406 581 410 q 592 394 592 401 q 585 381 592 388 l 226 104 q 274 52 254 64 q 322 39 293 40 q 401 58 354 38 q 503 114 447 79 q 622 194 560 149 q 750 286 685 239 z "},"f":{"ha":276,"x_min":-385,"x_max":389,"o":"m -24 160 q 106 315 44 240 q 216 452 167 390 q 300 559 265 514 q 351 626 335 604 q 365 636 357 635 q 380 634 374 638 q 388 622 386 631 q 382 604 389 614 q 306 509 350 565 q 212 390 261 453 q 112 263 163 326 q 18 144 61 199 q 106 156 63 144 q 190 185 149 167 q 270 229 231 204 q 346 281 310 254 q 363 286 354 286 q 376 283 371 286 q 380 272 381 279 q 371 258 379 265 q 299 205 340 232 q 210 156 257 178 q 115 119 164 133 q 22 104 67 106 q 4 51 15 83 q -22 -22 -7 18 q -54 -109 -36 -62 q -93 -204 -72 -156 q -147 -318 -124 -274 q -199 -400 -171 -362 q -263 -466 -232 -443 q -325 -487 -294 -489 q -372 -461 -360 -486 q -379 -398 -385 -436 q -353 -312 -374 -360 q -303 -218 -333 -264 q -209 -79 -264 -156 q -83 85 -154 -3 q -53 122 -68 104 q -24 160 -39 140 m -131 -189 q -94 -103 -111 -146 q -64 -22 -78 -60 q -40 46 -50 15 q -22 97 -29 76 l -51 60 q -174 -103 -119 -26 q -269 -240 -229 -179 q -310 -314 -296 -283 q -333 -367 -325 -344 q -341 -403 -340 -389 q -340 -426 -342 -417 q -312 -444 -336 -456 q -258 -397 -289 -433 q -192 -304 -226 -360 q -131 -189 -157 -249 z "},"z":{"ha":542,"x_min":-167,"x_max":643,"o":"m -146 -508 q -153 -445 -167 -485 q -103 -358 -139 -406 q -13 -255 -67 -310 q 100 -146 40 -200 q 220 -39 160 -92 q 331 57 281 14 q 225 44 281 58 q 124 14 169 29 l 94 7 q 76 7 83 3 q 67 19 68 11 q 70 38 65 28 q 88 53 75 47 q 132 84 106 65 q 189 124 158 103 q 249 169 219 146 q 303 214 279 192 q 375 306 356 263 q 383 375 394 349 q 344 390 371 393 q 284 373 318 388 q 213 335 250 358 q 142 288 176 313 q 78 243 107 264 q 35 211 50 222 q 19 207 26 206 q 9 214 13 208 q 6 226 6 219 q 15 240 7 233 q 37 257 18 242 q 85 294 56 272 q 150 340 114 315 q 223 386 186 365 q 294 420 260 407 q 353 433 328 433 q 415 406 394 432 q 429 343 435 379 q 401 272 425 308 q 343 201 378 236 q 269 135 308 167 q 192 76 229 103 q 235 88 213 82 q 280 96 257 93 q 325 98 303 99 q 365 90 347 97 q 471 174 431 142 q 538 226 511 206 q 581 260 564 246 q 619 289 599 274 q 635 294 629 296 q 642 285 640 292 q 640 270 643 279 q 632 256 638 261 q 605 234 618 244 q 567 204 592 224 q 503 153 543 185 q 394 67 463 121 q 420 -3 421 35 q 403 -79 419 -40 q 360 -155 388 -118 q 305 -222 332 -192 q 256 -274 278 -253 q 229 -300 235 -294 q 186 -339 214 -312 q 123 -396 158 -365 q 48 -456 88 -426 q -28 -505 8 -486 q -97 -527 -65 -524 q -146 -508 -128 -531 m 374 51 q 145 -149 243 -60 q -15 -307 47 -239 q -102 -420 -78 -375 q -111 -486 -126 -465 l -111 -485 q -65 -489 -96 -500 q 9 -448 -33 -478 q 101 -374 51 -418 q 201 -282 150 -331 q 272 -209 232 -251 q 344 -121 313 -167 q 388 -30 375 -75 q 374 51 400 15 z "},"s":{"ha":346,"x_min":-106,"x_max":458,"o":"m -26 -210 q -85 -215 -68 -221 q -104 -192 -103 -210 q -90 -143 -106 -169 q -50 -90 -75 -117 q 7 -36 -25 -62 q 70 15 39 -10 q 128 62 101 40 q 171 100 156 83 q 131 92 161 99 q 68 83 101 86 q 6 87 35 81 q -33 118 -24 93 q -21 175 -43 138 q 41 256 1 213 q 130 342 81 299 q 226 415 179 385 q 310 456 274 444 q 360 450 347 468 q 363 411 369 436 q 339 354 357 386 q 328 335 335 347 q 312 312 321 322 q 294 295 303 301 q 276 293 285 289 q 267 304 268 296 q 274 322 267 313 l 285 339 q 299 356 290 346 q 315 378 307 367 q 326 399 322 389 q 326 418 329 410 q 308 418 324 425 q 271 397 293 411 q 222 362 249 382 q 172 323 196 342 q 131 289 149 304 q 107 267 113 274 q 18 132 1 153 q 60 124 32 121 q 122 133 89 126 q 187 143 156 139 q 238 139 218 147 q 274 167 256 154 q 314 197 292 181 q 365 235 336 214 q 435 289 393 257 q 449 294 443 296 q 456 288 454 293 q 457 275 458 282 q 450 264 456 268 q 399 225 425 244 q 349 187 374 206 q 303 152 325 168 q 267 124 282 136 q 284 59 289 92 q 260 -4 279 26 q 213 -60 240 -35 q 165 -104 186 -86 q 69 -169 117 -142 q -26 -210 21 -196 m 228 93 q 127 13 179 56 q 32 -69 75 -31 q -39 -136 -11 -108 q -64 -171 -67 -164 q -18 -165 -49 -178 q 45 -135 13 -153 q 106 -97 78 -117 q 146 -69 135 -78 q 175 -42 151 -64 q 219 8 199 -19 q 247 60 239 35 q 228 93 254 85 z "},"V":{"ha":643,"x_min":-207,"x_max":1301,"o":"m 156 542 l 449 835 q 478 851 463 849 q 503 848 493 853 q 518 832 514 843 q 515 811 522 821 q 368 589 438 693 q 229 383 299 485 q 86 176 160 282 q -72 -51 13 71 q -137 -162 -115 -115 q -160 -236 -158 -210 q -79 -240 -146 -268 q 126 -118 -12 -212 q 328 38 215 -56 q 574 249 442 131 q 726 391 646 315 q 882 543 806 467 q 1028 689 958 619 q 1150 813 1097 758 q 1233 899 1203 867 q 1265 932 1264 931 q 1281 938 1272 939 q 1294 933 1289 938 q 1301 919 1300 928 q 1294 903 1301 911 q 1263 869 1293 901 q 1180 784 1232 838 q 1059 661 1128 731 q 913 515 990 592 q 755 362 836 439 q 599 217 674 285 q 353 5 465 97 q 150 -151 242 -87 q 28 -229 89 -196 q -81 -278 -32 -262 q -164 -287 -131 -294 q -201 -242 -197 -279 q -104 -26 -207 -179 q 166 374 33 176 q 432 767 299 572 l 185 513 q 170 506 178 506 q 158 513 163 507 q 151 526 153 518 q 156 542 149 535 z "},"W":{"ha":1343,"x_min":-256,"x_max":1960,"o":"m 164 546 l 444 832 q 470 840 454 844 q 485 826 486 836 q 428 685 471 760 q 329 533 385 610 q 213 380 274 456 q 100 235 151 304 l 53 178 q -41 58 4 115 q -122 -53 -86 0 q -188 -164 -167 -117 q -210 -237 -210 -211 q -131 -242 -200 -269 q 75 -119 -62 -214 q 278 36 164 -57 q 522 247 392 129 q 672 387 596 314 q 821 531 749 460 q 957 667 893 603 q 1069 781 1021 732 q 1147 861 1118 831 q 1178 893 1175 892 q 1193 899 1185 899 q 1207 894 1201 899 q 1215 882 1213 889 q 1211 868 1217 875 q 971 558 1082 697 q 769 306 860 418 q 611 110 679 194 q 500 -35 543 26 q 473 -74 488 -53 q 445 -119 458 -96 q 424 -166 432 -142 q 419 -215 417 -190 q 450 -253 422 -249 q 517 -243 478 -258 q 601 -199 556 -228 q 685 -136 646 -169 q 835 -4 761 -69 q 989 134 908 61 q 1160 290 1069 207 q 1364 476 1251 374 q 1614 702 1476 578 q 1925 981 1751 826 q 1940 987 1932 988 q 1952 980 1947 986 q 1958 965 1957 974 q 1953 949 1960 957 q 1560 594 1732 749 q 1260 323 1389 440 q 1038 122 1131 206 q 880 -20 944 38 q 774 -113 815 -78 q 708 -168 733 -149 q 628 -226 668 -200 q 560 -265 589 -251 q 506 -284 536 -276 q 449 -289 476 -292 q 401 -270 421 -286 q 378 -217 381 -254 q 392 -142 375 -183 q 436 -57 410 -100 q 494 27 463 -14 q 553 100 526 68 l 896 542 q 733 384 821 467 q 549 215 644 301 q 303 3 414 96 q 100 -153 192 -89 q 33 -199 69 -175 q -40 -243 -3 -222 q -113 -278 -78 -264 q -178 -296 -149 -293 q -226 -287 -207 -299 q -251 -243 -246 -275 q -231 -157 -256 -211 q -156 -28 -206 -103 q -111 33 -136 0 q -58 102 -86 67 q -2 173 -31 138 q 51 240 26 208 l 67 260 q 202 431 136 346 q 315 586 268 515 q 352 647 329 607 q 397 726 375 686 l 193 517 q 178 510 186 510 q 166 517 171 511 q 159 531 161 522 q 164 546 157 539 z "},"L":{"ha":1139,"x_min":-214,"x_max":1128,"o":"m 463 533 l 614 693 l 783 889 q 810 891 796 901 q 817 864 824 881 q 784 806 815 858 q 701 671 753 753 q 582 488 649 589 q 444 285 515 386 q 179 -71 293 63 q 331 -96 247 -83 q 508 -115 414 -108 q 828 -76 686 -126 q 1092 93 969 -26 q 1107 98 1099 99 q 1121 92 1115 97 q 1127 78 1126 86 q 1121 63 1128 69 q 849 -112 997 -58 q 506 -157 696 -169 q 310 -135 401 -150 q 147 -107 219 -121 q -75 -283 4 -269 q -140 -286 -106 -290 q -196 -253 -174 -282 q -214 -200 -214 -231 q -197 -137 -214 -169 q -135 -67 -176 -94 q -31 -35 -87 -35 q 50 -47 10 -37 q 132 -61 90 -57 q 261 100 192 8 q 411 308 331 192 q 540 500 479 407 q 647 667 600 593 q 615 632 628 646 q 588 603 603 618 q 552 565 574 588 q 493 504 531 543 q 478 498 486 497 q 464 503 469 499 q 457 517 458 508 q 463 533 456 525 m -82 -243 q -18 -209 -61 -239 q 100 -97 25 -179 q 35 -83 68 -90 q -32 -76 1 -76 q -113 -102 -81 -76 q -161 -156 -146 -128 q -164 -228 -182 -200 q -82 -243 -142 -254 z "},"P":{"ha":1164,"x_min":-54,"x_max":1236,"o":"m 839 819 q 969 873 900 858 q 1099 872 1039 888 q 1197 806 1158 856 q 1236 665 1236 756 q 1163 439 1233 558 q 1062 305 1121 368 q 935 193 1003 242 q 794 116 867 144 q 656 88 722 88 q 571 104 607 88 q 513 151 535 121 q 481 222 490 181 q 476 313 472 263 q 519 460 485 385 l -11 -294 q -40 -299 -26 -308 q -44 -271 -54 -290 l 603 651 l 533 579 q 519 572 526 572 q 506 578 511 572 q 499 591 500 583 q 504 607 497 599 q 655 767 601 711 q 733 850 708 824 q 763 881 758 876 q 769 889 768 886 q 783 897 775 897 q 798 893 792 897 q 807 881 804 889 q 804 865 810 874 l 686 699 q 839 819 758 772 m 1194 665 q 1163 784 1194 743 q 1083 836 1132 825 q 974 833 1033 847 q 860 785 915 818 q 723 676 789 742 q 607 533 657 611 q 543 402 564 467 q 524 284 522 338 q 549 192 526 231 q 615 138 572 153 q 721 135 658 124 q 864 196 783 147 q 1011 313 942 243 q 1126 460 1081 382 q 1194 665 1192 572 z "},"E":{"ha":1078,"x_min":-189,"x_max":1197,"o":"m 1042 661 q 1063 680 1043 661 q 1106 726 1082 699 q 1143 783 1132 758 q 1149 824 1154 807 q 1120 849 1144 840 q 1051 858 1096 858 q 895 828 972 857 q 749 755 818 800 q 625 654 681 710 q 533 542 569 599 q 492 418 482 460 q 558 457 519 435 q 640 498 597 479 q 726 529 682 517 q 806 538 769 542 q 838 523 826 535 q 850 494 850 511 q 839 456 850 476 q 804 417 828 436 q 733 370 775 393 q 647 336 692 347 q 558 329 603 325 q 478 363 514 333 q 197 170 333 272 q -64 -62 60 68 q -94 -103 -76 -78 q -124 -155 -112 -128 q -133 -206 -135 -182 q -103 -240 -131 -229 q 17 -251 -53 -260 q 173 -213 86 -242 q 360 -140 260 -185 q 574 -43 461 -96 q 752 42 667 0 q 906 120 838 85 q 1021 181 975 156 q 1079 214 1067 206 q 1099 218 1092 221 q 1110 208 1107 215 q 1113 193 1114 201 q 1103 181 1111 185 q 1046 149 1090 174 q 933 89 1001 125 q 778 8 865 53 q 590 -82 690 -36 q 372 -179 475 -135 q 181 -253 269 -224 q 17 -291 92 -282 q -117 -281 -58 -300 q -178 -233 -168 -264 q -178 -165 -189 -201 q -142 -94 -167 -129 q -96 -36 -117 -60 q -6 53 -58 6 q 108 152 46 101 q 239 253 169 203 q 381 350 308 304 q 417 374 400 363 q 454 397 435 385 q 499 565 432 458 q 601 690 540 631 q 733 796 661 750 q 887 870 806 842 q 1051 900 968 899 q 1138 885 1104 900 q 1185 845 1172 871 q 1185 783 1197 819 q 1136 701 1174 746 q 1089 650 1113 672 q 1064 626 1065 628 q 1048 622 1056 619 q 1036 630 1040 624 q 1033 645 1032 636 q 1042 661 1033 654 m 797 496 q 692 473 767 503 q 514 385 617 443 q 593 368 549 361 q 676 390 638 375 q 711 410 686 394 q 760 444 736 426 q 798 478 785 463 q 797 496 811 493 z "},"G":{"ha":1082,"x_min":-82,"x_max":1181,"o":"m 935 269 q 953 257 949 269 q 950 235 958 244 l 531 -522 q 518 -532 526 -531 q 503 -529 510 -533 q 492 -517 496 -525 q 494 -501 489 -510 l 817 81 q 729 8 779 49 q 617 -78 679 -33 q 480 -167 546 -128 q 351 -233 414 -206 q 96 -299 206 -299 q -6 -275 33 -299 q -63 -212 -44 -251 q -82 -122 -82 -172 q -68 -17 -82 -71 q -31 91 -54 35 q 29 208 -7 147 q 220 471 106 340 q 475 718 335 601 q 667 858 576 803 q 836 939 757 913 q 1067 936 974 982 q 1153 842 1125 904 q 1175 713 1181 779 q 1169 698 1175 703 q 1154 694 1163 693 q 1140 699 1146 694 q 1133 715 1133 704 q 1132 764 1135 738 q 1119 815 1129 790 q 1092 862 1110 840 q 1047 899 1074 883 q 979 917 1022 911 q 870 905 936 924 q 713 836 804 886 q 501 686 622 786 q 252 444 364 572 q 65 188 140 317 q 8 75 32 129 q -28 -28 -15 21 q -40 -103 -37 -64 q -33 -176 -43 -143 q 4 -233 -22 -210 q 81 -257 31 -256 q 307 -207 178 -261 q 592 -43 436 -153 q 703 41 653 0 q 791 114 754 82 q 850 165 828 146 q 876 188 872 185 l 899 228 l 644 225 q 629 231 635 225 q 624 246 624 238 q 628 260 624 254 q 644 267 633 267 l 935 269 l 935 269 z "},"S":{"ha":854,"x_min":-56,"x_max":1392,"o":"m 1192 874 q 1171 893 1174 874 q 1178 911 1168 904 q 1064 915 1125 914 q 936 913 1003 917 q 778 894 861 908 q 620 849 696 879 q 483 771 544 819 q 388 649 421 722 q 365 547 364 596 q 382 451 365 497 q 425 359 399 404 q 481 269 451 314 q 522 203 503 236 q 557 139 542 171 q 672 174 618 158 q 767 200 726 189 q 831 217 807 211 q 856 222 856 222 q 871 220 864 225 q 881 207 878 215 q 878 192 883 199 q 865 182 874 185 q 842 176 865 182 q 778 160 818 171 q 686 133 739 149 q 574 100 633 118 l 582 71 q 508 -137 607 -43 q 405 -212 467 -178 q 272 -269 343 -246 q 180 -294 224 -286 q 100 -301 136 -301 q 33 -293 60 -301 q -19 -262 -4 -282 q -39 -224 -35 -242 q 51 -75 -56 -151 q 396 86 158 1 l 517 126 q 484 185 503 156 q 446 247 465 215 q 388 341 417 293 q 341 441 358 389 q 323 549 324 493 q 350 665 322 606 q 592 885 415 810 q 935 954 733 942 q 1099 957 1019 960 q 1238 949 1178 954 q 1335 938 1299 943 q 1372 932 1371 932 q 1386 922 1381 929 q 1389 907 1392 915 q 1381 894 1388 899 q 1367 890 1374 889 l 1365 890 l 1193 874 l 1192 874 m 540 61 q 538 75 539 68 q 533 89 536 82 l 410 47 q 238 -22 313 11 q 110 -86 163 -54 q 68 -115 89 -99 q 31 -147 47 -131 q 6 -181 15 -164 q 1 -215 -3 -199 q 44 -253 8 -243 q 137 -258 81 -264 q 258 -231 193 -253 q 383 -176 325 -208 q 479 -108 442 -144 q 540 61 561 -31 z "},"H":{"ha":1032,"x_min":-231,"x_max":1321,"o":"m 299 496 q 283 501 289 496 q 276 516 276 507 q 282 532 276 525 l 554 819 q 588 841 574 840 q 611 831 603 842 q 619 804 619 821 q 608 774 618 788 q 522 653 568 719 q 428 523 475 588 q 341 403 382 458 q 274 313 300 347 l 840 313 q 942 444 890 376 q 1044 574 994 511 q 1136 694 1093 638 q 1212 794 1179 751 q 1263 861 1244 836 q 1283 888 1282 886 q 1296 894 1288 894 q 1310 888 1304 893 q 1319 875 1317 883 q 1315 858 1321 867 q 1165 664 1240 761 q 1099 577 1133 622 q 1028 486 1064 532 q 959 396 993 440 q 894 313 925 351 l 985 313 q 1000 306 994 313 q 1006 293 1006 300 q 1000 279 1006 286 q 985 271 994 272 l 860 271 q 743 119 797 192 q 649 -19 689 46 q 579 -149 597 -97 q 574 -172 576 -158 q 572 -197 571 -185 q 581 -217 574 -208 q 603 -229 588 -226 q 703 -197 640 -232 q 849 -96 765 -161 q 927 -29 889 -64 q 1008 42 965 6 q 1026 49 1018 50 q 1039 42 1035 47 q 1043 28 1043 36 q 1036 13 1043 19 q 968 -49 1008 -11 q 874 -128 928 -86 q 810 -173 846 -149 q 738 -218 775 -197 q 666 -253 701 -239 q 601 -267 631 -267 q 551 -246 574 -267 q 528 -193 528 -225 q 556 -92 528 -142 q 614 4 583 -43 q 702 131 653 63 q 807 271 751 199 l 240 271 q 145 149 194 213 q 48 24 96 86 q -44 -93 0 -37 q -120 -192 -87 -149 q -173 -260 -153 -235 q -193 -286 -193 -286 q -208 -292 -200 -293 q -222 -287 -217 -292 q -229 -273 -228 -282 q -224 -256 -231 -264 q -169 -186 -215 -244 q -120 -123 -150 -161 q -47 -30 -90 -85 q 55 99 -3 25 q 189 271 113 174 l -35 271 q -49 278 -44 271 q -54 292 -54 285 q -49 306 -54 300 q -35 313 -44 313 l 219 313 q 301 423 258 367 q 385 533 344 479 q 460 634 425 586 q 518 719 494 682 l 313 503 q 299 496 308 499 z "},"M":{"ha":1375,"x_min":-419,"x_max":1425,"o":"m 71 547 q 56 553 61 547 q 49 567 49 558 q 54 583 49 576 l 324 867 q 354 889 340 885 q 377 889 368 893 q 390 876 386 885 q 390 857 393 867 q 383 834 388 849 q 366 794 378 819 q 333 729 354 768 q 276 632 311 690 q 174 472 228 551 q 58 303 121 393 l 157 411 q 358 614 265 524 q 526 769 451 704 q 697 893 619 849 q 821 938 774 938 q 878 916 854 938 q 903 857 903 894 q 831 651 903 789 q 738 491 793 581 q 614 306 682 401 l 578 254 q 649 327 611 290 q 724 400 686 364 q 913 575 824 497 q 1074 706 1001 653 q 1357 826 1265 844 q 1414 785 1403 815 q 1415 717 1425 754 q 1385 640 1406 679 q 1347 576 1364 601 q 1269 465 1315 526 q 1179 344 1224 403 l 1156 314 q 1047 172 1100 244 q 956 40 993 100 q 906 -60 919 -19 q 907 -118 892 -100 q 944 -135 918 -135 q 994 -123 965 -135 q 1054 -92 1022 -111 q 1119 -49 1086 -74 q 1186 1 1153 -24 q 1251 58 1217 26 q 1314 117 1285 89 q 1363 165 1343 144 q 1385 186 1383 185 q 1400 192 1392 193 q 1414 187 1408 192 q 1419 173 1419 182 q 1410 154 1419 164 q 1378 122 1400 144 q 1326 73 1356 100 q 1267 17 1297 46 q 1210 -32 1236 -11 q 1052 -137 1119 -103 q 940 -172 985 -172 q 880 -151 901 -172 q 858 -94 858 -131 q 921 64 858 -37 q 1013 197 958 126 q 1122 339 1067 268 q 1225 474 1172 406 q 1314 599 1278 542 q 1368 700 1351 658 q 1378 761 1385 742 q 1356 783 1374 779 q 1318 785 1339 788 q 1277 775 1297 782 q 1246 764 1257 768 q 1176 726 1213 749 q 1097 671 1140 703 q 938 542 1026 619 q 750 369 850 465 q 597 214 658 279 q 491 97 536 149 q 409 1 446 44 q 326 -87 372 -42 q 315 -90 322 -92 q 303 -83 308 -89 q 295 -70 297 -78 q 300 -56 293 -62 q 365 29 335 -10 q 426 111 394 68 q 494 206 457 154 q 581 329 531 257 q 748 584 685 476 q 839 760 811 692 q 861 863 867 829 q 821 896 856 896 q 713 856 781 896 q 553 739 644 815 q 386 585 478 674 q 189 383 294 496 q 51 230 126 317 q -101 51 -24 143 q -251 -129 -178 -40 q -382 -287 -324 -218 q -397 -294 -389 -294 q -410 -289 -404 -293 q -418 -278 -417 -285 q -414 -264 -419 -271 q -296 -105 -358 -187 q -175 56 -233 -22 q -66 201 -117 133 q 18 315 -15 269 q 242 654 161 518 q 292 743 274 707 q 319 801 310 779 l 85 554 q 71 547 81 550 z "},"N":{"ha":1099,"x_min":-135,"x_max":1153,"o":"m 336 557 q 321 563 326 557 q 314 577 314 568 q 319 593 314 586 l 594 883 q 615 895 604 893 q 633 894 625 897 q 647 883 642 890 q 650 868 651 876 q 645 846 649 860 q 631 806 642 832 q 600 741 621 781 q 544 643 579 701 q 411 438 481 539 q 269 231 342 338 q 356 319 311 275 q 449 411 401 364 q 800 717 654 611 q 901 784 847 751 q 1002 833 954 817 q 1088 842 1050 849 q 1142 789 1125 835 q 1135 707 1153 758 q 1074 588 1118 656 q 995 476 1042 538 q 904 356 949 414 l 881 325 q 773 183 826 256 q 681 51 719 111 q 658 12 674 40 q 633 -47 643 -17 q 628 -100 624 -76 q 669 -124 633 -124 q 720 -112 692 -124 q 780 -81 749 -100 q 845 -37 811 -62 q 911 13 879 -12 q 971 63 942 38 q 1023 108 1000 88 q 1060 142 1046 129 q 1075 157 1074 156 q 1092 164 1083 165 q 1106 156 1101 163 q 1112 141 1111 150 q 1104 125 1113 132 q 1088 110 1103 124 q 1050 76 1074 97 q 997 30 1026 56 q 936 -21 967 4 q 779 -126 849 -90 q 665 -161 710 -161 q 609 -140 633 -161 q 585 -83 585 -119 q 646 75 585 -26 q 738 208 685 138 q 849 350 792 279 q 951 485 899 417 q 1040 610 1003 553 q 1093 711 1076 669 q 1103 772 1110 753 q 1081 795 1099 790 q 1043 797 1064 800 q 1002 786 1022 793 q 971 775 982 779 q 824 682 906 743 q 665 553 753 631 q 476 381 576 476 q 288 181 374 281 q 131 -8 201 81 q 7 -169 61 -97 q -86 -286 -47 -242 q -99 -290 -90 -292 q -117 -282 -108 -287 q -130 -269 -125 -276 q -131 -258 -135 -262 q -89 -203 -115 -240 q -28 -119 -62 -167 q 46 -15 6 -71 q 127 101 86 42 q 208 217 168 160 q 285 326 249 275 q 414 514 358 429 q 510 665 469 599 q 561 756 543 719 q 588 815 579 792 l 350 564 q 336 557 346 560 z "},"U":{"ha":1286,"x_min":-33,"x_max":1375,"o":"m 275 550 l 582 797 q 601 806 590 806 q 619 801 611 806 q 631 786 628 796 q 625 765 633 776 q 568 689 604 738 q 494 590 532 640 q 424 499 457 540 q 376 440 390 457 q 303 355 342 400 q 226 265 264 310 q 155 176 189 219 q 94 96 121 133 q 69 60 85 82 q 40 13 54 38 q 17 -37 26 -12 q 10 -83 8 -62 q 30 -114 13 -103 q 86 -124 47 -125 q 207 -93 136 -119 q 273 -65 236 -82 q 350 -26 310 -47 q 433 19 390 -6 q 517 68 475 43 q 654 157 588 111 q 776 242 721 203 q 869 309 831 281 q 922 349 907 338 l 1235 743 q 1285 807 1258 775 q 1336 871 1313 839 q 1353 882 1344 881 q 1367 879 1361 883 q 1374 867 1374 875 q 1369 851 1375 860 l 1232 676 l 936 299 q 796 118 864 207 q 679 -46 728 29 q 638 -118 656 -86 q 611 -176 621 -150 q 604 -229 599 -212 q 628 -249 610 -246 q 714 -233 665 -254 q 815 -176 763 -212 q 922 -94 868 -140 q 1027 -1 976 -47 q 1120 87 1078 46 q 1193 154 1163 128 q 1212 163 1203 163 q 1226 160 1221 164 q 1232 148 1232 156 q 1224 132 1232 140 q 1183 90 1218 126 q 1092 3 1147 54 q 971 -103 1038 -47 q 838 -206 904 -160 q 709 -277 771 -251 q 604 -293 647 -303 q 572 -271 583 -287 q 560 -221 560 -254 q 587 -124 560 -172 q 644 -24 614 -76 q 727 95 681 32 q 825 225 774 158 q 693 133 767 183 q 540 33 619 83 q 365 -67 446 -25 q 222 -132 285 -110 q 156 -154 192 -143 q 74 -165 119 -165 q 37 -160 56 -165 q 2 -146 18 -156 q -24 -121 -14 -136 q -33 -83 -33 -106 q -8 3 -33 -50 q 61 119 17 56 q 124 202 89 158 q 196 291 158 246 q 272 381 233 336 q 344 465 310 425 q 449 590 397 528 q 550 719 501 653 l 301 517 q 285 514 293 511 q 272 523 276 517 q 267 537 267 529 q 275 550 267 544 z "},"I":{"ha":374,"x_min":-236,"x_max":654,"o":"m 610 883 q 628 895 618 893 q 644 893 638 897 q 652 880 650 889 q 647 861 654 871 q 606 785 636 840 q 531 653 575 731 q 433 484 488 576 q 321 296 379 392 q 267 206 301 263 q 191 85 233 150 q 101 -47 149 19 q 6 -168 54 -114 q -86 -256 -42 -222 q -165 -287 -131 -289 q -219 -253 -204 -285 q -235 -178 -235 -221 q -229 -92 -236 -135 q -215 -24 -222 -49 q -185 86 -200 40 q -168 135 -169 132 q -156 148 -164 144 q -140 149 -147 151 q -128 140 -132 147 q -128 121 -124 133 q -133 108 -128 121 q -145 74 -137 94 q -161 25 -153 53 q -176 -33 -169 -3 q -196 -190 -200 -135 q -160 -246 -192 -246 q -90 -206 -132 -246 q 1 -107 -47 -167 q 97 24 49 -47 q 186 157 146 94 q 253 265 226 219 q 286 318 281 310 q 410 528 351 425 q 517 711 469 631 l 404 583 q 389 577 397 576 q 374 583 381 578 q 367 595 368 588 q 372 611 365 603 l 610 883 l 610 883 z "},"J":{"ha":853,"x_min":-25,"x_max":1093,"o":"m 1081 899 q 1090 886 1088 894 q 1089 871 1093 878 q 1060 813 1089 869 q 983 666 1032 757 q 869 460 935 575 q 729 226 804 346 q 562 -26 642 85 q 411 -218 482 -137 q 253 -367 324 -315 q 106 -426 169 -426 q 38 -410 61 -426 q 6 -375 15 -393 q -3 -217 -25 -321 q 22 -129 6 -176 q 61 -28 38 -82 q 101 60 81 18 q 138 133 121 101 q 165 183 154 164 q 176 203 176 203 q 189 213 181 210 q 204 210 197 215 q 215 197 213 206 q 213 182 217 189 q 201 163 213 182 q 174 113 190 144 q 138 41 158 82 q 99 -44 118 0 q 35 -238 50 -158 q 42 -354 21 -318 q 106 -385 58 -385 q 229 -333 157 -385 q 301 -273 263 -308 q 379 -190 339 -237 q 693 249 521 -31 q 809 441 754 346 q 909 618 864 536 q 988 763 954 700 q 1038 858 1021 826 l 550 858 q 565 835 569 853 q 544 818 561 818 l 540 818 l 353 860 q 340 869 344 863 q 336 885 335 876 q 346 898 339 893 q 361 900 353 903 l 363 900 l 368 900 l 1065 900 l 1068 900 q 1081 899 1072 901 z "},"R":{"ha":1400,"x_min":-139,"x_max":1401,"o":"m -131 -249 q 40 -6 -42 -121 q 201 222 121 110 q 365 446 282 333 q 539 681 447 558 l 383 532 q 366 526 375 525 q 351 533 357 528 q 343 547 344 539 q 350 563 342 556 l 636 839 q 656 848 646 849 q 672 842 665 847 q 681 830 678 838 q 679 818 683 822 q 639 758 663 796 q 585 676 615 721 q 630 713 607 696 q 679 747 653 731 q 795 807 733 781 q 922 847 857 833 q 1050 860 986 861 q 1172 836 1114 858 q 1288 745 1249 807 q 1308 604 1326 683 q 1257 493 1292 544 q 1178 399 1222 442 q 1081 322 1133 357 q 978 261 1029 288 q 822 201 899 222 q 678 182 744 181 q 560 204 610 182 q 503 233 532 215 q 457 274 474 250 q 506 90 474 181 q 588 -72 539 0 q 699 -190 636 -144 q 840 -240 763 -236 q 959 -219 897 -243 q 1078 -156 1021 -194 q 1188 -73 1136 -118 q 1279 12 1240 -28 q 1341 78 1318 51 q 1365 106 1364 106 q 1381 112 1372 113 q 1394 106 1389 111 q 1401 93 1400 101 q 1396 78 1401 85 q 1307 -19 1351 28 q 1214 -109 1263 -67 q 1113 -187 1165 -151 q 1001 -249 1060 -222 q 920 -275 961 -268 q 840 -282 879 -282 q 700 -249 763 -282 q 589 -160 638 -215 q 505 -35 540 -106 q 444 110 469 35 q 405 258 419 185 q 385 392 390 332 q 261 226 313 296 q 171 101 210 156 q 101 3 132 47 q 39 -83 69 -40 q -26 -174 8 -126 q -106 -282 -60 -221 q -122 -288 -114 -289 q -134 -283 -129 -287 q -139 -269 -139 -278 q -131 -249 -139 -260 m 1210 499 q 1269 631 1264 571 q 1242 734 1274 692 q 1151 798 1211 776 q 1017 815 1092 819 q 860 784 942 811 q 701 710 778 757 q 584 622 635 669 q 506 522 533 574 q 485 480 494 503 q 471 431 475 457 q 470 376 467 404 q 489 319 474 349 q 528 272 506 290 q 576 242 550 253 q 628 227 601 232 q 678 222 654 222 q 812 242 740 222 q 958 299 883 263 q 1103 390 1038 339 q 1210 499 1168 440 z "},"K":{"ha":1197,"x_min":-236,"x_max":1388,"o":"m -229 -254 q -116 -114 -169 -181 q -10 19 -62 -47 q 95 156 42 86 q 210 307 149 226 q 353 514 294 421 q 465 689 413 607 l 328 554 q 310 549 319 547 q 296 556 301 550 q 289 569 290 561 q 294 585 288 578 l 581 861 q 595 869 586 868 q 612 866 604 869 q 622 855 619 863 q 619 839 625 847 q 471 611 542 718 q 324 390 400 504 q 438 485 374 435 q 574 589 501 536 q 753 706 668 656 q 911 790 839 757 q 1037 833 976 818 q 1146 849 1097 849 q 1234 832 1194 849 q 1304 786 1274 815 q 1355 719 1335 757 q 1385 638 1375 681 q 1383 622 1388 628 q 1370 614 1378 615 q 1355 616 1363 613 q 1344 629 1347 619 q 1274 758 1325 708 q 1143 808 1222 808 q 928 751 1058 808 q 856 714 903 740 q 760 656 810 688 q 666 593 711 624 q 597 543 621 563 q 556 459 582 514 q 503 336 529 404 q 458 192 476 268 q 439 42 439 115 q 442 1 439 21 q 451 -37 444 -19 q 506 -97 467 -81 q 585 -112 544 -112 q 904 0 713 -112 q 1000 60 951 28 q 1088 119 1049 92 q 1151 166 1126 147 q 1176 186 1175 185 q 1191 190 1183 192 q 1203 183 1199 189 q 1209 170 1208 178 q 1204 157 1210 163 q 1177 136 1201 156 q 1113 88 1153 117 q 1024 26 1074 60 q 925 -36 975 -7 q 810 -96 865 -72 q 707 -135 756 -119 q 622 -152 665 -147 q 537 -149 578 -157 q 463 -119 496 -142 q 411 -53 429 -96 q 396 42 396 -11 q 413 173 396 99 q 460 332 431 247 q 499 431 479 386 q 536 508 519 475 q 426 422 478 464 q 333 344 375 379 q 263 282 292 308 q 221 243 233 256 q 17 -23 115 103 q -183 -281 -81 -149 q -203 -294 -192 -292 q -222 -290 -214 -296 q -233 -275 -231 -285 q -229 -254 -236 -265 z "},"T":{"ha":574,"x_min":-282,"x_max":1081,"o":"m 76 -124 q 62 -135 71 -135 q 45 -132 53 -136 q 35 -119 38 -128 q 38 -99 32 -110 q 184 151 108 22 q 336 413 260 281 q 363 519 356 464 q 362 628 369 575 q 331 731 354 682 q 265 815 307 779 q 151 889 213 861 q 25 934 90 917 q -108 962 -40 951 q -239 983 -175 972 q -269 993 -258 985 q -281 1010 -279 1001 q -274 1026 -282 1019 q -246 1033 -265 1033 l 1040 1033 q 1069 1027 1060 1033 q 1080 1013 1079 1021 q 1073 999 1081 1006 q 1051 992 1065 992 l 715 992 q 397 426 553 701 q 76 -124 240 150 m 663 992 q 479 992 565 992 q 310 993 393 993 q 141 994 226 993 q -40 994 56 994 q 153 932 68 969 q 293 846 238 894 q 388 701 360 786 q 406 532 415 615 q 541 772 476 656 q 663 992 606 888 z "},"Y":{"ha":806,"x_min":10,"x_max":1001,"o":"m 957 883 q 975 895 965 893 q 991 893 985 897 q 999 880 997 889 q 994 861 1001 871 q 953 785 983 840 q 878 653 922 731 q 781 484 835 576 q 668 296 726 392 q 615 206 649 263 q 538 85 581 150 q 449 -47 496 19 q 353 -168 401 -114 q 261 -256 306 -222 q 182 -287 217 -289 q 128 -253 143 -285 q 112 -178 113 -221 q 118 -92 111 -135 q 132 -24 125 -49 q 143 26 139 8 q 149 51 147 43 q 153 62 151 60 q 154 65 154 64 q 167 78 158 75 q 183 80 175 82 q 194 71 190 78 q 194 51 199 64 q 194 49 194 51 q 190 39 193 47 q 183 14 188 31 q 171 -33 178 -3 q 151 -190 147 -135 q 188 -246 156 -246 q 258 -206 215 -246 q 348 -107 300 -167 q 444 24 396 -47 q 533 157 493 94 q 601 265 574 219 q 633 318 628 310 q 690 413 661 364 q 746 511 718 463 q 799 605 774 560 q 847 688 825 650 q 767 599 814 650 q 667 490 721 547 q 553 374 613 432 q 433 265 493 315 q 320 180 376 217 q 214 123 264 143 q 121 105 164 103 q 47 139 78 107 q 14 219 18 168 q 19 328 10 271 q 47 442 29 386 q 78 540 64 499 q 106 618 92 581 q 133 689 119 656 l 78 618 q 64 610 72 610 q 49 615 56 610 q 41 627 43 619 q 46 643 39 635 l 199 840 q 212 848 204 847 q 226 845 219 849 q 235 834 232 842 q 235 818 239 826 q 224 794 235 818 q 195 728 213 769 q 157 635 178 688 q 117 526 136 583 q 92 450 108 499 q 65 349 76 401 q 54 247 54 296 q 78 168 54 197 q 131 145 99 146 q 199 158 163 144 q 276 197 236 172 q 354 251 317 222 q 424 307 392 279 q 479 356 457 335 q 589 465 536 407 q 698 587 642 522 q 817 725 754 651 q 957 883 879 799 z "},"O":{"ha":1115,"x_min":32,"x_max":1182,"o":"m 240 -286 q 112 -256 157 -285 q 49 -180 67 -228 q 40 -69 32 -132 q 71 64 47 -6 q 130 205 94 133 q 204 342 165 276 q 281 463 243 408 q 346 554 318 518 q 454 677 399 619 q 567 783 510 735 q 684 872 628 836 q 793 926 740 907 q 908 947 849 947 q 1014 910 967 947 q 1085 910 1050 917 q 1144 876 1121 904 q 1174 753 1182 833 q 1111 561 1165 674 q 989 354 1064 463 q 822 143 914 246 q 681 -6 757 71 q 528 -144 606 -82 q 376 -247 450 -207 q 240 -286 301 -286 m 807 888 q 706 836 758 869 q 598 756 653 803 q 488 652 543 710 q 379 528 432 594 q 278 385 326 461 q 192 233 229 308 q 129 88 154 157 q 99 -33 104 18 q 99 -144 89 -101 q 133 -208 108 -186 q 192 -233 157 -229 q 267 -230 228 -237 q 348 -206 307 -222 q 425 -168 389 -189 q 510 -108 464 -146 q 603 -24 556 -69 q 700 72 651 22 q 792 171 749 122 q 954 377 881 271 q 1074 579 1028 483 q 1131 747 1121 679 q 1132 792 1133 769 q 1122 832 1131 814 q 1098 861 1114 850 q 1057 872 1082 872 q 743 710 950 875 q 669 648 703 678 q 608 594 635 618 q 567 556 582 571 q 551 542 551 542 q 537 535 544 533 q 524 542 529 536 q 517 556 518 547 q 522 571 515 564 q 538 586 522 571 q 580 626 554 601 q 641 681 606 650 q 717 743 676 711 q 849 838 788 800 q 960 894 910 875 q 883 906 924 911 q 807 888 842 900 z "},"Q":{"ha":928,"x_min":-22,"x_max":1085,"o":"m 1017 -272 q 1032 -267 1024 -267 q 1046 -274 1040 -268 q 1053 -287 1051 -279 q 1046 -303 1054 -294 q 817 -426 921 -426 q 733 -404 774 -426 q 656 -342 692 -382 q 577 -238 611 -293 q 507 -126 543 -183 q 333 -243 419 -199 q 171 -287 246 -287 q 63 -253 111 -287 q -4 -160 15 -219 q -12 -29 -22 -104 q 75 226 3 85 q 153 360 108 293 q 249 494 197 428 q 357 617 301 560 q 469 724 413 675 q 587 812 531 776 q 696 867 643 847 q 808 888 750 888 q 917 850 867 888 q 986 851 950 857 q 1047 817 1022 846 q 1076 694 1085 774 q 1014 501 1068 614 q 892 294 967 403 q 725 83 817 186 q 635 -12 681 35 q 540 -100 589 -58 q 588 -180 561 -133 q 647 -270 614 -226 q 719 -347 681 -314 q 803 -385 758 -379 q 1017 -272 892 -394 m 356 -183 q 483 -92 418 -147 q 420 -16 453 -50 q 349 35 388 18 q 264 49 310 51 q 163 15 218 46 q 147 14 154 11 q 135 24 139 17 q 133 39 132 31 q 142 51 133 47 q 411 47 292 133 q 466 -3 440 26 q 515 -65 492 -32 q 605 17 560 -28 q 694 111 650 61 q 857 317 783 211 q 976 519 931 424 q 1033 688 1024 619 q 1035 729 1036 707 q 1026 770 1035 751 q 1002 801 1018 789 q 960 813 986 813 q 646 650 853 815 q 572 589 606 618 q 513 537 539 560 q 472 499 488 514 q 454 482 457 483 q 439 476 447 475 q 425 483 431 478 q 419 496 419 488 q 425 511 418 504 q 442 528 426 513 q 484 567 458 543 q 544 622 510 592 q 619 683 579 651 q 751 778 690 740 q 863 835 813 815 q 788 846 829 851 q 710 828 746 840 q 608 776 661 810 q 501 697 556 743 q 390 592 446 650 q 282 468 335 535 q 108 201 175 333 q 29 -35 42 69 q 45 -167 17 -118 q 124 -234 74 -217 q 236 -238 174 -251 q 356 -183 299 -225 z "},"F":{"ha":911,"x_min":-103,"x_max":1443,"o":"m -100 -269 q -7 -119 -64 -206 q 110 58 50 -32 q 228 230 171 147 q 325 369 286 313 q 275 370 311 369 q 200 372 239 371 q 131 372 161 372 q 101 372 101 372 q 87 379 92 372 q 82 394 82 386 q 87 410 82 403 q 101 417 92 417 l 354 415 l 639 831 l 24 831 q 11 838 15 831 q 7 851 7 844 q 11 865 7 858 q 24 871 15 871 l 660 871 l 672 890 q 684 897 676 896 q 698 894 692 897 q 708 884 704 890 q 707 871 711 878 l 1422 871 q 1436 866 1429 871 q 1443 851 1443 861 q 1438 839 1443 843 q 1422 831 1433 835 q 1386 819 1415 829 q 1325 797 1357 808 q 1267 775 1293 785 q 1240 765 1242 765 q 1229 768 1233 763 q 1223 781 1225 774 q 1223 797 1221 789 q 1232 807 1225 804 l 1301 831 l 685 831 q 617 730 660 790 q 518 586 575 669 l 399 411 q 523 410 461 410 q 649 410 585 410 q 706 456 676 453 q 739 415 735 460 q 719 376 742 382 q 669 369 697 371 q 657 348 665 363 q 637 315 649 333 q 613 276 625 296 q 589 242 600 257 q 576 235 585 236 q 561 237 568 233 q 551 247 554 240 q 553 263 547 253 l 621 368 q 507 368 578 368 q 368 369 436 368 q 310 281 343 331 q 238 173 276 231 q 160 55 200 115 q 80 -65 119 -6 q 5 -178 40 -124 q -57 -276 -31 -233 q -73 -294 -64 -289 q -89 -297 -82 -299 q -99 -287 -96 -294 q -100 -269 -103 -281 z "},"Z":{"ha":771,"x_min":-12,"x_max":882,"o":"m 850 281 q 866 282 858 285 q 878 273 874 279 q 881 258 882 267 q 872 244 881 250 q 846 228 872 244 q 777 184 819 211 q 681 121 735 157 q 569 44 626 85 l 517 -29 q 452 -110 488 -68 q 381 -188 417 -151 q 310 -253 344 -225 q 250 -293 276 -281 q 228 -297 240 -297 q 206 -292 217 -297 q 190 -278 196 -287 q 185 -253 183 -268 q 199 -218 185 -243 q 251 -153 213 -193 q 358 -57 289 -114 q 539 75 428 0 q 596 163 571 119 q 639 246 621 207 q 676 358 671 313 q 661 419 682 403 q 619 437 643 433 q 569 436 596 440 q 516 422 543 432 q 465 403 489 413 q 414 376 438 390 q 372 351 390 363 q 342 333 353 340 q 331 325 331 325 q 325 320 328 322 q 319 315 322 318 q 314 310 315 313 q 299 304 307 303 q 285 310 290 306 q 278 324 279 315 q 285 339 278 332 q 301 355 285 339 q 342 398 317 371 q 399 461 367 425 q 463 538 431 497 q 551 655 518 606 q 600 739 583 704 q 620 794 617 774 q 622 826 624 815 q 603 854 618 844 q 540 856 582 865 q 445 823 497 846 q 336 767 393 800 q 229 700 279 735 q 140 633 179 665 q 86 578 101 600 l 163 601 q 178 597 172 603 q 186 585 185 592 q 184 571 188 578 q 172 561 181 564 l 29 515 q 1 513 15 501 q -3 543 -12 524 q 56 615 13 574 q 159 701 100 657 q 285 787 218 746 q 417 856 353 828 q 536 896 482 885 q 622 890 590 907 q 663 832 658 869 q 656 767 668 804 q 617 681 644 729 q 496 511 571 606 q 460 469 478 489 q 426 431 443 450 q 497 459 463 444 q 571 478 531 474 q 688 451 644 486 q 717 347 726 419 q 647 169 707 278 q 637 153 642 161 q 628 135 632 144 q 713 192 674 165 q 783 238 753 218 q 832 269 814 257 q 850 281 850 281 m 411 -94 l 461 -33 q 310 -156 368 -101 q 262 -202 279 -183 q 236 -232 244 -221 q 226 -249 228 -243 q 226 -257 225 -256 q 244 -253 231 -260 q 290 -218 258 -246 q 347 -165 317 -196 q 411 -94 378 -133 z "},"X":{"ha":1260,"x_min":-462,"x_max":1376,"o":"m 1344 885 q 1360 889 1353 890 q 1372 881 1368 888 q 1376 866 1376 875 q 1369 850 1376 857 l 388 132 q 513 -139 443 -39 q 663 -262 582 -239 q 828 -227 725 -272 q 1071 -85 931 -182 q 1172 -10 1124 -47 q 1256 57 1219 28 q 1333 124 1297 92 q 1349 128 1340 129 q 1363 122 1357 128 q 1369 108 1368 117 q 1363 93 1369 100 q 1341 74 1363 93 q 1283 25 1319 56 q 1197 -43 1246 -6 q 1094 -118 1149 -81 q 997 -183 1051 -147 q 885 -249 943 -219 q 766 -294 826 -278 q 651 -303 706 -311 q 526 -228 581 -290 q 424 -68 472 -167 q 386 13 404 -31 q 351 107 368 57 l -428 -464 q -443 -469 -435 -471 q -457 -461 -451 -467 q -462 -447 -462 -456 q -451 -429 -461 -437 l 339 149 q 319 230 331 181 q 297 336 308 279 q 274 453 286 393 q 253 565 263 513 q 235 656 243 617 q 222 714 226 696 q 225 728 219 722 q 239 735 231 733 q 254 732 247 736 q 264 717 261 728 q 274 660 267 699 q 292 570 282 621 q 313 463 301 519 q 337 351 325 406 q 359 250 349 297 q 378 174 369 203 l 1344 885 l 1344 885 z "},"[":{"ha":581,"x_min":44,"x_max":1050,"o":"m 1031 1031 q 1044 1022 1039 1031 q 1047 1004 1050 1014 q 1025 989 1043 989 l 833 989 l 106 50 l 269 50 q 285 42 281 50 q 286 24 289 33 q 264 8 282 8 l 65 8 q 57 9 61 8 q 51 13 53 10 l 53 13 q 45 26 46 18 q 51 42 44 35 l 51 40 l 808 1021 q 818 1027 811 1024 q 831 1031 825 1031 l 1031 1031 l 1031 1031 z "},"]":{"ha":721,"x_min":-12,"x_max":1003,"o":"m 8 7 q -7 15 -1 7 q -10 32 -12 22 q 0 44 -7 39 q 14 49 7 49 l 206 49 l 933 988 l 769 988 q 755 995 760 988 q 753 1013 750 1003 q 775 1029 757 1029 l 975 1029 q 982 1028 978 1029 q 989 1025 986 1026 l 988 1025 q 989 996 1003 1013 l 989 997 l 231 17 q 221 10 228 14 q 208 7 214 7 l 8 7 l 8 7 z "},"\\":{"ha":746,"x_min":74,"x_max":533,"o":"m 492 49 l 78 981 q 89 1008 74 1001 q 115 997 104 1014 l 531 64 q 528 49 533 56 q 516 39 524 42 q 501 38 508 36 q 492 49 493 40 z "},"^":{"ha":582,"x_min":126,"x_max":472,"o":"m 465 1022 q 472 1006 472 1017 q 465 988 472 996 q 453 985 463 985 q 438 990 443 985 l 439 990 l 301 1101 l 167 990 q 151 985 156 985 q 135 993 140 985 l 135 992 q 127 1006 128 999 q 131 1017 126 1013 l 289 1144 q 306 1147 297 1149 q 318 1140 314 1144 l 465 1022 l 465 1022 z "},"_":{"ha":1083,"x_min":47,"x_max":792,"o":"m 771 -51 q 792 -71 792 -51 q 786 -85 792 -79 q 771 -92 781 -92 l 68 -92 q 53 -85 58 -92 q 47 -71 47 -79 q 68 -51 47 -51 l 771 -51 l 771 -51 z "},"`":{"ha":368,"x_min":147,"x_max":269,"o":"m 247 864 q 232 869 238 864 l 233 869 l 156 943 q 148 958 149 950 q 154 974 147 967 q 182 975 167 986 l 261 901 q 269 886 268 894 q 263 871 269 878 l 263 872 q 247 864 256 864 z "},"/":{"ha":563,"x_min":118,"x_max":738,"o":"m 157 -24 q 144 -29 151 -29 q 130 -26 136 -29 q 121 -15 124 -22 q 122 0 118 -8 l 700 844 q 713 853 706 853 q 727 849 721 853 q 735 837 733 844 q 733 821 738 829 l 157 -24 z "},":":{"ha":481,"x_min":128,"x_max":326,"o":"m 185 111 l 174 61 l 128 61 l 135 111 l 185 111 m 326 418 l 315 368 l 269 368 l 276 418 l 326 418 z "},";":{"ha":443,"x_min":139,"x_max":350,"o":"m 204 161 l 254 161 l 240 114 q 224 83 235 94 q 201 65 213 71 q 174 60 192 61 q 144 67 157 60 l 144 65 q 139 74 139 68 q 143 83 139 79 l 143 81 q 158 88 147 92 q 173 84 163 86 q 196 88 183 82 q 214 110 207 96 l 189 110 l 204 161 m 350 425 l 339 375 l 293 375 l 300 425 l 350 425 z "},",":{"ha":197,"x_min":-57,"x_max":58,"o":"m 8 64 l 58 64 l 44 17 q 28 -15 39 -3 q 6 -32 17 -26 q -22 -37 -4 -36 q -51 -31 -39 -37 l -51 -32 q -57 -24 -57 -29 q -53 -14 -57 -18 l -53 -17 q -37 -10 -49 -6 q -23 -13 -33 -11 q 0 -10 -12 -15 q 18 13 11 -1 l -7 13 l 8 64 z "},".":{"ha":374,"x_min":101,"x_max":158,"o":"m 158 57 l 147 7 l 101 7 l 108 57 l 158 57 z "},"!":{"ha":300,"x_min":114,"x_max":558,"o":"m 122 72 q 119 47 121 58 q 114 21 117 36 l 161 21 q 167 46 164 35 q 172 72 169 57 l 122 72 m 501 739 q 517 753 504 744 q 542 756 529 761 q 556 736 553 749 q 556 718 558 724 l 183 147 q 174 146 179 144 q 163 150 168 147 q 155 157 157 153 q 156 165 153 161 l 501 739 z "},"\"":{"ha":308,"x_min":189,"x_max":400,"o":"m 254 897 l 304 897 l 290 850 q 274 819 285 831 q 251 801 263 807 q 224 797 242 797 q 194 803 207 796 l 194 801 q 189 810 189 804 q 193 819 189 815 l 193 817 q 208 824 197 828 q 223 820 213 822 q 246 824 233 818 q 264 846 257 832 l 239 846 l 254 897 m 350 897 l 400 897 l 386 850 q 369 819 381 831 q 347 801 358 807 q 320 797 338 797 q 290 803 303 796 l 290 801 q 285 810 285 804 q 289 819 285 815 l 289 817 q 304 824 293 828 q 319 820 308 822 q 342 824 329 818 q 360 846 353 832 l 335 846 l 350 897 z "},"'":{"ha":308,"x_min":249,"x_max":364,"o":"m 314 956 l 364 956 l 350 908 q 333 877 344 889 q 311 860 322 865 q 284 855 301 856 q 254 861 267 854 l 254 860 q 249 868 249 863 q 253 878 249 874 l 253 875 q 268 882 257 886 q 283 878 272 881 q 306 882 293 876 q 324 904 317 890 l 299 904 l 314 956 z "},"-":{"ha":1025,"x_min":311,"x_max":781,"o":"m 761 224 q 776 217 771 224 q 781 203 781 211 q 776 189 781 196 q 761 182 771 182 l 332 182 q 317 188 322 182 q 311 201 311 194 q 316 215 311 208 q 332 224 321 222 l 761 224 l 761 224 z "},"+":{"ha":847,"x_min":279,"x_max":639,"o":"m 479 154 q 458 133 479 133 q 444 139 450 133 q 438 154 438 144 l 438 265 l 299 265 q 285 272 290 265 q 279 286 279 278 q 299 306 279 306 l 438 306 l 438 417 q 444 432 438 426 q 458 438 450 438 q 479 417 479 438 l 479 306 l 618 306 q 639 286 639 306 q 633 272 639 278 q 618 265 628 265 l 479 265 l 479 154 l 479 154 z "},"=":{"ha":676,"x_min":157,"x_max":489,"o":"m 468 251 q 489 231 489 251 q 483 216 489 222 q 468 210 478 210 l 178 210 q 163 216 168 210 q 157 231 157 222 q 178 251 157 251 l 468 251 m 468 347 q 489 326 489 347 q 483 312 489 318 q 468 306 478 306 l 178 306 q 163 312 168 306 q 157 326 157 318 q 178 347 157 347 l 468 347 z "},"|":{"ha":449,"x_min":258,"x_max":318,"o":"m 272 6 q 261 22 258 13 l 278 1046 q 286 1059 279 1053 q 300 1065 293 1065 q 313 1058 308 1065 q 318 1046 318 1051 l 303 22 q 294 9 301 15 q 281 3 288 3 l 279 3 q 277 3 278 3 q 275 4 276 4 l 272 6 z "},"@":{"ha":1153,"x_min":111,"x_max":1144,"o":"m 1103 657 q 1144 456 1144 561 q 1103 254 1144 350 q 993 90 1065 163 q 916 26 957 54 q 828 -21 875 -1 q 628 -61 731 -61 q 426 -21 524 -61 q 338 26 379 -1 q 261 90 297 54 q 198 167 225 126 q 151 254 171 208 q 121 353 131 303 q 111 456 111 403 q 121 558 111 508 q 151 657 131 608 q 198 744 171 703 q 261 821 225 785 q 338 885 297 857 q 426 932 379 913 q 628 972 524 972 q 828 932 731 972 q 916 885 875 913 q 993 821 957 857 q 1103 657 1065 749 m 628 -19 q 810 17 725 -19 q 960 117 896 54 q 1062 265 1024 181 q 1101 446 1100 350 q 1039 390 1079 425 q 947 314 999 354 q 867 257 906 282 q 799 217 828 232 q 745 198 775 206 q 688 192 715 190 q 641 211 661 194 q 618 265 621 228 q 625 325 617 293 q 567 277 604 307 q 488 224 531 247 q 400 194 444 201 q 319 214 356 188 q 296 276 296 238 q 319 370 296 321 q 380 466 343 419 q 460 551 417 513 q 542 615 503 590 q 610 649 571 633 q 684 665 649 665 q 744 640 719 664 q 769 553 769 615 q 781 566 774 557 q 798 587 789 575 q 816 610 807 599 q 832 631 825 622 q 847 642 839 640 q 862 639 856 643 q 870 628 868 635 q 867 614 872 621 l 815 547 q 753 466 783 506 q 693 378 722 426 q 665 317 675 346 q 658 267 656 289 q 699 228 660 228 q 746 238 719 228 q 802 264 772 247 q 863 302 832 281 q 922 346 893 324 q 1023 428 978 388 q 1096 494 1068 469 l 1100 499 q 1051 668 1092 589 q 948 806 1011 747 q 803 897 885 864 q 628 931 721 931 q 443 893 529 931 q 292 791 357 856 q 190 640 228 726 q 153 456 153 553 q 190 271 153 357 q 292 120 228 185 q 443 18 357 56 q 628 -19 529 -19 m 624 383 q 698 481 671 433 q 728 563 725 529 q 717 601 729 583 q 679 618 706 618 q 628 612 657 618 q 565 583 599 606 q 497 531 532 561 q 432 466 463 501 q 378 390 401 431 q 346 308 356 350 q 349 258 339 282 q 386 233 358 233 q 450 249 417 233 q 515 286 483 264 q 575 335 547 308 q 624 383 603 361 z "},"<":{"ha":842,"x_min":249,"x_max":653,"o":"m 643 481 q 638 453 653 465 l 317 239 q 473 160 396 199 q 629 81 550 121 q 640 68 636 75 q 640 56 643 61 q 622 43 632 43 q 613 46 618 43 l 276 215 q 260 225 263 215 l 260 224 q 264 253 249 240 l 615 486 q 643 481 633 497 z "},">":{"ha":707,"x_min":254,"x_max":654,"o":"m 260 22 q 256 37 254 29 q 265 50 258 44 l 586 264 l 272 421 q 263 447 256 431 q 282 460 271 460 q 290 457 285 460 l 628 286 q 643 278 638 286 l 643 279 q 639 250 654 263 l 288 17 q 272 13 281 11 q 260 22 264 15 z "},"?":{"ha":394,"x_min":176,"x_max":640,"o":"m 639 699 q 618 633 640 672 q 561 551 596 594 q 488 463 526 507 q 421 383 450 419 q 356 301 385 342 q 307 228 328 261 q 273 174 286 196 q 257 146 260 151 q 246 138 253 139 q 233 140 239 138 q 223 149 226 143 q 224 163 219 156 q 244 198 229 174 q 280 256 258 222 q 328 328 301 289 q 389 406 356 367 l 413 432 l 454 479 q 490 518 465 492 q 538 575 514 544 q 581 635 563 606 q 600 685 600 665 q 582 713 600 701 q 546 714 565 718 q 506 700 526 710 q 465 677 485 690 q 429 650 446 664 q 367 594 393 621 q 336 560 342 567 q 323 556 329 554 q 312 563 317 557 q 306 574 307 568 q 310 586 306 581 q 346 622 319 596 q 407 679 372 649 q 456 714 432 699 q 500 739 481 729 q 567 754 538 754 q 613 742 590 754 q 639 699 636 731 m 233 57 l 222 7 l 176 7 l 183 57 l 233 57 z "},"×":{"ha":460,"x_min":101,"x_max":382,"o":"m 360 192 q 360 163 374 176 q 344 156 353 156 q 329 163 336 156 l 238 257 l 139 160 q 122 153 131 153 q 110 160 114 154 q 102 175 101 168 q 110 189 103 182 l 208 286 l 118 378 q 112 394 111 385 q 118 407 113 403 q 149 407 133 422 l 240 314 l 339 411 q 368 411 356 424 q 367 382 382 397 l 268 285 l 360 190 l 360 192 z "},"{":{"ha":519,"x_min":-17,"x_max":990,"o":"m 971 1031 q 985 1022 979 1031 q 988 1004 990 1014 q 965 989 983 989 l 772 989 q 624 797 697 893 q 475 604 550 700 l 381 572 l 363 457 l 46 50 l 208 50 q 224 42 219 50 q 225 24 228 33 q 203 8 221 8 l 4 8 q -4 9 0 8 q -10 13 -8 10 l -8 13 q -16 26 -15 18 q -10 42 -17 35 l -10 40 l 328 476 l 350 601 l 449 633 l 749 1021 q 758 1027 751 1024 q 769 1031 764 1031 l 971 1031 l 971 1031 z "},"}":{"ha":689,"x_min":40,"x_max":1050,"o":"m 61 8 q 46 16 51 8 q 43 33 40 24 q 53 45 46 40 q 67 50 60 50 l 258 50 q 408 241 333 144 q 558 433 482 338 l 653 465 l 671 581 l 989 986 q 907 987 947 986 q 825 988 867 988 q 809 995 814 988 q 807 1013 804 1003 q 832 1028 811 1031 l 1029 1028 q 1036 1026 1032 1028 q 1043 1024 1040 1025 l 1042 1024 q 1049 1010 1049 1018 q 1043 994 1050 1001 l 1043 996 l 704 561 l 682 436 l 583 403 l 283 17 q 273 10 279 14 q 260 8 267 7 l 61 8 l 61 8 z "},"(":{"ha":388,"x_min":-3,"x_max":997,"o":"m 974 1060 q 943 1064 958 1063 q 913 1065 928 1065 q 650 976 799 1065 q 513 879 583 938 q 379 754 443 821 q 263 615 318 689 q 165 467 208 542 q 90 323 121 393 q 46 196 58 253 q 39 131 39 157 q 133 -19 39 17 q 151 -24 140 -22 q 176 -29 163 -26 l 147 -64 l 131 -61 l 118 -57 q 13 44 40 -32 q -3 133 -3 83 q -1 167 -3 151 q 4 203 1 183 q 46 340 15 267 q 124 492 76 413 q 226 640 169 567 q 347 782 282 714 q 488 912 417 853 q 626 1011 558 971 q 777 1083 706 1060 q 913 1106 849 1106 q 959 1102 938 1106 q 997 1093 981 1099 l 974 1060 z "},")":{"ha":571,"x_min":-178,"x_max":833,"o":"m -151 -50 q -122 -55 -137 -53 q -92 -56 -106 -57 q 35 -35 -31 -57 q 174 29 100 -14 q 309 124 240 68 q 447 249 378 181 l 447 247 q 565 385 510 313 q 666 532 621 458 q 742 676 711 606 q 788 804 774 746 q 792 838 790 821 q 794 868 794 856 q 700 1019 794 982 q 683 1025 693 1022 q 658 1031 674 1028 l 688 1069 l 714 1058 q 780 1016 753 1043 q 818 957 807 989 q 833 865 833 914 q 832 833 833 850 q 826 797 831 815 q 783 661 814 735 q 704 510 751 588 q 600 359 657 432 q 478 219 543 286 q 340 95 411 153 q 194 -6 268 38 l 196 -6 q 46 -75 118 -51 q -92 -96 -26 -99 q -137 -93 -117 -97 q -178 -82 -158 -89 l -151 -50 z "},"*":{"ha":443,"x_min":101,"x_max":382,"o":"m 217 679 q 223 690 217 686 q 238 693 229 693 q 252 690 246 693 q 258 679 258 686 l 258 593 l 339 672 q 368 672 356 685 q 367 642 382 657 l 268 544 l 360 451 l 360 453 q 367 438 367 446 q 360 422 367 429 q 344 415 353 415 q 329 422 336 415 l 258 496 l 258 431 q 252 419 258 424 q 238 415 246 415 q 223 419 229 415 q 217 431 217 424 l 217 494 q 181 460 197 475 q 146 425 165 444 q 110 419 121 407 q 102 435 101 428 q 110 450 103 443 l 208 546 l 118 638 q 112 653 111 644 q 118 668 113 663 q 149 667 132 682 l 217 599 l 217 679 l 217 679 z "},"%":{"ha":563,"x_min":3,"x_max":714,"o":"m 679 854 q 692 863 685 863 q 706 858 700 863 q 713 847 711 854 q 708 831 714 839 l 39 6 q 23 1 31 0 q 10 8 15 3 q 4 19 6 13 q 8 33 3 26 l 679 854 m 308 649 q 281 693 283 665 q 290 752 278 721 q 325 813 301 783 q 376 861 349 842 q 434 887 404 881 q 488 878 464 893 q 514 800 522 851 q 490 740 510 775 q 440 678 469 706 q 376 640 411 651 q 308 649 342 628 m 463 844 q 410 843 440 861 q 355 795 379 825 q 322 732 331 765 q 335 683 313 699 q 367 678 349 674 q 404 697 386 683 q 438 731 422 711 q 464 772 454 751 q 474 813 474 793 q 463 844 475 832 m 253 10 q 225 54 228 26 q 234 113 222 82 q 269 174 246 144 q 321 222 293 203 q 378 248 349 242 q 432 239 408 254 q 458 161 467 213 q 434 101 454 136 q 385 40 414 67 q 321 1 356 13 q 253 10 286 -11 m 407 206 q 354 204 385 222 q 299 156 324 186 q 266 93 275 126 q 279 44 257 60 q 312 40 293 35 q 349 58 331 44 q 383 92 367 72 q 408 133 399 113 q 419 174 418 154 q 407 206 419 193 z "},"#":{"ha":801,"x_min":149,"x_max":744,"o":"m 725 643 q 740 637 735 643 q 744 624 744 631 q 725 603 744 603 l 540 603 q 513 561 525 581 q 486 518 501 542 l 656 518 q 671 512 665 518 q 676 499 676 506 q 656 478 676 478 l 457 478 l 346 317 q 338 310 343 314 q 329 307 332 307 q 314 314 325 307 q 308 325 308 317 q 313 340 307 333 l 407 478 l 343 478 l 239 325 q 231 319 236 322 q 222 315 225 315 q 207 322 218 315 q 201 333 201 325 q 206 349 200 342 l 294 478 l 168 478 q 149 499 149 478 q 154 512 149 506 q 168 518 160 518 l 321 518 q 350 560 338 542 q 379 603 363 579 l 238 603 q 217 624 217 603 q 222 637 217 631 q 238 643 228 643 l 408 643 q 455 712 432 676 q 501 779 478 747 q 532 783 511 794 q 536 771 536 779 q 533 756 536 763 l 457 643 l 519 643 l 608 771 q 639 775 618 786 q 643 763 643 771 q 640 747 643 754 q 606 695 622 719 q 571 643 590 671 l 725 643 m 492 603 l 428 603 q 400 561 413 581 q 372 518 388 542 l 433 518 l 492 603 z "},"$":{"ha":399,"x_min":40,"x_max":451,"o":"m 442 597 q 451 582 450 592 q 444 567 451 572 q 428 560 439 560 q 413 565 418 560 q 380 586 397 576 q 347 601 363 596 l 279 447 q 291 435 290 436 q 292 436 292 435 q 300 431 297 431 q 353 383 332 407 q 381 332 374 358 q 381 284 388 307 q 353 246 374 261 l 354 246 q 310 219 338 229 q 249 210 283 210 q 215 211 231 210 q 182 217 200 213 l 167 176 q 157 167 164 169 q 143 164 150 164 l 133 164 q 122 174 129 167 q 122 192 115 182 l 121 190 l 138 231 q 94 252 117 239 q 47 281 71 265 q 40 293 40 285 q 43 308 40 301 q 76 307 60 326 l 156 269 l 224 435 q 169 503 186 471 q 153 563 153 535 q 160 599 153 582 q 181 628 168 615 q 230 651 199 643 q 296 654 261 658 q 318 651 307 654 l 331 682 q 342 694 333 692 q 363 696 351 697 q 376 685 371 693 q 375 668 381 676 l 364 639 q 401 622 383 632 q 442 597 419 611 m 264 406 q 231 331 247 367 q 197 256 214 294 q 217 252 208 253 q 232 251 225 251 q 282 254 258 247 q 319 274 306 261 q 336 311 336 288 q 322 353 336 331 q 272 401 307 376 l 274 401 l 264 406 m 301 615 q 211 599 243 626 q 198 572 200 589 q 203 536 196 556 q 221 508 210 522 q 246 479 232 494 l 301 615 z "},"&":{"ha":940,"x_min":28,"x_max":836,"o":"m 826 726 q 835 701 833 714 q 835 676 836 688 q 831 658 833 665 q 826 649 828 650 q 816 638 824 640 q 801 638 808 635 q 789 649 793 642 q 789 665 785 656 q 793 679 792 672 q 789 708 796 693 q 760 734 779 726 q 717 742 740 742 q 622 723 675 742 q 521 672 569 704 q 436 599 472 640 q 393 511 400 557 q 450 510 421 517 q 494 475 479 504 q 496 438 504 457 q 467 408 488 419 q 433 399 450 399 q 400 406 415 399 q 373 426 385 413 q 357 458 361 440 q 290 426 325 446 q 222 381 256 407 q 158 325 189 356 q 107 263 128 294 q 77 201 85 231 q 77 150 69 172 q 110 115 85 128 q 179 101 135 101 q 274 111 226 101 q 371 136 322 121 q 422 154 399 144 q 469 175 446 164 q 401 243 413 203 q 432 335 386 289 q 465 360 446 349 q 507 378 485 371 q 551 386 529 385 q 594 381 574 388 q 651 311 643 363 q 633 244 657 276 q 569 185 610 213 q 581 182 576 182 q 589 181 585 182 q 597 179 593 179 q 610 169 607 176 q 613 155 614 163 q 606 142 613 147 q 590 138 600 136 q 569 142 589 138 q 521 154 549 146 q 454 122 489 136 q 385 97 419 108 q 281 70 335 81 q 179 60 228 60 q 90 78 125 60 q 42 126 56 96 q 35 199 28 157 q 72 286 42 240 q 127 353 94 321 q 197 415 160 386 q 274 465 235 443 q 350 500 314 488 q 367 570 350 536 q 410 633 383 604 q 469 686 436 663 q 532 726 501 710 q 632 769 582 754 q 722 783 682 785 q 826 726 799 781 m 440 254 q 517 200 449 224 q 547 217 529 206 q 579 241 564 228 q 603 271 594 254 q 610 304 613 288 q 592 334 607 324 q 557 344 578 344 q 506 334 533 344 q 460 304 479 324 q 444 283 451 296 q 440 254 436 269 m 457 457 q 431 472 450 472 q 397 469 413 472 q 410 449 400 456 q 432 442 421 443 q 451 444 443 440 q 457 457 458 449 z "},"Ä":{"ha":810,"x_min":-351,"x_max":1318,"o":"m 751 679 l 1113 858 q 1149 858 1133 868 q 1150 831 1164 849 q 1110 781 1146 825 q 1017 665 1074 736 q 889 503 960 594 q 746 314 818 413 l 690 239 l 824 239 q 839 233 833 239 q 844 218 844 226 q 839 203 844 210 q 824 197 833 197 l 661 197 q 567 58 608 122 q 496 -57 525 -6 q 431 -190 446 -144 q 428 -250 417 -235 q 470 -256 439 -265 q 540 -224 501 -246 q 622 -172 579 -201 q 699 -115 664 -142 q 785 -47 743 -82 q 858 15 826 -12 q 910 61 890 43 q 929 79 929 79 q 944 85 936 86 q 957 78 951 83 q 963 64 963 72 q 957 49 964 56 q 937 31 957 49 q 885 -16 917 13 q 811 -79 853 -44 q 724 -149 769 -114 q 665 -194 699 -168 q 595 -242 632 -219 q 519 -281 558 -265 q 446 -296 481 -296 q 399 -281 414 -296 q 383 -243 385 -267 q 390 -191 382 -219 q 410 -133 397 -162 q 436 -78 422 -104 q 460 -36 450 -53 q 525 70 488 13 q 611 197 563 128 l 356 197 l -315 -350 q -335 -357 -326 -358 q -347 -349 -343 -356 q -351 -333 -351 -342 q -342 -317 -350 -324 l 288 197 l 61 197 q 46 203 51 197 q 40 218 40 210 q 45 233 40 226 q 61 239 50 239 l 340 239 l 981 746 l 771 642 q 753 640 761 638 q 742 650 746 643 q 741 665 739 657 q 751 679 743 674 m 408 239 l 640 239 q 808 468 719 356 q 993 701 896 581 l 408 239 m 1288 1065 q 1303 1065 1296 1068 q 1315 1054 1311 1061 q 1317 1040 1318 1047 q 1306 1028 1315 1032 l 1285 1018 q 1270 1019 1278 1015 q 1258 1028 1263 1022 q 1252 1040 1253 1033 q 1258 1050 1251 1046 l 1288 1065 m 1149 1065 q 1165 1065 1157 1068 q 1176 1054 1172 1061 q 1178 1040 1179 1047 q 1167 1028 1176 1032 l 1146 1018 q 1131 1019 1139 1015 q 1119 1028 1124 1022 q 1113 1040 1114 1033 q 1119 1050 1113 1046 l 1149 1065 z "},"Ö":{"ha":983,"x_min":47,"x_max":1154,"o":"m 240 -246 q 131 -210 178 -244 q 65 -118 83 -176 q 57 13 47 -62 q 144 268 72 126 q 222 402 178 335 q 318 536 267 469 q 426 659 371 601 q 539 765 482 717 q 656 853 600 818 q 765 908 713 889 q 880 929 821 929 q 986 892 939 929 q 1058 892 1022 899 q 1117 858 1093 886 q 1146 735 1154 815 q 1083 543 1138 656 q 961 336 1036 444 q 794 125 886 228 q 658 -15 729 53 q 514 -133 586 -82 q 372 -215 442 -185 q 240 -246 301 -246 m 779 869 q 678 818 731 851 q 570 738 625 785 q 460 634 515 692 q 351 510 404 576 q 178 243 244 375 q 99 7 111 111 q 99 -91 90 -50 q 127 -158 107 -132 q 177 -197 147 -185 q 243 -210 207 -210 q 333 -187 286 -208 q 425 -142 381 -167 q 590 -20 503 -96 q 764 153 676 56 q 926 359 853 253 q 1046 561 1000 465 q 1103 729 1093 661 q 1104 774 1106 751 q 1094 814 1103 796 q 1070 843 1086 832 q 1029 854 1054 854 q 715 692 922 857 q 641 630 675 660 q 581 576 607 600 q 539 538 554 553 q 524 524 524 524 q 509 517 517 515 q 496 524 501 518 q 489 538 490 529 q 494 553 488 546 q 510 568 494 553 q 552 608 526 583 q 613 663 578 632 q 689 725 649 693 q 821 819 760 782 q 932 876 882 857 q 855 888 896 893 q 779 869 814 882 m 1107 1082 q 1123 1082 1115 1085 q 1134 1073 1131 1079 q 1136 1060 1138 1067 q 1125 1049 1135 1053 l 1063 1021 q 1048 1022 1056 1018 q 1035 1031 1040 1025 q 1030 1042 1031 1036 q 1036 1053 1029 1049 l 1107 1082 m 940 1082 q 956 1082 949 1085 q 967 1073 964 1079 q 969 1060 971 1067 q 958 1049 968 1053 l 896 1021 q 881 1022 889 1018 q 869 1031 874 1025 q 863 1042 864 1036 q 869 1053 863 1049 l 940 1082 z "},"Ü":{"ha":1078,"x_min":-33,"x_max":1375,"o":"m 275 717 l 582 964 q 601 972 590 972 q 619 967 611 972 q 631 953 628 963 q 625 932 633 943 q 568 856 604 904 q 494 757 532 807 q 424 665 457 707 q 376 607 390 624 q 303 522 342 567 q 226 431 264 476 q 155 343 189 386 q 94 263 121 300 q 69 226 85 249 q 40 179 54 204 q 17 129 26 154 q 10 84 8 104 q 30 53 13 64 q 86 43 47 42 q 207 74 136 47 q 273 102 236 85 q 350 140 310 119 q 433 185 390 161 q 517 235 475 210 q 654 324 588 278 q 776 408 721 369 q 869 476 831 447 q 922 515 907 504 l 1235 910 q 1285 974 1258 942 q 1336 1038 1313 1006 q 1353 1049 1344 1047 q 1367 1046 1361 1050 q 1374 1034 1374 1042 q 1369 1018 1375 1026 l 1232 843 l 936 465 q 796 285 864 374 q 679 121 728 196 q 638 49 656 81 q 611 -10 621 17 q 604 -62 599 -46 q 628 -82 610 -79 q 714 -67 665 -87 q 815 -10 763 -46 q 922 73 868 26 q 1027 166 976 119 q 1120 253 1078 213 q 1193 321 1163 294 q 1212 330 1203 329 q 1226 326 1221 331 q 1232 315 1232 322 q 1224 299 1232 307 q 1183 257 1218 293 q 1092 170 1147 221 q 971 63 1038 119 q 838 -39 904 7 q 709 -110 771 -85 q 604 -126 647 -136 q 572 -104 583 -121 q 560 -54 560 -87 q 587 42 560 -6 q 644 143 614 90 q 727 262 681 199 q 825 392 774 325 q 693 300 767 350 q 540 200 619 250 q 365 99 446 142 q 222 35 285 57 q 156 13 192 24 q 74 1 119 1 q 37 6 56 1 q 2 21 18 11 q -24 46 -14 31 q -33 83 -33 61 q -8 169 -33 117 q 61 286 17 222 q 124 369 89 325 q 196 458 158 413 q 272 547 233 503 q 344 632 310 592 q 449 757 397 694 q 550 886 501 819 l 301 683 q 285 681 293 678 q 272 690 276 683 q 267 703 267 696 q 275 717 267 711 m 1107 1211 q 1123 1211 1115 1214 q 1134 1202 1131 1208 q 1136 1189 1138 1196 q 1125 1178 1135 1182 l 1063 1150 q 1048 1151 1056 1147 q 1035 1160 1040 1154 q 1030 1172 1031 1165 q 1036 1182 1029 1178 l 1107 1211 m 940 1211 q 956 1211 949 1214 q 967 1202 964 1208 q 969 1189 971 1196 q 958 1178 968 1182 l 896 1150 q 881 1151 889 1147 q 869 1160 874 1154 q 863 1172 864 1165 q 869 1182 863 1178 l 940 1211 z "},"A":{"ha":1017,"x_min":-351,"x_max":1164,"o":"m 751 679 l 1113 858 q 1149 858 1133 868 q 1150 831 1164 849 q 1110 781 1146 825 q 1017 665 1074 736 q 889 503 960 594 q 746 314 818 413 l 690 239 l 824 239 q 839 233 833 239 q 844 218 844 226 q 839 203 844 210 q 824 197 833 197 l 661 197 q 567 58 608 122 q 496 -57 525 -6 q 431 -190 446 -144 q 428 -250 417 -235 q 470 -256 439 -265 q 540 -224 501 -246 q 622 -172 579 -201 q 699 -115 664 -142 q 785 -47 743 -82 q 858 15 826 -12 q 910 61 890 43 q 929 79 929 79 q 944 85 936 86 q 957 78 951 83 q 963 64 963 72 q 957 49 964 56 q 937 31 957 49 q 885 -16 917 13 q 811 -79 853 -44 q 724 -149 769 -114 q 665 -194 699 -168 q 595 -242 632 -219 q 519 -281 558 -265 q 446 -296 481 -296 q 399 -281 414 -296 q 383 -243 385 -267 q 390 -191 382 -219 q 410 -133 397 -162 q 436 -78 422 -104 q 460 -36 450 -53 q 525 70 488 13 q 611 197 563 128 l 356 197 l -315 -350 q -335 -357 -326 -358 q -347 -349 -343 -356 q -351 -333 -351 -342 q -342 -317 -350 -324 l 288 197 l 61 197 q 46 203 51 197 q 40 218 40 210 q 45 233 40 226 q 61 239 50 239 l 340 239 l 981 746 l 771 642 q 753 640 761 638 q 742 650 746 643 q 741 665 739 657 q 751 679 743 674 m 408 239 l 640 239 q 808 468 719 356 q 993 701 896 581 l 408 239 z "},"B":{"ha":822,"x_min":-479,"x_max":906,"o":"m 504 947 q 521 954 510 954 q 541 950 532 954 q 555 938 550 946 q 556 918 560 929 q 530 876 547 903 q 490 817 513 850 q 440 749 467 785 q 390 681 414 714 q 347 620 367 647 q 317 576 328 593 l 339 599 q 400 664 369 632 q 467 724 431 696 q 567 803 517 768 q 660 860 617 838 q 790 897 735 897 q 840 890 817 897 q 878 866 863 882 q 899 827 893 850 q 899 775 906 804 q 879 728 892 751 q 844 683 867 706 q 751 596 803 638 q 643 517 700 554 q 527 449 586 481 q 414 389 468 417 q 503 386 460 389 q 592 360 547 383 q 651 278 644 329 q 638 174 658 228 q 708 192 669 182 q 783 213 747 203 q 843 229 818 222 q 871 236 868 236 q 884 232 879 238 q 890 219 889 226 q 888 205 892 213 q 875 194 883 197 q 849 188 875 194 q 783 170 822 181 q 697 148 743 160 q 610 126 650 136 q 518 43 578 88 q 382 -45 458 -1 q 219 -129 306 -89 q 50 -203 133 -169 q -58 -239 -3 -222 q -165 -268 -112 -256 q -264 -287 -217 -281 q -347 -294 -311 -294 q -458 -268 -419 -294 q -474 -235 -479 -254 q -445 -197 -468 -217 q -387 -158 -422 -178 q -314 -119 -353 -137 q -237 -86 -275 -101 q -171 -61 -199 -71 q -179 -49 -183 -58 q -168 -32 -175 -40 q -63 110 -122 29 q 59 281 -4 192 q 187 460 122 369 q 308 631 251 550 q 408 774 364 711 q 475 872 451 838 l 269 690 q 254 684 263 683 q 240 690 246 685 q 233 703 235 694 q 239 719 232 711 l 504 947 m 68 222 q -44 85 7 151 q -151 -54 -94 19 q 15 3 -76 -26 q 213 63 107 32 q 312 90 261 76 q 412 117 363 104 q 506 142 461 131 q 589 161 551 153 q 606 206 600 183 q 610 249 613 228 q 597 290 608 271 q 563 325 586 308 q 483 348 525 344 q 397 349 440 351 q 366 342 390 349 q 308 324 342 335 q 235 298 274 313 q 161 269 196 283 q 101 243 126 256 q 68 222 75 231 m 311 531 q 204 399 246 458 q 139 306 163 339 q 288 371 217 338 q 442 446 358 404 q 542 501 485 468 q 656 574 600 535 q 762 656 713 614 q 840 739 811 699 q 860 806 867 781 q 827 843 853 832 q 765 851 801 854 q 694 833 728 849 q 518 724 619 801 q 311 531 417 647 m -199 -112 q -294 -153 -251 -133 q -367 -190 -337 -174 q -413 -217 -397 -206 q -429 -233 -429 -229 q -398 -249 -426 -244 q -340 -253 -369 -253 q -261 -246 -306 -253 q -168 -228 -217 -239 q -67 -201 -119 -217 q 36 -165 -15 -185 q 176 -107 104 -139 q 316 -39 249 -75 q 442 35 383 -3 q 544 110 501 72 q 388 69 471 92 q 218 24 306 47 q -10 -46 97 -11 q -199 -112 -117 -81 z "},"C":{"ha":839,"x_min":-96,"x_max":1182,"o":"m 1156 838 q 1175 713 1182 779 q 1169 698 1175 703 q 1154 694 1163 693 q 1140 699 1146 694 q 1133 715 1133 704 q 1132 764 1135 738 q 1119 815 1129 790 q 1092 862 1110 840 q 1047 899 1074 883 q 979 917 1022 911 q 870 905 936 924 q 713 836 804 886 q 501 686 622 786 q 252 444 364 572 q 65 188 140 317 q 8 75 32 129 q -28 -28 -15 21 q -32 -181 -54 -122 q 81 -257 -10 -253 q 307 -207 178 -261 q 592 -43 436 -153 q 701 39 650 -1 q 789 111 751 79 q 848 163 826 143 q 869 183 869 183 q 885 190 876 190 q 898 183 893 189 q 903 168 903 176 q 897 153 904 160 q 817 81 861 118 q 728 7 779 49 q 617 -78 676 -35 q 480 -167 546 -128 q 351 -233 414 -206 q 96 -299 206 -299 q -5 -275 43 -299 q -72 -194 -53 -251 q -68 -17 -96 -124 q -31 91 -54 35 q 29 208 -7 147 q 220 471 106 340 q 475 718 335 601 q 667 858 576 803 q 836 939 757 913 q 1067 936 974 982 q 1156 838 1125 904 z "},"D":{"ha":1099,"x_min":-297,"x_max":1172,"o":"m 306 535 l 578 822 q 598 836 582 838 q 618 818 614 835 q 619 810 619 815 l 619 808 q 614 781 618 797 q 599 740 610 764 q 571 683 589 715 q 526 608 553 651 l 589 668 q 717 774 653 728 q 836 849 782 819 q 1010 901 933 901 q 1113 861 1076 901 q 1149 751 1149 821 q 1131 632 1149 699 q 1079 492 1114 565 q 993 342 1044 419 q 874 193 942 265 l 1146 258 q 1163 256 1156 261 q 1171 244 1169 251 q 1169 228 1172 236 q 1156 217 1165 219 q 1113 206 1151 215 q 1023 185 1075 197 q 914 160 971 174 q 815 138 857 147 q 706 47 768 92 q 572 -40 643 3 q 428 -117 504 -81 q 276 -186 351 -154 q 133 -235 210 -212 q -6 -272 57 -258 q -69 -285 -29 -278 q -152 -295 -110 -293 q -231 -288 -194 -297 q -285 -251 -268 -279 q -288 -210 -297 -231 q -258 -172 -279 -190 q -207 -137 -236 -153 q -148 -108 -178 -121 q -92 -85 -118 -94 q -53 -69 -67 -75 l 10 -47 q 6 -34 7 -40 q 14 -18 4 -28 q 37 11 17 -15 q 89 79 57 38 q 160 174 121 121 q 243 285 200 228 q 328 401 286 343 q 407 509 371 458 q 471 599 443 560 q 511 660 499 639 q 533 696 522 678 q 551 733 543 714 l 336 506 q 320 499 328 497 q 307 506 313 500 q 300 519 301 511 q 306 535 299 528 m 794 174 q 956 365 897 272 q 1047 521 1015 457 q 1092 646 1075 585 q 1108 751 1108 707 q 1085 828 1108 796 q 1008 861 1061 861 q 836 802 938 861 q 617 638 735 743 q 505 532 561 593 q 393 404 449 471 q 286 269 338 338 q 191 142 235 201 q 113 37 147 82 q 58 -29 79 -8 q 376 67 199 18 q 601 126 494 99 q 794 174 708 154 m 260 -146 q 522 -24 401 -90 q 732 117 642 43 q 568 74 657 97 q 388 28 479 51 q 151 -43 260 -8 q -37 -107 42 -78 q -142 -151 -101 -132 q -206 -184 -182 -169 q -239 -209 -229 -199 q -251 -225 -249 -219 q -249 -237 -254 -232 q -235 -244 -243 -242 q -219 -249 -228 -247 q -207 -251 -211 -251 q -122 -250 -172 -256 q -10 -231 -71 -244 q 120 -197 51 -218 q 260 -146 189 -175 z "},"ﬆ":{"ha":981,"x_min":57,"x_max":1171,"o":"m 1064 553 q 1079 547 1074 553 q 1085 533 1085 540 q 1079 518 1085 525 q 1064 511 1074 511 l 764 511 q 700 416 743 476 q 602 281 657 356 q 486 121 547 206 q 368 -48 425 36 q 263 -210 311 -132 q 184 -348 214 -287 q 149 -447 154 -408 q 171 -490 143 -485 q 258 -452 200 -492 q 393 -347 317 -412 q 557 -199 469 -282 q 733 -28 644 -115 q 903 142 821 60 q 1051 288 986 224 q 1065 292 1058 293 q 1076 286 1072 292 q 1081 273 1081 281 q 1074 258 1081 265 q 1005 188 1050 235 q 901 81 960 142 q 773 -49 842 21 q 632 -187 704 -118 q 489 -319 560 -256 q 356 -430 418 -382 q 244 -506 293 -478 q 164 -531 194 -533 q 117 -483 121 -524 q 135 -381 113 -443 q 203 -238 158 -318 q 304 -72 249 -158 q 422 101 360 14 q 540 267 483 189 q 642 409 596 346 q 714 511 689 472 l 629 511 q 494 378 563 444 q 351 236 426 311 l 288 172 q 321 165 303 169 q 354 150 339 160 q 379 126 369 140 q 388 92 389 111 q 377 62 386 76 q 356 35 368 47 q 331 12 344 22 q 308 -6 318 1 q 240 -42 281 -26 q 162 -62 200 -57 q 96 -57 124 -67 q 65 -18 68 -47 q 81 20 65 -1 q 118 65 96 42 q 163 109 140 88 q 201 146 186 131 q 119 167 157 154 q 65 207 82 179 q 58 244 57 221 q 86 303 58 268 q 126 342 103 322 q 178 381 150 363 q 210 399 189 388 q 256 419 232 411 q 301 427 279 428 q 335 410 324 426 q 328 332 353 381 q 314 306 321 317 q 304 293 307 296 q 289 286 297 286 q 274 291 281 286 q 266 303 268 296 q 271 318 264 310 q 276 328 271 318 q 289 350 282 338 q 300 373 296 363 q 300 385 304 383 q 276 383 294 388 q 226 361 258 378 q 194 340 218 357 q 146 303 169 324 q 108 262 122 282 q 101 229 93 242 q 128 206 111 214 q 164 193 144 197 q 203 187 183 189 q 238 182 222 185 q 278 222 257 201 q 322 265 299 243 q 444 385 383 325 q 571 511 504 444 l 293 511 q 278 517 283 511 q 272 531 272 524 q 277 546 272 539 q 293 553 282 553 l 611 553 q 804 749 713 654 q 967 917 896 843 q 1082 1040 1038 992 q 1135 1096 1126 1088 q 1158 1096 1144 1106 q 1161 1072 1171 1086 q 1125 1024 1156 1065 q 1044 913 1094 982 q 929 752 994 844 q 792 553 864 660 l 1064 553 m 346 96 q 317 121 347 111 q 251 138 288 131 q 208 97 235 121 q 159 50 182 72 q 121 10 136 28 q 110 -12 106 -8 q 148 -23 124 -25 q 198 -12 172 -21 q 248 9 224 -3 q 285 29 272 21 q 328 65 313 47 q 346 96 344 82 m 742 553 q 838 694 790 626 q 928 821 885 761 q 805 692 869 761 q 669 553 740 624 l 742 553 z "},"":{"ha":746,"x_min":-61,"x_max":1244,"o":"m 1225 546 q 1240 540 1235 546 q 1244 525 1244 533 q 1240 510 1244 517 q 1225 504 1235 504 l 824 504 l 143 -500 q 130 -509 138 -508 q 116 -506 122 -510 q 107 -493 110 -501 q 108 -476 104 -485 l 772 504 l 686 506 q 467 308 578 407 q 225 114 356 210 q 81 19 139 49 q 56 9 71 15 q 25 -1 42 3 q -7 -6 8 -6 q -35 1 -22 -6 q -57 51 -61 17 q -35 124 -53 85 q 7 197 -17 163 q 42 249 31 232 q 127 366 78 301 q 239 506 176 431 l 36 507 q 21 513 26 507 q 15 528 15 519 q 20 542 15 536 q 36 549 25 549 l 274 547 q 452 752 365 647 q 636 954 539 857 q 651 960 643 961 q 664 955 658 960 q 671 942 669 950 q 667 926 672 935 q 637 894 667 925 q 560 810 607 863 q 451 690 513 758 q 328 547 390 622 l 669 547 q 810 679 744 615 q 927 792 876 743 q 1010 873 978 842 q 1046 908 1042 904 l 1058 928 q 1072 936 1064 936 q 1087 932 1081 936 q 1096 920 1093 928 q 1093 904 1099 913 l 851 546 l 1225 546 m 201 147 q 416 317 311 228 q 624 506 521 406 l 293 506 q 75 225 154 340 q 22 142 42 176 q -7 85 3 108 q -17 51 -17 63 q -11 36 -17 39 q 9 36 -6 33 q 49 51 24 39 q 112 87 75 64 q 201 147 149 110 m 801 546 l 928 735 q 836 647 886 694 q 731 546 786 599 l 801 546 z "},"":{"ha":1075,"x_min":38,"x_max":1183,"o":"m 1151 288 q 1166 293 1158 293 q 1178 288 1174 293 q 1183 276 1183 283 q 1175 260 1183 268 q 1130 219 1172 257 q 1017 125 1088 181 q 774 -4 850 -4 q 739 2 756 -4 q 715 32 722 8 q 729 108 707 63 q 785 210 751 154 q 818 264 801 236 q 845 316 835 292 q 858 358 856 340 q 849 383 860 375 q 807 385 835 393 q 740 353 779 376 q 660 295 704 331 q 565 215 615 260 q 442 97 497 154 q 354 6 388 40 q 340 -1 349 -1 q 325 4 332 0 q 315 15 318 8 q 318 29 313 22 l 550 346 q 542 340 546 343 q 532 335 538 338 q 488 312 511 324 q 439 291 464 300 q 388 278 414 282 q 338 279 363 275 q 294 228 318 253 q 245 183 271 204 q 194 147 219 163 q 146 122 168 131 q 122 115 133 117 q 103 114 111 114 q 65 124 79 114 q 44 151 51 135 q 38 188 38 168 q 44 229 38 208 q 72 286 54 257 q 115 346 90 315 q 178 410 144 381 q 245 458 211 440 q 310 479 279 476 q 364 464 340 482 q 385 436 375 454 q 389 386 394 418 q 378 350 386 368 q 360 313 371 332 q 427 325 388 311 q 515 365 467 339 q 572 400 547 383 q 610 426 597 417 l 624 444 q 638 453 629 453 q 652 449 646 453 q 660 437 658 444 q 656 419 663 429 l 503 214 q 741 397 654 350 q 871 418 828 443 q 898 370 897 399 q 888 313 899 342 q 860 256 879 288 q 821 192 840 224 l 819 188 l 819 189 q 803 163 817 185 q 776 115 789 140 q 756 67 763 89 q 763 39 750 44 q 785 38 769 36 q 829 52 801 40 q 897 89 857 64 q 993 156 938 114 q 1073 219 1039 189 q 1151 288 1107 250 m 319 326 q 333 349 325 336 q 345 376 340 363 q 350 403 350 389 q 342 428 350 417 q 330 405 336 418 q 319 378 324 392 q 315 351 315 364 q 318 329 314 338 q 319 326 318 328 m 267 260 q 283 278 275 269 q 299 297 292 288 q 286 315 292 304 q 280 348 279 331 q 285 383 281 365 q 296 415 289 400 q 307 438 303 429 q 233 401 276 432 q 147 319 189 369 q 85 221 103 267 q 86 160 68 175 q 108 156 94 153 q 132 161 122 158 q 197 199 161 172 q 267 260 233 225 z "},"":{"ha":1213,"x_min":-150,"x_max":1321,"o":"m 1286 288 q 1301 292 1293 293 q 1315 285 1310 290 q 1320 272 1319 281 q 1314 257 1321 264 q 1286 231 1314 257 q 1213 165 1258 206 q 1107 75 1167 125 q 982 -25 1047 25 q 718 -201 825 -146 q 563 -251 622 -251 q 501 -232 529 -251 q 467 -176 474 -212 q 485 -53 457 -128 q 581 135 513 22 q 716 339 640 232 q 864 543 792 446 q 923 622 894 583 q 979 699 951 661 q 837 547 913 626 q 681 385 761 467 q 232 -43 414 111 q 49 -185 124 -137 q -87 -242 -39 -242 q -132 -226 -118 -242 q -148 -186 -146 -210 q -144 -135 -150 -162 q -129 -82 -139 -107 q -92 1 -115 -44 q -37 103 -69 47 q 92 308 15 196 q 257 543 168 421 q 408 747 336 649 q 537 921 481 846 q 627 1041 593 996 q 661 1088 661 1086 q 675 1096 667 1096 q 690 1092 683 1096 q 698 1079 696 1088 q 694 1063 700 1071 q 660 1016 694 1061 q 570 896 626 971 q 442 722 514 821 q 290 518 369 624 q 126 285 201 397 q -1 82 51 174 q -55 -16 -33 29 q -90 -96 -76 -61 q -99 -119 -93 -101 q -107 -154 -104 -136 q -107 -186 -110 -172 q -87 -200 -104 -200 q -51 -192 -75 -200 q 10 -160 -28 -183 q 105 -94 49 -136 q 238 17 161 -51 q 417 183 315 85 q 650 414 519 281 q 869 642 763 528 q 1060 851 975 757 q 1201 1010 1144 946 q 1269 1088 1257 1074 q 1285 1096 1276 1096 q 1299 1092 1293 1096 q 1307 1080 1306 1088 q 1303 1064 1308 1072 q 1268 1017 1301 1063 q 1178 897 1235 972 q 1049 723 1122 821 q 897 518 976 625 q 813 403 858 465 q 722 274 768 340 q 635 143 676 208 q 563 19 593 78 q 517 -89 533 -40 q 508 -168 501 -137 q 538 -206 514 -199 q 591 -206 561 -212 q 651 -187 621 -200 q 699 -164 681 -174 q 816 -94 751 -136 q 957 7 881 -51 q 1081 107 1021 57 q 1185 197 1140 157 q 1258 262 1231 236 q 1286 288 1286 288 z "},"":{"ha":1506,"x_min":-111,"x_max":1625,"o":"m 1589 301 q 1604 307 1596 308 q 1618 300 1613 306 q 1624 286 1624 294 q 1618 271 1625 278 q 1599 252 1618 271 q 1547 203 1579 233 q 1474 135 1515 174 q 1385 54 1432 96 q 1290 -28 1339 13 q 1199 -101 1242 -68 q 936 -278 1046 -221 q 779 -328 838 -328 q 719 -308 747 -328 q 685 -253 692 -289 q 688 -168 676 -215 q 722 -74 700 -121 q 769 15 743 -28 q 815 86 796 57 q 764 56 792 71 q 706 42 736 42 q 663 55 678 42 q 644 88 649 68 q 644 132 640 108 q 656 176 647 156 q 593 126 626 151 q 350 -3 426 -3 q 315 3 332 -3 q 292 33 299 10 q 306 110 283 64 q 361 211 328 156 q 394 265 378 238 q 422 317 411 293 q 434 359 432 342 q 425 385 436 376 q 383 386 411 394 q 317 354 356 378 q 236 297 281 332 q 142 217 192 261 q 19 99 74 156 q -69 7 -36 42 q -83 1 -75 0 q -99 6 -92 1 q -108 17 -106 10 q -106 31 -111 24 l 200 446 q 214 454 206 454 q 228 450 222 454 q 237 438 235 446 q 232 421 239 431 l 79 215 q 317 398 231 351 q 447 419 404 444 q 474 372 474 400 q 464 314 475 343 q 436 257 456 289 q 397 193 417 225 l 396 189 l 396 190 q 379 164 393 186 q 352 116 365 142 q 333 68 339 90 q 339 40 326 46 q 362 40 346 38 q 406 53 378 42 q 474 90 433 65 q 569 157 514 115 q 653 222 611 188 q 735 293 694 257 q 794 350 763 324 q 858 392 826 376 q 917 408 889 407 q 968 392 946 410 q 983 374 976 385 q 993 347 990 364 q 1038 409 1017 379 q 1082 467 1060 439 q 1233 672 1161 574 q 1362 845 1306 769 q 1452 966 1418 921 q 1486 1013 1486 1011 q 1501 1019 1492 1019 q 1516 1015 1510 1019 q 1524 1003 1522 1011 q 1519 988 1526 996 q 1485 941 1519 986 q 1395 820 1451 896 q 1267 647 1339 744 q 1115 442 1194 549 q 1031 326 1076 389 q 940 199 985 264 q 853 67 894 133 q 781 -57 811 1 q 734 -164 750 -115 q 725 -244 718 -212 q 749 -278 729 -267 q 769 -284 756 -282 q 801 -283 782 -286 q 849 -270 821 -281 q 917 -240 878 -260 q 1174 -69 1021 -186 q 1264 4 1217 -36 q 1358 85 1311 44 q 1446 165 1404 126 q 1519 234 1488 204 q 1569 283 1550 264 q 1589 301 1589 301 m 735 90 q 801 127 765 101 q 869 189 838 153 q 926 260 904 225 q 951 321 947 294 q 947 351 954 336 q 919 367 940 367 q 842 334 889 367 q 751 249 796 301 q 689 150 707 196 q 689 89 671 104 q 712 84 697 82 q 735 90 726 86 z "},"":{"ha":1953,"x_min":58,"x_max":2056,"o":"m 2019 281 q 2035 286 2026 286 q 2049 283 2043 286 q 2055 273 2054 279 q 2047 261 2056 267 q 1998 220 2033 250 q 1911 148 1963 190 q 1796 56 1860 106 q 1663 -46 1732 6 q 1506 -153 1585 -103 q 1357 -237 1426 -204 q 1235 -276 1288 -269 q 1158 -251 1182 -283 q 1146 -176 1138 -222 q 1175 -79 1154 -129 q 1222 17 1196 -29 q 1263 89 1247 63 q 1204 59 1240 74 q 1138 44 1168 44 q 1094 56 1110 44 q 1074 88 1079 68 q 1074 131 1069 107 q 1086 179 1078 156 q 1025 129 1063 160 q 945 70 988 99 q 860 21 903 42 q 782 0 817 0 q 747 6 764 0 q 724 36 731 13 q 738 113 715 67 q 793 214 760 158 q 826 268 810 240 q 853 320 843 296 q 866 362 864 344 q 857 388 868 379 q 815 389 843 397 q 749 357 788 381 q 668 299 713 335 q 574 219 624 264 q 451 101 506 158 q 363 10 396 44 q 349 3 357 3 q 333 8 340 4 q 324 19 326 13 q 326 33 321 26 l 569 365 q 481 317 533 338 q 381 297 429 297 q 358 299 365 297 q 315 248 339 272 q 266 203 292 224 q 215 166 240 182 q 167 142 189 150 q 124 133 142 133 q 86 144 100 133 q 65 171 72 154 q 58 208 58 188 q 65 250 58 229 q 93 306 75 276 q 136 365 111 336 q 199 430 165 400 q 266 478 232 460 q 331 500 300 497 q 385 483 361 503 q 406 456 396 474 q 410 406 415 438 q 399 369 407 388 q 381 332 392 351 q 536 385 439 332 q 592 419 567 403 q 632 449 617 436 q 650 457 642 457 q 664 453 658 457 q 670 440 669 449 q 664 424 671 432 l 511 218 q 749 401 663 354 q 879 422 836 447 q 906 374 906 403 q 896 317 907 346 q 868 260 888 292 q 829 196 849 228 l 828 192 l 828 193 q 811 167 825 189 q 784 119 797 144 q 765 71 771 93 q 771 43 758 49 q 794 42 778 40 q 838 56 810 44 q 906 93 865 68 q 1001 160 946 118 q 1084 225 1043 190 q 1165 296 1125 260 q 1226 353 1194 326 q 1290 394 1258 379 q 1349 411 1321 410 q 1399 394 1378 413 q 1415 377 1407 388 q 1425 350 1422 367 q 1469 412 1447 382 q 1513 469 1492 442 q 1664 674 1592 576 q 1792 848 1736 772 q 1883 969 1849 924 q 1917 1015 1917 1014 q 1931 1022 1922 1022 q 1947 1018 1940 1022 q 1955 1006 1953 1014 q 1951 990 1957 999 q 1917 944 1950 989 q 1827 824 1883 899 q 1698 650 1771 749 q 1546 446 1625 551 q 1467 336 1513 401 q 1376 199 1422 271 q 1287 53 1329 126 q 1217 -81 1244 -19 q 1183 -184 1190 -142 q 1201 -236 1176 -226 q 1276 -231 1226 -247 q 1391 -181 1326 -215 q 1528 -99 1456 -147 q 1672 1 1601 -51 q 1780 85 1728 43 q 1878 165 1832 128 q 1960 233 1924 203 q 2019 281 1996 264 m 307 335 q 301 367 300 350 q 306 402 301 385 q 317 434 310 419 q 328 457 324 449 q 253 421 297 453 q 168 339 210 389 q 106 240 124 286 q 107 179 89 194 q 129 175 115 172 q 153 181 143 178 q 218 218 182 192 q 288 279 254 244 q 304 298 296 289 q 319 317 313 307 q 307 335 313 324 m 340 346 q 353 368 346 356 q 366 394 361 381 q 371 422 371 408 q 363 447 371 436 q 351 424 357 438 q 340 397 344 411 q 335 370 336 383 q 339 349 335 357 q 340 346 339 349 m 1167 93 q 1232 131 1196 104 q 1301 192 1268 157 q 1356 263 1335 228 q 1383 325 1378 297 q 1378 355 1386 340 q 1351 369 1371 369 q 1274 337 1321 369 q 1182 251 1226 304 q 1120 153 1138 199 q 1121 92 1103 107 q 1143 88 1129 85 q 1167 93 1157 90 z "},"":{"ha":993,"x_min":-111,"x_max":999,"o":"m 968 394 q 989 367 979 385 q 993 317 999 349 q 962 240 988 281 q 901 163 936 200 q 825 96 865 125 q 750 54 785 67 q 706 44 726 44 q 663 58 678 44 q 644 93 649 72 q 644 137 640 114 q 656 179 649 160 q 593 129 626 154 q 350 0 426 0 q 315 6 332 0 q 292 36 299 13 q 306 113 283 67 q 361 214 328 158 q 394 268 378 240 q 422 320 411 296 q 434 362 432 344 q 425 388 436 379 q 383 389 411 397 q 317 357 356 381 q 236 299 281 335 q 142 219 192 264 q 19 101 74 158 q -69 10 -36 44 q -83 3 -75 3 q -99 8 -92 4 q -108 19 -106 13 q -106 33 -111 26 l 186 435 q 200 443 192 443 q 215 439 208 443 q 223 427 221 435 q 218 410 225 419 l 79 218 q 317 401 231 354 q 447 422 404 447 q 474 374 474 403 q 464 317 475 346 q 436 260 456 292 q 397 196 417 228 q 380 167 394 190 q 352 119 365 144 q 333 71 339 93 q 339 43 326 49 q 362 42 346 40 q 406 56 378 44 q 474 93 433 68 q 569 160 514 118 q 653 225 613 190 q 735 296 694 260 q 794 353 763 326 q 858 394 826 379 q 918 411 889 410 q 968 394 947 413 m 953 324 q 948 354 956 339 q 921 369 940 369 q 843 337 890 369 q 751 250 796 304 q 714 199 729 224 q 690 152 699 174 q 682 115 682 131 q 690 90 682 99 q 713 86 699 83 q 736 93 726 89 q 801 130 765 104 q 871 192 838 156 q 926 263 904 228 q 953 324 947 297 z "},"":{"ha":857,"x_min":43,"x_max":1053,"o":"m 1024 390 q 1036 394 1029 396 q 1047 387 1043 392 q 1052 375 1051 382 q 1046 363 1053 368 q 1013 339 1043 361 q 938 294 982 317 q 859 260 903 275 q 774 258 815 246 q 692 156 743 208 q 587 66 640 104 q 489 13 533 28 q 436 3 460 3 q 387 17 404 3 q 363 54 369 32 q 358 103 356 76 q 371 156 361 131 q 410 232 386 192 q 471 313 435 272 q 408 291 442 300 q 343 289 375 282 q 300 238 324 263 q 251 193 276 214 q 201 156 226 172 q 153 132 175 140 q 128 125 139 126 q 108 124 118 124 q 71 134 85 124 q 50 161 57 144 q 44 199 43 178 q 51 240 44 219 q 79 296 61 267 q 121 356 97 325 q 184 420 150 390 q 251 469 218 450 q 316 490 285 488 q 371 474 347 493 q 392 446 382 464 q 396 396 401 428 q 365 322 390 363 q 521 375 424 322 q 537 384 529 379 q 551 393 544 389 q 617 440 583 419 q 681 470 650 461 q 740 476 713 479 q 790 454 768 474 q 815 421 804 443 q 818 360 825 399 q 792 290 811 325 q 856 297 821 285 q 921 325 892 310 q 987 363 964 346 q 1024 390 1010 379 m 325 336 q 338 358 331 344 q 351 385 346 371 q 356 413 356 399 q 349 438 357 426 q 326 389 338 417 q 325 336 315 361 m 272 269 q 290 288 282 279 q 304 307 297 297 q 287 339 290 321 q 287 376 283 357 q 298 413 290 394 q 314 447 306 432 q 238 411 282 443 q 154 329 194 379 q 92 231 110 276 q 92 169 74 185 q 115 165 100 163 q 138 171 129 168 q 204 208 168 182 q 272 269 240 235 m 661 185 q 703 232 685 208 q 736 278 721 256 q 715 313 721 293 q 708 353 708 332 q 713 395 708 374 q 724 436 718 417 q 673 422 700 435 q 617 390 646 410 q 558 342 588 369 q 503 286 529 315 q 447 211 471 249 q 410 140 422 174 q 398 94 403 121 q 408 53 393 68 q 440 44 421 42 q 475 51 458 46 q 565 101 515 67 q 661 185 615 136 m 756 310 q 771 336 764 318 q 780 373 778 354 q 777 408 782 392 q 757 428 772 424 q 749 399 753 415 q 744 367 746 383 q 745 335 743 350 q 756 310 747 319 z "},"":{"ha":1554,"x_min":-18,"x_max":1657,"o":"m 1622 278 q 1636 284 1628 285 q 1650 277 1644 283 q 1656 263 1656 271 q 1650 247 1657 254 q 1622 222 1650 247 q 1549 156 1594 196 q 1443 65 1503 115 q 1318 -35 1383 15 q 1174 -138 1240 -94 q 1054 -210 1108 -182 q 899 -261 960 -261 q 838 -242 867 -261 q 803 -186 810 -222 q 821 -62 793 -137 q 917 125 849 13 q 1051 329 975 222 q 1200 533 1128 436 q 1258 613 1229 574 q 1315 689 1288 651 q 1172 538 1249 617 q 1015 375 1096 458 q 771 132 882 239 q 568 -53 660 25 q 467 -135 514 -99 q 383 -194 421 -171 q 249 -251 297 -251 q 211 -242 224 -251 q 193 -221 199 -232 q 206 -92 174 -181 q 244 -8 221 -54 q 299 94 267 39 q 406 267 344 174 q 542 463 468 361 q 385 298 457 369 q 256 175 314 226 q 118 75 174 104 q 79 59 97 64 q 46 53 61 54 q 5 65 22 51 q -15 101 -12 78 q -8 152 -18 122 q 22 215 3 182 q 64 283 40 249 q 110 347 88 317 q 152 401 133 378 q 182 438 171 425 q 196 444 188 444 q 210 440 204 444 q 219 427 217 435 q 214 411 221 419 q 192 383 210 406 q 150 329 174 361 q 101 260 126 297 q 58 190 76 224 q 32 132 40 157 q 33 97 24 107 q 74 96 47 85 q 131 128 101 107 q 188 172 161 149 q 228 206 215 194 q 557 543 360 321 q 679 682 619 613 q 791 814 739 751 q 884 928 843 876 q 950 1014 925 979 q 963 1033 956 1022 q 978 1053 971 1043 q 992 1070 986 1063 q 997 1078 997 1078 q 1011 1086 1003 1086 q 1026 1082 1019 1086 q 1034 1069 1032 1078 q 1031 1053 1036 1061 q 1010 1024 1021 1039 q 983 989 999 1008 q 919 901 957 953 q 834 788 881 850 q 735 654 788 725 q 626 508 682 583 q 463 277 538 389 q 335 74 388 165 q 281 -25 303 19 q 246 -106 258 -69 q 237 -130 243 -112 q 228 -165 231 -147 q 228 -196 225 -182 q 249 -210 232 -210 q 285 -201 261 -210 q 347 -169 308 -193 q 440 -103 385 -146 q 574 8 496 -60 q 753 174 651 76 q 986 404 856 271 q 1198 626 1096 517 q 1379 821 1300 735 q 1508 963 1458 907 q 1564 1024 1558 1018 q 1579 1044 1574 1036 q 1588 1058 1585 1053 q 1595 1067 1592 1063 q 1604 1079 1599 1072 q 1618 1088 1610 1088 q 1633 1083 1626 1088 q 1642 1070 1640 1078 q 1638 1054 1644 1063 q 1603 1008 1638 1053 q 1513 888 1569 963 q 1385 714 1457 813 q 1233 510 1313 615 q 1149 394 1194 457 q 1058 266 1103 332 q 971 134 1013 200 q 899 9 929 68 q 852 -99 868 -50 q 843 -178 836 -147 q 863 -208 849 -196 q 899 -219 876 -219 q 951 -210 918 -219 q 1035 -174 985 -200 q 1292 -1 1142 -118 q 1415 98 1356 49 q 1521 187 1475 147 q 1594 252 1567 226 q 1622 278 1621 278 m 297 683 q 313 683 306 686 q 324 674 321 681 q 326 661 328 668 q 315 650 325 654 l 253 622 q 238 623 246 619 q 226 632 231 626 q 220 644 221 638 q 226 654 219 650 l 297 683 z "},"":{"ha":972,"x_min":14,"x_max":1119,"o":"m 1085 329 q 1100 334 1092 335 q 1113 328 1108 333 q 1119 314 1118 322 q 1113 299 1119 306 q 1085 276 1113 299 q 1014 216 1058 253 q 910 132 969 179 q 786 35 851 85 q 522 -142 629 -86 q 367 -192 426 -192 q 306 -172 335 -192 q 271 -117 278 -153 q 289 7 261 -68 q 385 194 317 82 q 486 351 429 269 q 601 511 543 432 q 433 332 510 410 q 294 200 357 254 q 157 101 211 129 q 106 80 133 88 q 49 88 78 72 q 24 128 28 100 q 117 350 14 193 q 154 403 136 378 q 188 449 172 429 q 221 490 204 471 q 235 499 226 499 q 249 494 243 499 q 257 481 256 489 q 253 464 258 472 q 221 422 238 444 q 188 379 206 403 q 151 328 171 356 q 101 245 119 279 q 75 188 83 211 q 65 153 67 165 q 64 135 64 140 q 85 119 67 119 q 107 124 93 119 q 143 140 121 128 q 195 174 165 153 q 267 232 225 196 q 415 374 333 290 q 596 569 497 457 q 769 771 688 674 q 915 947 851 868 q 1019 1080 978 1026 q 1072 1149 1061 1133 q 1087 1156 1078 1156 q 1102 1151 1096 1156 q 1110 1140 1108 1147 q 1106 1124 1113 1132 q 1072 1077 1106 1122 q 981 957 1038 1032 q 853 783 925 882 q 701 579 781 685 q 617 464 663 526 q 526 335 571 401 q 439 203 481 269 q 367 79 397 138 q 320 -28 336 21 q 311 -108 304 -76 q 331 -138 317 -126 q 367 -150 344 -150 q 419 -140 386 -150 q 503 -104 453 -131 q 620 -34 556 -76 q 760 67 685 8 q 883 163 825 117 q 984 244 940 208 q 1054 303 1028 281 q 1085 329 1081 326 m 331 808 q 347 808 339 811 q 358 799 354 806 q 360 786 361 793 q 349 775 358 779 l 286 747 q 272 748 279 744 q 259 757 264 751 q 253 769 254 763 q 260 779 253 775 l 331 808 z "},"":{"ha":1315,"x_min":-114,"x_max":1444,"o":"m 197 443 q 211 451 203 451 q 226 447 219 451 q 234 435 232 443 q 229 418 236 428 l 76 213 q 315 395 228 349 q 444 417 401 442 q 472 369 471 397 q 461 311 472 340 q 433 254 453 286 q 394 190 414 222 l 393 186 l 393 188 q 376 161 390 183 q 349 113 363 139 q 330 65 336 88 q 336 38 324 43 q 359 37 343 35 q 403 51 375 39 q 471 88 431 63 q 567 154 511 113 q 649 219 608 185 q 729 289 689 254 q 771 347 746 318 q 833 412 800 382 q 901 460 867 442 q 966 482 935 479 q 1021 465 997 485 q 1046 426 1038 451 q 1043 379 1054 400 q 1093 448 1075 422 q 1111 475 1111 474 q 1124 483 1117 482 q 1138 480 1132 483 q 1147 469 1144 476 q 1146 451 1150 461 q 1128 424 1150 456 q 1069 342 1106 393 q 987 228 1033 290 q 897 107 940 165 l 967 158 q 1426 338 1269 374 q 1440 328 1436 335 q 1442 313 1444 321 q 1434 299 1440 304 q 1418 296 1428 293 q 1242 269 1350 313 q 992 125 1133 225 q 876 38 929 81 q 788 -37 824 -6 q 631 -228 699 -149 q 511 -367 564 -308 q 431 -447 464 -417 q 374 -493 397 -476 q 337 -515 351 -510 q 314 -522 322 -521 q 274 -510 290 -522 q 260 -469 257 -497 q 267 -444 261 -460 q 289 -405 272 -428 q 337 -349 306 -382 q 419 -269 368 -315 q 562 -151 479 -217 q 761 1 644 -85 q 832 92 797 46 q 901 185 867 139 q 850 148 875 164 q 803 124 825 132 q 758 115 783 117 q 715 129 733 114 q 696 158 704 139 q 694 210 688 176 q 645 169 672 190 q 590 124 618 147 q 347 -6 424 -6 q 313 1 329 -6 q 289 31 296 7 q 303 107 281 61 q 358 208 325 153 q 392 263 375 235 q 419 315 408 290 q 431 356 429 339 q 422 382 433 374 q 381 383 408 392 q 314 351 353 375 q 233 294 278 329 q 139 214 189 258 q 16 96 71 153 q -72 4 -39 39 q -86 -2 -78 -3 q -101 3 -94 -1 q -111 14 -108 7 q -108 28 -114 21 l 197 443 m 788 163 q 853 200 817 174 q 922 261 889 226 q 978 332 957 297 q 1004 394 1000 367 q 999 425 1007 410 q 972 440 992 440 q 894 407 942 440 q 803 321 847 374 q 788 301 796 311 q 771 276 781 292 q 736 204 744 236 q 742 161 728 172 q 764 157 750 154 q 788 163 778 160 m 307 -481 q 337 -472 315 -483 q 399 -422 358 -460 q 504 -312 440 -383 q 663 -125 568 -242 q 468 -284 542 -219 q 356 -390 394 -349 q 308 -453 317 -432 q 307 -481 299 -475 z "},"":{"ha":1197,"x_min":-115,"x_max":1419,"o":"m 1400 651 l 976 651 q 952 619 964 636 q 929 588 940 603 q 845 472 890 535 q 754 344 800 410 q 667 213 708 278 q 595 88 625 147 q 549 -19 565 29 q 540 -99 533 -68 q 569 -136 546 -129 q 623 -137 593 -143 q 683 -117 653 -131 q 731 -94 713 -104 q 848 -24 783 -67 q 989 76 913 18 q 1113 176 1053 126 q 1217 266 1172 226 q 1290 331 1263 306 q 1318 357 1318 357 q 1332 362 1325 363 q 1343 357 1339 361 q 1347 345 1347 353 q 1340 331 1347 338 q 1313 304 1340 331 q 1242 237 1286 278 q 1138 145 1197 196 q 1014 44 1079 94 q 750 -132 857 -76 q 594 -182 654 -182 q 533 -162 561 -182 q 499 -107 506 -143 q 517 17 489 -58 q 613 204 544 92 q 748 408 672 301 q 896 613 824 515 l 924 651 l 903 651 l 713 454 q 264 26 446 181 q 81 -115 156 -68 q 3 -159 36 -144 q -56 -172 -31 -174 q -115 -117 -115 -169 q -71 29 -115 -64 q 54 247 -26 122 q 238 519 135 372 q 458 829 340 667 q 693 1157 576 992 q 707 1165 699 1165 q 722 1161 715 1165 q 730 1149 728 1157 q 726 1132 732 1140 q 499 812 610 968 q 290 516 388 656 q 116 259 193 376 q -10 56 39 142 q -72 -80 -58 -31 q -56 -131 -86 -129 q -19 -124 -43 -132 q 42 -92 4 -115 q 137 -26 81 -68 q 270 85 193 17 q 449 252 347 154 q 682 483 551 350 l 843 651 l 567 651 q 551 658 556 651 q 546 672 546 664 q 551 686 546 679 q 567 693 557 693 l 882 693 q 1035 859 963 779 q 1163 1001 1107 939 q 1256 1105 1219 1064 q 1301 1157 1292 1146 q 1317 1165 1308 1165 q 1331 1161 1325 1165 q 1339 1149 1338 1157 q 1335 1133 1340 1142 q 1307 1097 1333 1132 q 1236 1003 1281 1063 q 1133 863 1192 943 q 1007 693 1074 783 l 1400 693 q 1415 685 1410 692 q 1419 672 1419 679 q 1415 658 1419 664 q 1400 651 1410 651 m 1011 768 l 942 693 l 956 693 q 984 731 971 713 q 1011 768 997 749 z "},"":{"ha":1128,"x_min":-122,"x_max":1281,"o":"m 1251 358 q 1265 362 1258 364 q 1276 354 1272 360 q 1281 341 1281 349 q 1272 326 1281 333 q 1260 315 1272 326 q 1226 286 1247 304 q 1176 245 1204 268 q 1117 200 1149 222 q 988 122 1043 149 q 908 100 942 100 q 875 107 888 100 q 850 146 854 119 q 864 211 846 172 q 788 167 824 179 q 765 160 775 161 q 746 158 754 158 q 704 171 719 158 q 679 239 675 196 q 560 135 633 197 q 403 7 486 72 q 259 -96 325 -51 q 139 -168 193 -140 q -18 -218 40 -218 q -69 -206 -49 -218 q -112 -144 -104 -185 q -94 -20 -122 -96 q 1 168 -67 56 q 136 372 60 265 q 285 576 213 478 q 436 781 364 682 q 565 954 508 879 q 655 1074 621 1029 q 689 1121 689 1119 q 703 1129 694 1128 q 718 1125 711 1131 q 722 1096 735 1113 q 688 1049 722 1094 q 598 929 654 1004 q 469 756 542 854 q 318 551 397 657 q 233 436 279 499 q 142 308 188 374 q 56 176 97 242 q -17 52 14 111 q -63 -56 -47 -7 q -72 -136 -79 -104 q -49 -169 -67 -157 q -28 -176 -42 -174 q 4 -174 -15 -178 q 52 -161 24 -171 q 119 -131 81 -151 q 237 -60 172 -103 q 376 40 301 -18 q 500 140 440 90 q 605 228 560 189 q 678 294 650 268 q 706 319 706 319 q 710 322 708 322 q 726 349 717 336 q 747 376 736 361 q 806 436 775 408 q 868 481 838 464 q 948 505 918 508 q 993 489 978 501 q 1011 465 1003 481 q 1018 426 1019 450 q 1067 481 1047 460 q 1089 504 1088 503 q 1103 511 1094 511 q 1118 504 1111 511 q 1118 475 1132 489 q 1108 464 1118 475 q 1081 434 1097 453 q 1042 390 1064 415 q 999 339 1021 365 q 938 257 960 290 q 906 202 917 224 q 892 169 894 181 q 892 151 890 157 q 896 143 892 144 q 908 141 899 142 q 940 148 918 140 q 999 175 963 156 q 1093 235 1036 194 q 1153 278 1124 257 q 1203 318 1182 300 q 1238 347 1225 336 q 1251 358 1251 358 m 772 206 q 833 241 800 217 q 899 297 867 265 q 951 365 931 332 q 975 422 971 397 q 974 445 978 438 q 965 457 971 453 q 946 463 960 463 q 868 431 915 463 q 779 349 821 400 q 725 257 739 299 q 731 203 714 219 q 772 206 742 194 z "},"":{"ha":849,"x_min":-387,"x_max":960,"o":"m 926 282 q 942 291 935 290 q 955 288 950 292 q 960 276 960 283 q 954 261 960 268 q 876 205 922 239 q 779 138 831 171 q 676 79 728 106 q 583 44 625 53 q 512 49 540 35 q 478 113 483 64 q 483 169 475 140 q 506 231 490 199 q 347 122 443 189 q 143 -24 250 56 q -17 -222 51 -142 q -137 -361 -85 -303 q -217 -441 -183 -411 q -274 -487 -250 -471 q -313 -510 -297 -504 q -342 -517 -329 -515 q -376 -501 -364 -517 q -387 -464 -387 -486 q -381 -438 -386 -454 q -358 -399 -375 -422 q -311 -343 -342 -376 q -229 -264 -281 -310 q -60 -125 -147 -190 q 114 7 26 -60 q 184 98 149 51 q 253 190 219 144 q 188 144 225 167 q 110 121 151 121 q 72 131 86 121 q 51 158 58 142 q 45 196 44 175 q 53 238 46 217 q 81 293 63 264 q 122 353 99 322 q 185 417 151 388 q 253 466 219 447 q 317 488 286 485 q 372 471 349 490 q 396 433 393 454 q 396 385 399 411 q 444 453 426 428 q 464 481 463 479 q 478 489 469 489 q 492 485 486 489 q 501 473 499 481 q 497 457 503 465 q 473 422 497 456 q 410 335 449 389 q 324 217 372 282 q 229 89 276 153 q 358 178 299 138 q 462 250 417 219 q 534 298 507 281 q 565 317 561 315 q 633 385 596 353 q 708 442 669 417 q 815 483 765 475 q 924 463 875 492 q 935 448 931 457 q 933 424 939 439 q 885 353 925 400 q 788 258 846 307 q 660 175 724 207 q 525 138 592 142 q 524 105 522 122 q 546 81 526 88 q 624 90 576 71 q 726 142 672 110 q 832 214 779 175 q 926 282 885 253 m 93 167 q 134 165 107 154 q 189 196 161 176 q 241 237 217 215 q 274 267 265 258 q 330 338 308 303 q 356 400 351 372 q 351 430 358 415 q 324 444 344 444 q 247 412 293 444 q 156 326 200 379 q 93 228 111 274 q 93 167 75 182 m -346 -467 q -331 -472 -344 -476 q -290 -448 -317 -468 q -222 -386 -264 -428 q -121 -279 -179 -344 q 15 -119 -62 -214 q -175 -272 -104 -210 q -284 -375 -246 -335 q -334 -437 -322 -415 q -346 -467 -346 -458 m 732 407 q 651 344 690 382 q 581 261 611 306 q 554 219 565 239 q 536 179 543 200 q 607 197 572 183 q 673 228 642 211 q 730 265 704 246 q 774 301 756 285 q 822 344 799 321 q 864 390 844 368 q 888 431 886 418 q 840 444 889 444 q 783 433 811 444 q 732 407 754 422 z "},"":{"ha":1265,"x_min":-21,"x_max":1538,"o":"m 1508 403 q 1521 406 1514 408 q 1532 399 1528 404 q 1537 388 1536 394 q 1531 375 1538 381 q 1497 351 1528 374 q 1422 307 1467 329 q 1344 273 1388 288 q 1258 271 1300 258 q 1176 168 1228 221 q 1072 78 1125 117 q 974 25 1018 40 q 921 15 944 15 q 888 22 901 15 q 865 35 874 28 q 842 78 850 49 q 856 165 833 108 l 372 -517 q 356 -526 365 -526 q 343 -522 349 -526 q 338 -493 328 -511 l 931 356 q 831 301 886 335 q 717 227 776 268 q 599 142 658 186 q 486 60 539 99 q 501 1 501 35 q 489 -69 500 -32 q 459 -144 478 -106 q 418 -217 440 -182 q 374 -283 396 -253 q 333 -335 351 -314 q 299 -372 322 -349 q 245 -422 275 -396 q 181 -471 215 -447 q 115 -508 147 -494 q 53 -521 82 -521 q 7 -499 25 -521 q 4 -402 -21 -464 q 89 -265 29 -340 q 232 -106 149 -189 q 403 53 315 -24 q 345 49 378 53 q 280 37 313 44 q 217 20 247 29 q 165 3 186 11 l 139 -6 q 119 -7 128 -11 q 108 6 111 -3 q 108 24 106 14 q 122 40 111 33 q 160 72 138 53 q 209 115 183 92 q 259 162 235 138 q 303 210 283 186 q 357 304 346 261 q 351 374 368 347 q 309 388 335 390 q 253 369 283 385 q 190 328 222 353 q 128 278 158 303 q 74 230 99 253 q 38 196 50 207 q 24 192 31 190 q 13 198 17 193 q 7 210 8 203 q 13 225 6 218 q 31 242 14 226 q 72 281 47 258 q 127 330 96 304 q 191 378 158 356 q 255 415 224 400 q 311 431 286 429 q 377 406 353 432 q 404 343 401 379 q 390 271 407 308 q 347 197 374 233 q 285 128 319 161 q 221 68 251 94 q 272 80 240 74 q 338 90 304 86 q 404 95 372 94 q 456 89 436 96 q 547 156 494 119 q 656 228 599 192 q 767 299 713 265 q 868 361 822 333 q 944 408 914 389 q 979 431 974 426 q 999 438 988 436 q 1020 438 1011 440 q 1033 429 1029 436 q 1028 411 1036 422 l 1003 375 q 1076 436 1038 410 q 1149 476 1114 463 q 1217 489 1185 490 q 1275 467 1250 488 q 1299 433 1289 456 q 1303 372 1310 411 q 1276 303 1296 338 q 1341 310 1306 297 q 1406 338 1376 322 q 1478 380 1449 358 q 1508 403 1508 401 m 429 43 q 303 -87 358 -29 q 207 -194 249 -146 q 106 -322 142 -271 q 53 -406 69 -374 q 36 -453 38 -437 q 38 -475 35 -469 l 38 -474 q 78 -474 49 -485 q 147 -437 108 -462 q 226 -374 185 -411 q 304 -296 268 -337 q 334 -256 314 -282 q 376 -200 354 -231 q 419 -135 399 -169 q 449 -67 439 -100 q 456 -5 460 -33 q 429 43 453 24 m 1146 197 q 1188 244 1169 221 q 1221 290 1206 268 q 1199 328 1208 303 q 1196 396 1190 353 q 1202 424 1199 411 q 1208 449 1206 438 q 1158 435 1185 447 q 1101 402 1131 422 q 1043 355 1072 382 q 988 299 1014 328 q 931 224 956 261 q 894 153 907 186 q 883 107 888 133 q 893 65 878 81 q 924 56 906 54 q 960 64 943 58 q 1050 114 1000 79 q 1146 197 1100 149 m 1240 322 q 1256 349 1249 331 q 1265 385 1263 367 q 1262 420 1267 404 q 1242 440 1257 436 q 1234 412 1238 428 q 1229 379 1231 396 q 1230 347 1228 363 q 1240 322 1232 332 z "},"Ï":{"ha":374,"x_min":-236,"x_max":790,"o":"m 760 1065 q 776 1065 768 1068 q 787 1054 783 1061 q 789 1040 790 1047 q 778 1028 788 1032 l 757 1018 q 742 1019 750 1015 q 730 1028 735 1022 q 724 1040 725 1033 q 731 1050 724 1046 l 760 1065 m 621 1065 q 637 1065 629 1068 q 648 1054 644 1061 q 650 1040 651 1047 q 639 1028 649 1032 l 618 1018 q 603 1019 611 1015 q 591 1028 596 1022 q 585 1040 586 1033 q 592 1050 585 1046 l 621 1065 m 610 883 q 628 895 618 893 q 644 893 638 897 q 652 880 650 889 q 647 861 654 871 q 606 785 636 840 q 531 653 575 731 q 433 484 488 576 q 321 296 379 392 q 267 206 301 263 q 191 85 233 150 q 101 -47 149 19 q 6 -168 54 -114 q -86 -256 -42 -222 q -165 -287 -131 -289 q -219 -253 -204 -285 q -235 -178 -235 -221 q -229 -92 -236 -135 q -215 -24 -222 -49 q -185 86 -200 40 q -168 135 -169 132 q -156 148 -164 144 q -140 149 -147 151 q -128 140 -132 147 q -128 121 -124 133 q -133 108 -128 121 q -145 74 -137 94 q -161 25 -153 53 q -176 -33 -169 -3 q -196 -190 -200 -135 q -160 -246 -192 -246 q -90 -206 -132 -246 q 1 -107 -47 -167 q 97 24 49 -47 q 186 157 146 94 q 253 265 226 219 q 286 318 281 310 q 410 528 351 425 q 517 711 469 631 l 404 583 q 389 577 397 576 q 374 583 381 578 q 367 595 368 588 q 372 611 365 603 l 610 883 z "},"À":{"ha":985,"x_min":-351,"x_max":1274,"o":"m 751 679 l 1113 858 q 1149 858 1133 868 q 1150 831 1164 849 q 1110 781 1146 825 q 1017 665 1074 736 q 889 503 960 594 q 746 314 818 413 l 690 239 l 824 239 q 839 233 833 239 q 844 218 844 226 q 839 203 844 210 q 824 197 833 197 l 661 197 q 567 58 608 122 q 496 -57 525 -6 q 431 -190 446 -144 q 428 -250 417 -235 q 470 -256 439 -265 q 540 -224 501 -246 q 622 -172 579 -201 q 699 -115 664 -142 q 785 -47 743 -82 q 858 15 826 -12 q 910 61 890 43 q 929 79 929 79 q 944 85 936 86 q 957 78 951 83 q 963 64 963 72 q 957 49 964 56 q 937 31 957 49 q 885 -16 917 13 q 811 -79 853 -44 q 724 -149 769 -114 q 665 -194 699 -168 q 595 -242 632 -219 q 519 -281 558 -265 q 446 -296 481 -296 q 399 -281 414 -296 q 383 -243 385 -267 q 390 -191 382 -219 q 410 -133 397 -162 q 436 -78 422 -104 q 460 -36 450 -53 q 525 70 488 13 q 611 197 563 128 l 356 197 l -315 -350 q -335 -357 -326 -358 q -347 -349 -343 -356 q -351 -333 -351 -342 q -342 -317 -350 -324 l 288 197 l 61 197 q 46 203 51 197 q 40 218 40 210 q 45 233 40 226 q 61 239 50 239 l 340 239 l 981 746 l 771 642 q 753 640 761 638 q 742 650 746 643 q 741 665 739 657 q 751 679 743 674 m 408 239 l 640 239 q 808 468 719 356 q 993 701 896 581 l 408 239 m 1242 974 l 1160 1043 q 1153 1058 1153 1050 q 1157 1072 1153 1067 q 1169 1079 1161 1078 q 1185 1076 1176 1081 l 1268 1007 q 1273 990 1274 999 q 1267 976 1272 982 q 1255 968 1263 969 q 1242 974 1247 967 z "},"Á":{"ha":985,"x_min":-351,"x_max":1263,"o":"m 751 679 l 1113 858 q 1149 858 1133 868 q 1150 831 1164 849 q 1110 781 1146 825 q 1017 665 1074 736 q 889 503 960 594 q 746 314 818 413 l 690 239 l 824 239 q 839 233 833 239 q 844 218 844 226 q 839 203 844 210 q 824 197 833 197 l 661 197 q 567 58 608 122 q 496 -57 525 -6 q 431 -190 446 -144 q 428 -250 417 -235 q 470 -256 439 -265 q 540 -224 501 -246 q 622 -172 579 -201 q 699 -115 664 -142 q 785 -47 743 -82 q 858 15 826 -12 q 910 61 890 43 q 929 79 929 79 q 944 85 936 86 q 957 78 951 83 q 963 64 963 72 q 957 49 964 56 q 937 31 957 49 q 885 -16 917 13 q 811 -79 853 -44 q 724 -149 769 -114 q 665 -194 699 -168 q 595 -242 632 -219 q 519 -281 558 -265 q 446 -296 481 -296 q 399 -281 414 -296 q 383 -243 385 -267 q 390 -191 382 -219 q 410 -133 397 -162 q 436 -78 422 -104 q 460 -36 450 -53 q 525 70 488 13 q 611 197 563 128 l 356 197 l -315 -350 q -335 -357 -326 -358 q -347 -349 -343 -356 q -351 -333 -351 -342 q -342 -317 -350 -324 l 288 197 l 61 197 q 46 203 51 197 q 40 218 40 210 q 45 233 40 226 q 61 239 50 239 l 340 239 l 981 746 l 771 642 q 753 640 761 638 q 742 650 746 643 q 741 665 739 657 q 751 679 743 674 m 408 239 l 640 239 q 808 468 719 356 q 993 701 896 581 l 408 239 m 1256 1042 q 1251 1037 1254 1039 q 1238 1031 1249 1035 q 1204 1021 1226 1028 q 1142 1003 1182 1014 q 1115 1019 1121 1003 q 1128 1043 1108 1035 l 1231 1074 q 1254 1065 1246 1076 q 1256 1042 1263 1053 z "},"Â":{"ha":985,"x_min":-351,"x_max":1261,"o":"m 1060 999 q 1119 1046 1101 1032 q 1147 1068 1136 1060 q 1174 1069 1161 1079 l 1254 997 q 1260 981 1261 990 q 1254 966 1260 972 q 1241 958 1249 960 q 1228 964 1233 957 l 1160 1026 l 1089 968 q 1072 963 1081 961 q 1058 970 1064 964 q 1052 984 1053 976 q 1060 999 1051 992 m 751 679 l 1113 858 q 1149 858 1133 868 q 1150 831 1164 849 q 1110 781 1146 825 q 1017 665 1074 736 q 889 503 960 594 q 746 314 818 413 l 690 239 l 824 239 q 839 233 833 239 q 844 218 844 226 q 839 203 844 210 q 824 197 833 197 l 661 197 q 567 58 608 122 q 496 -57 525 -6 q 431 -190 446 -144 q 428 -250 417 -235 q 470 -256 439 -265 q 540 -224 501 -246 q 622 -172 579 -201 q 699 -115 664 -142 q 785 -47 743 -82 q 858 15 826 -12 q 910 61 890 43 q 929 79 929 79 q 944 85 936 86 q 957 78 951 83 q 963 64 963 72 q 957 49 964 56 q 937 31 957 49 q 885 -16 917 13 q 811 -79 853 -44 q 724 -149 769 -114 q 665 -194 699 -168 q 595 -242 632 -219 q 519 -281 558 -265 q 446 -296 481 -296 q 399 -281 414 -296 q 383 -243 385 -267 q 390 -191 382 -219 q 410 -133 397 -162 q 436 -78 422 -104 q 460 -36 450 -53 q 525 70 488 13 q 611 197 563 128 l 356 197 l -315 -350 q -335 -357 -326 -358 q -347 -349 -343 -356 q -351 -333 -351 -342 q -342 -317 -350 -324 l 288 197 l 61 197 q 46 203 51 197 q 40 218 40 210 q 45 233 40 226 q 61 239 50 239 l 340 239 l 981 746 l 771 642 q 753 640 761 638 q 742 650 746 643 q 741 665 739 657 q 751 679 743 674 m 408 239 l 640 239 q 808 468 719 356 q 993 701 896 581 l 408 239 z "},"È":{"ha":1078,"x_min":-189,"x_max":1197,"o":"m 1042 661 q 1033 645 1033 654 q 1036 630 1032 636 q 1048 622 1040 624 q 1064 626 1056 619 q 1089 650 1065 628 q 1136 701 1113 672 q 1185 783 1174 746 q 1185 845 1197 819 q 1138 885 1172 871 q 1051 900 1104 900 q 887 870 968 899 q 733 796 806 842 q 601 690 661 750 q 499 565 540 631 q 454 397 432 458 q 417 374 435 385 q 381 350 400 363 q 239 253 308 304 q 108 152 169 203 q -6 53 46 101 q -96 -36 -58 6 q -142 -94 -117 -60 q -178 -165 -167 -129 q -178 -233 -189 -201 q -117 -281 -168 -264 q 17 -291 -58 -300 q 181 -253 92 -282 q 372 -179 269 -224 q 590 -82 475 -135 q 778 8 690 -36 q 933 89 865 53 q 1046 149 1001 125 q 1103 181 1090 174 q 1113 193 1111 185 q 1110 208 1114 201 q 1099 218 1107 215 q 1079 214 1092 221 q 1021 181 1067 206 q 906 120 975 156 q 752 42 838 85 q 574 -43 667 0 q 360 -140 461 -96 q 173 -213 260 -185 q 17 -251 86 -242 q -103 -240 -53 -260 q -133 -206 -131 -229 q -124 -155 -135 -182 q -94 -103 -112 -128 q -64 -62 -76 -78 q 197 170 60 68 q 478 363 333 272 q 558 329 514 333 q 647 336 603 325 q 733 370 692 347 q 804 417 775 393 q 839 456 828 436 q 850 494 850 476 q 838 523 850 511 q 806 538 826 535 q 726 529 769 542 q 640 498 682 517 q 558 457 597 479 q 492 418 519 435 q 533 542 482 460 q 625 654 569 599 q 749 755 681 710 q 895 828 818 800 q 1051 858 972 857 q 1120 849 1096 858 q 1149 824 1144 840 q 1143 783 1154 807 q 1106 726 1132 758 q 1063 680 1082 699 q 1042 661 1043 661 m 797 496 q 798 478 811 493 q 760 444 785 463 q 711 410 736 426 q 676 390 686 394 q 593 368 638 375 q 514 385 549 361 q 692 473 617 443 q 797 496 767 503 m 1106 972 l 1028 1046 q 1022 1062 1021 1054 q 1027 1075 1022 1069 q 1039 1082 1032 1081 q 1054 1078 1046 1083 l 1133 1004 q 1139 987 1140 996 q 1132 972 1138 978 q 1119 966 1126 967 q 1106 972 1111 965 z "},"Å":{"ha":985,"x_min":-351,"x_max":1299,"o":"m 751 679 l 1113 858 q 1149 858 1133 868 q 1150 831 1164 849 q 1110 781 1146 825 q 1017 665 1074 736 q 889 503 960 594 q 746 314 818 413 l 690 239 l 824 239 q 839 233 833 239 q 844 218 844 226 q 839 203 844 210 q 824 197 833 197 l 661 197 q 567 58 608 122 q 496 -57 525 -6 q 431 -190 446 -144 q 428 -250 417 -235 q 470 -256 439 -265 q 540 -224 501 -246 q 622 -172 579 -201 q 699 -115 664 -142 q 785 -47 743 -82 q 858 15 826 -12 q 910 61 890 43 q 929 79 929 79 q 944 85 936 86 q 957 78 951 83 q 963 64 963 72 q 957 49 964 56 q 937 31 957 49 q 885 -16 917 13 q 811 -79 853 -44 q 724 -149 769 -114 q 665 -194 699 -168 q 595 -242 632 -219 q 519 -281 558 -265 q 446 -296 481 -296 q 399 -281 414 -296 q 383 -243 385 -267 q 390 -191 382 -219 q 410 -133 397 -162 q 436 -78 422 -104 q 460 -36 450 -53 q 525 70 488 13 q 611 197 563 128 l 356 197 l -315 -350 q -335 -357 -326 -358 q -347 -349 -343 -356 q -351 -333 -351 -342 q -342 -317 -350 -324 l 288 197 l 61 197 q 46 203 51 197 q 40 218 40 210 q 45 233 40 226 q 61 239 50 239 l 340 239 l 981 746 l 771 642 q 753 640 761 638 q 742 650 746 643 q 741 665 739 657 q 751 679 743 674 m 408 239 l 640 239 q 808 468 719 356 q 993 701 896 581 l 408 239 m 1229 1074 q 1278 1053 1257 1074 q 1299 1004 1299 1032 q 1278 958 1299 979 q 1229 938 1257 938 q 1183 958 1204 938 q 1163 1004 1163 979 q 1183 1053 1163 1032 q 1229 1074 1204 1074 m 1229 958 q 1263 972 1249 958 q 1276 1004 1276 985 q 1263 1038 1276 1024 q 1229 1051 1249 1051 q 1197 1038 1210 1051 q 1183 1004 1183 1024 q 1197 972 1183 985 q 1229 958 1210 958 z "},"Ã":{"ha":985,"x_min":-351,"x_max":1311,"o":"m 751 679 l 1113 858 q 1149 858 1133 868 q 1150 831 1164 849 q 1110 781 1146 825 q 1017 665 1074 736 q 889 503 960 594 q 746 314 818 413 l 690 239 l 824 239 q 839 233 833 239 q 844 218 844 226 q 839 203 844 210 q 824 197 833 197 l 661 197 q 567 58 608 122 q 496 -57 525 -6 q 431 -190 446 -144 q 428 -250 417 -235 q 470 -256 439 -265 q 540 -224 501 -246 q 622 -172 579 -201 q 699 -115 664 -142 q 785 -47 743 -82 q 858 15 826 -12 q 910 61 890 43 q 929 79 929 79 q 944 85 936 86 q 957 78 951 83 q 963 64 963 72 q 957 49 964 56 q 937 31 957 49 q 885 -16 917 13 q 811 -79 853 -44 q 724 -149 769 -114 q 665 -194 699 -168 q 595 -242 632 -219 q 519 -281 558 -265 q 446 -296 481 -296 q 399 -281 414 -296 q 383 -243 385 -267 q 390 -191 382 -219 q 410 -133 397 -162 q 436 -78 422 -104 q 460 -36 450 -53 q 525 70 488 13 q 611 197 563 128 l 356 197 l -315 -350 q -335 -357 -326 -358 q -347 -349 -343 -356 q -351 -333 -351 -342 q -342 -317 -350 -324 l 288 197 l 61 197 q 46 203 51 197 q 40 218 40 210 q 45 233 40 226 q 61 239 50 239 l 340 239 l 981 746 l 771 642 q 753 640 761 638 q 742 650 746 643 q 741 665 739 657 q 751 679 743 674 m 408 239 l 640 239 q 808 468 719 356 q 993 701 896 581 l 408 239 m 988 1046 q 1003 1055 989 1046 q 1040 1071 1017 1064 q 1093 1078 1063 1078 q 1158 1063 1124 1078 q 1215 1045 1192 1047 q 1254 1047 1239 1043 q 1277 1058 1269 1051 q 1288 1067 1285 1065 q 1304 1060 1297 1075 q 1306 1038 1311 1046 q 1294 1028 1304 1036 q 1266 1013 1285 1019 q 1218 1008 1247 1007 q 1150 1029 1189 1010 q 1093 1041 1119 1042 q 1047 1034 1067 1040 q 1015 1019 1026 1028 q 1003 1011 1004 1011 q 993 1012 997 1008 q 986 1022 989 1015 q 983 1035 983 1028 q 988 1046 983 1042 z "},"Æ":{"ha":1993,"x_min":-351,"x_max":2113,"o":"m 1957 661 q 1978 680 1958 661 q 2021 726 1997 699 q 2058 783 2047 758 q 2065 824 2069 807 q 2035 849 2060 840 q 1967 858 2011 858 q 1810 828 1888 857 q 1665 755 1733 800 q 1540 654 1596 710 q 1449 542 1485 599 q 1407 418 1397 460 q 1474 457 1435 435 q 1555 498 1513 479 q 1641 529 1597 517 q 1721 538 1685 542 q 1753 523 1742 535 q 1765 494 1765 511 q 1754 456 1765 476 q 1719 417 1743 436 q 1649 370 1690 393 q 1563 336 1607 347 q 1474 329 1518 325 q 1393 363 1429 333 q 1112 170 1249 272 q 851 -62 975 68 q 821 -103 839 -78 q 792 -155 803 -128 q 783 -206 781 -182 q 813 -240 785 -229 q 932 -251 863 -260 q 1088 -213 1001 -242 q 1276 -140 1175 -185 q 1489 -43 1376 -96 q 1667 42 1582 0 q 1822 120 1753 85 q 1936 181 1890 156 q 1994 214 1982 206 q 2015 218 2007 221 q 2026 208 2022 215 q 2028 193 2029 201 q 2018 181 2026 185 q 1961 149 2006 174 q 1849 89 1917 125 q 1693 8 1781 53 q 1506 -82 1606 -36 q 1288 -179 1390 -135 q 1096 -253 1185 -224 q 932 -291 1007 -282 q 799 -281 857 -300 q 750 -253 765 -271 q 732 -215 735 -236 q 736 -170 729 -193 q 756 -124 743 -147 l 724 -149 q 665 -194 699 -168 q 595 -242 632 -219 q 519 -281 558 -265 q 446 -296 481 -296 q 399 -281 414 -296 q 383 -243 385 -267 q 390 -191 382 -219 q 410 -133 397 -162 q 436 -78 422 -104 q 460 -36 450 -53 q 525 70 488 13 q 611 197 563 128 l 356 197 l -315 -350 q -335 -357 -326 -358 q -347 -349 -343 -356 q -351 -333 -351 -342 q -342 -317 -350 -324 l 288 197 l 61 197 q 46 203 51 197 q 40 218 40 210 q 45 233 40 226 q 61 239 50 239 l 340 239 l 981 746 l 771 642 q 753 640 761 638 q 742 650 746 643 q 741 665 739 657 q 751 679 743 674 l 1113 858 q 1149 858 1133 868 q 1150 831 1164 849 q 1110 781 1146 825 q 1017 665 1074 736 q 889 503 960 594 q 746 314 818 413 l 690 239 l 824 239 q 839 233 833 239 q 844 218 844 226 q 839 203 844 210 q 824 197 833 197 l 661 197 q 567 58 608 122 q 496 -57 525 -6 q 431 -190 446 -144 q 428 -250 417 -235 q 470 -256 439 -265 q 540 -224 501 -246 q 622 -172 579 -201 q 699 -115 664 -142 q 785 -47 743 -82 q 858 15 826 -12 q 910 61 890 43 q 929 79 929 79 q 942 85 935 85 q 1108 219 1017 151 q 1296 350 1199 288 l 1369 397 q 1414 565 1347 458 q 1516 690 1456 631 q 1649 796 1576 750 q 1802 870 1721 842 q 1967 900 1883 899 q 2053 885 2019 900 q 2100 845 2088 871 q 2101 783 2113 819 q 2051 701 2089 746 q 2004 650 2028 672 q 1979 626 1981 628 q 1963 622 1971 619 q 1951 630 1956 624 q 1948 645 1947 636 q 1957 661 1949 654 m 408 239 l 640 239 q 808 468 719 356 q 993 701 896 581 l 408 239 m 1713 496 q 1607 473 1682 503 q 1429 385 1532 443 q 1508 368 1464 361 q 1592 390 1553 375 q 1626 410 1601 394 q 1676 444 1651 426 q 1713 478 1700 463 q 1713 496 1726 493 z "},"Ç":{"ha":839,"x_min":-96,"x_max":1182,"o":"m 40 -410 l 46 -410 q 87 -390 71 -408 q 103 -349 103 -372 q 95 -319 103 -333 q 76 -297 88 -306 q -12 -271 28 -294 q -72 -194 -53 -247 q -68 -17 -96 -124 q -31 91 -54 35 q 29 208 -7 147 q 220 471 106 340 q 475 718 335 601 q 667 858 576 803 q 836 939 757 913 q 1067 936 974 982 q 1156 838 1125 904 q 1175 713 1182 779 q 1169 698 1175 703 q 1154 694 1163 693 q 1140 699 1146 694 q 1133 715 1133 704 q 1132 764 1135 738 q 1119 815 1129 790 q 1092 862 1110 840 q 1047 899 1074 883 q 979 917 1022 911 q 870 905 936 924 q 713 836 804 886 q 501 686 622 786 q 252 444 364 572 q 65 188 140 317 q 8 75 32 129 q -28 -28 -15 21 q -32 -181 -54 -122 q 81 -257 -10 -253 q 307 -207 178 -261 q 592 -43 436 -153 q 701 39 650 -1 q 789 111 751 79 q 848 163 826 143 q 869 183 869 183 q 885 190 876 190 q 898 183 893 189 q 903 168 903 176 q 897 153 904 160 q 817 81 861 118 q 728 7 779 49 q 617 -78 676 -35 q 480 -167 546 -128 q 351 -233 414 -206 q 115 -299 218 -293 q 132 -349 132 -322 q 106 -408 132 -381 q 46 -437 81 -435 l 38 -437 l 40 -410 z "},"É":{"ha":1078,"x_min":-189,"x_max":1263,"o":"m 1042 661 q 1033 645 1033 654 q 1036 630 1032 636 q 1048 622 1040 624 q 1064 626 1056 619 q 1089 650 1065 628 q 1136 701 1113 672 q 1185 783 1174 746 q 1185 845 1197 819 q 1138 885 1172 871 q 1051 900 1104 900 q 887 870 968 899 q 733 796 806 842 q 601 690 661 750 q 499 565 540 631 q 454 397 432 458 q 417 374 435 385 q 381 350 400 363 q 239 253 308 304 q 108 152 169 203 q -6 53 46 101 q -96 -36 -58 6 q -142 -94 -117 -60 q -178 -165 -167 -129 q -178 -233 -189 -201 q -117 -281 -168 -264 q 17 -291 -58 -300 q 181 -253 92 -282 q 372 -179 269 -224 q 590 -82 475 -135 q 778 8 690 -36 q 933 89 865 53 q 1046 149 1001 125 q 1103 181 1090 174 q 1113 193 1111 185 q 1110 208 1114 201 q 1099 218 1107 215 q 1079 214 1092 221 q 1021 181 1067 206 q 906 120 975 156 q 752 42 838 85 q 574 -43 667 0 q 360 -140 461 -96 q 173 -213 260 -185 q 17 -251 86 -242 q -103 -240 -53 -260 q -133 -206 -131 -229 q -124 -155 -135 -182 q -94 -103 -112 -128 q -64 -62 -76 -78 q 197 170 60 68 q 478 363 333 272 q 558 329 514 333 q 647 336 603 325 q 733 370 692 347 q 804 417 775 393 q 839 456 828 436 q 850 494 850 476 q 838 523 850 511 q 806 538 826 535 q 726 529 769 542 q 640 498 682 517 q 558 457 597 479 q 492 418 519 435 q 533 542 482 460 q 625 654 569 599 q 749 755 681 710 q 895 828 818 800 q 1051 858 972 857 q 1120 849 1096 858 q 1149 824 1144 840 q 1143 783 1154 807 q 1106 726 1132 758 q 1063 680 1082 699 q 1042 661 1043 661 m 797 496 q 798 478 811 493 q 760 444 785 463 q 711 410 736 426 q 676 390 686 394 q 593 368 638 375 q 514 385 549 361 q 692 473 617 443 q 797 496 767 503 m 1256 1044 q 1251 1040 1254 1042 q 1238 1034 1249 1038 q 1204 1024 1226 1031 q 1142 1006 1182 1017 q 1115 1022 1121 1006 q 1128 1046 1108 1038 l 1231 1076 q 1254 1067 1246 1079 q 1256 1044 1263 1056 z "},"Ê":{"ha":1078,"x_min":-189,"x_max":1261,"o":"m 1060 999 q 1119 1046 1101 1032 q 1147 1068 1136 1060 q 1174 1069 1161 1079 l 1254 997 q 1260 981 1261 990 q 1254 966 1260 972 q 1241 958 1249 960 q 1228 964 1233 957 l 1160 1026 l 1089 968 q 1072 963 1081 961 q 1058 970 1064 964 q 1052 984 1053 976 q 1060 999 1051 992 m 1042 661 q 1033 645 1033 654 q 1036 630 1032 636 q 1048 622 1040 624 q 1064 626 1056 619 q 1089 650 1065 628 q 1136 701 1113 672 q 1185 783 1174 746 q 1185 845 1197 819 q 1138 885 1172 871 q 1051 900 1104 900 q 887 870 968 899 q 733 796 806 842 q 601 690 661 750 q 499 565 540 631 q 454 397 432 458 q 417 374 435 385 q 381 350 400 363 q 239 253 308 304 q 108 152 169 203 q -6 53 46 101 q -96 -36 -58 6 q -142 -94 -117 -60 q -178 -165 -167 -129 q -178 -233 -189 -201 q -117 -281 -168 -264 q 17 -291 -58 -300 q 181 -253 92 -282 q 372 -179 269 -224 q 590 -82 475 -135 q 778 8 690 -36 q 933 89 865 53 q 1046 149 1001 125 q 1103 181 1090 174 q 1113 193 1111 185 q 1110 208 1114 201 q 1099 218 1107 215 q 1079 214 1092 221 q 1021 181 1067 206 q 906 120 975 156 q 752 42 838 85 q 574 -43 667 0 q 360 -140 461 -96 q 173 -213 260 -185 q 17 -251 86 -242 q -103 -240 -53 -260 q -133 -206 -131 -229 q -124 -155 -135 -182 q -94 -103 -112 -128 q -64 -62 -76 -78 q 197 170 60 68 q 478 363 333 272 q 558 329 514 333 q 647 336 603 325 q 733 370 692 347 q 804 417 775 393 q 839 456 828 436 q 850 494 850 476 q 838 523 850 511 q 806 538 826 535 q 726 529 769 542 q 640 498 682 517 q 558 457 597 479 q 492 418 519 435 q 533 542 482 460 q 625 654 569 599 q 749 755 681 710 q 895 828 818 800 q 1051 858 972 857 q 1120 849 1096 858 q 1149 824 1144 840 q 1143 783 1154 807 q 1106 726 1132 758 q 1063 680 1082 699 q 1042 661 1043 661 m 797 496 q 798 478 811 493 q 760 444 785 463 q 711 410 736 426 q 676 390 686 394 q 593 368 638 375 q 514 385 549 361 q 692 473 617 443 q 797 496 767 503 z "},"Ë":{"ha":1078,"x_min":-189,"x_max":1318,"o":"m 1042 661 q 1063 680 1043 661 q 1106 726 1082 699 q 1143 783 1132 758 q 1149 824 1154 807 q 1120 849 1144 840 q 1051 858 1096 858 q 895 828 972 857 q 749 755 818 800 q 625 654 681 710 q 533 542 569 599 q 492 418 482 460 q 558 457 519 435 q 640 498 597 479 q 726 529 682 517 q 806 538 769 542 q 838 523 826 535 q 850 494 850 511 q 839 456 850 476 q 804 417 828 436 q 733 370 775 393 q 647 336 692 347 q 558 329 603 325 q 478 363 514 333 q 197 170 333 272 q -64 -62 60 68 q -94 -103 -76 -78 q -124 -155 -112 -128 q -133 -206 -135 -182 q -103 -240 -131 -229 q 17 -251 -53 -260 q 173 -213 86 -242 q 360 -140 260 -185 q 574 -43 461 -96 q 752 42 667 0 q 906 120 838 85 q 1021 181 975 156 q 1079 214 1067 206 q 1099 218 1092 221 q 1110 208 1107 215 q 1113 193 1114 201 q 1103 181 1111 185 q 1046 149 1090 174 q 933 89 1001 125 q 778 8 865 53 q 590 -82 690 -36 q 372 -179 475 -135 q 181 -253 269 -224 q 17 -291 92 -282 q -117 -281 -58 -300 q -178 -233 -168 -264 q -178 -165 -189 -201 q -142 -94 -167 -129 q -96 -36 -117 -60 q -6 53 -58 6 q 108 152 46 101 q 239 253 169 203 q 381 350 308 304 q 417 374 400 363 q 454 397 435 385 q 499 565 432 458 q 601 690 540 631 q 733 796 661 750 q 887 870 806 842 q 1051 900 968 899 q 1138 885 1104 900 q 1185 845 1172 871 q 1185 783 1197 819 q 1136 701 1174 746 q 1089 650 1113 672 q 1064 626 1065 628 q 1048 622 1056 619 q 1036 630 1040 624 q 1033 645 1032 636 q 1042 661 1033 654 m 797 496 q 692 473 767 503 q 514 385 617 443 q 593 368 549 361 q 676 390 638 375 q 711 410 686 394 q 760 444 736 426 q 798 478 785 463 q 797 496 811 493 m 1288 1065 q 1303 1065 1296 1068 q 1315 1054 1311 1061 q 1317 1040 1318 1047 q 1306 1028 1315 1032 l 1285 1018 q 1270 1019 1278 1015 q 1258 1028 1263 1022 q 1252 1040 1253 1033 q 1258 1050 1251 1046 l 1288 1065 m 1149 1065 q 1165 1065 1157 1068 q 1176 1054 1172 1061 q 1178 1040 1179 1047 q 1167 1028 1176 1032 l 1146 1018 q 1131 1019 1139 1015 q 1119 1028 1124 1022 q 1113 1040 1114 1033 q 1119 1050 1113 1046 l 1149 1065 z "},"Ì":{"ha":374,"x_min":-236,"x_max":763,"o":"m 610 883 l 372 611 q 367 595 365 603 q 374 583 368 588 q 389 577 381 578 q 404 583 397 576 l 517 711 q 410 528 469 631 q 286 318 351 425 q 253 265 281 310 q 186 157 226 219 q 97 24 146 94 q 1 -107 49 -47 q -90 -206 -47 -167 q -160 -246 -132 -246 q -196 -190 -192 -246 q -176 -33 -200 -135 q -161 25 -169 -3 q -145 74 -153 53 q -133 108 -137 94 q -128 121 -128 121 q -128 140 -124 133 q -140 149 -132 147 q -156 148 -147 151 q -168 135 -164 144 q -185 86 -169 132 q -215 -24 -200 40 q -229 -92 -222 -49 q -235 -178 -236 -135 q -219 -253 -235 -221 q -165 -287 -204 -285 q -86 -256 -131 -289 q 6 -168 -42 -222 q 101 -47 54 -114 q 191 85 149 19 q 267 206 233 150 q 321 296 301 263 q 433 484 379 392 q 531 653 488 576 q 606 785 575 731 q 647 861 636 840 q 652 880 654 871 q 644 893 650 889 q 628 895 638 897 q 610 883 618 893 m 740 960 q 725 965 731 960 l 726 965 l 649 1039 q 641 1054 642 1046 q 647 1069 640 1063 q 675 1071 660 1082 l 754 997 q 762 982 761 990 q 756 967 763 974 l 756 968 q 740 960 749 960 z "},"Í":{"ha":374,"x_min":-236,"x_max":749,"o":"m 610 883 l 372 611 q 367 595 365 603 q 374 583 368 588 q 389 577 381 578 q 404 583 397 576 l 517 711 q 410 528 469 631 q 286 318 351 425 q 253 265 281 310 q 186 157 226 219 q 97 24 146 94 q 1 -107 49 -47 q -90 -206 -47 -167 q -160 -246 -132 -246 q -196 -190 -192 -246 q -176 -33 -200 -135 q -161 25 -169 -3 q -145 74 -153 53 q -133 108 -137 94 q -128 121 -128 121 q -128 140 -124 133 q -140 149 -132 147 q -156 148 -147 151 q -168 135 -164 144 q -185 86 -169 132 q -215 -24 -200 40 q -229 -92 -222 -49 q -235 -178 -236 -135 q -219 -253 -235 -221 q -165 -287 -204 -285 q -86 -256 -131 -289 q 6 -168 -42 -222 q 101 -47 54 -114 q 191 85 149 19 q 267 206 233 150 q 321 296 301 263 q 433 484 379 392 q 531 653 488 576 q 606 785 575 731 q 647 861 636 840 q 652 880 654 871 q 644 893 650 889 q 628 895 638 897 q 610 883 618 893 m 742 1042 q 738 1037 740 1039 q 724 1031 735 1035 q 690 1021 713 1028 q 628 1003 668 1014 q 601 1019 607 1003 q 614 1043 594 1035 l 717 1074 q 740 1065 732 1076 q 742 1042 749 1053 z "},"Î":{"ha":374,"x_min":-236,"x_max":761,"o":"m 610 883 l 372 611 q 367 595 365 603 q 374 583 368 588 q 389 577 381 578 q 404 583 397 576 l 517 711 q 410 528 469 631 q 286 318 351 425 q 253 265 281 310 q 186 157 226 219 q 97 24 146 94 q 1 -107 49 -47 q -90 -206 -47 -167 q -160 -246 -132 -246 q -196 -190 -192 -246 q -176 -33 -200 -135 q -161 25 -169 -3 q -145 74 -153 53 q -133 108 -137 94 q -128 121 -128 121 q -128 140 -124 133 q -140 149 -132 147 q -156 148 -147 151 q -168 135 -164 144 q -185 86 -169 132 q -215 -24 -200 40 q -229 -92 -222 -49 q -235 -178 -236 -135 q -219 -253 -235 -221 q -165 -287 -204 -285 q -86 -256 -131 -289 q 6 -168 -42 -222 q 101 -47 54 -114 q 191 85 149 19 q 267 206 233 150 q 321 296 301 263 q 433 484 379 392 q 531 653 488 576 q 606 785 575 731 q 647 861 636 840 q 652 880 654 871 q 644 893 650 889 q 628 895 638 897 q 610 883 618 893 m 560 999 q 619 1046 601 1032 q 647 1068 636 1060 q 674 1069 661 1079 l 754 997 q 760 981 761 990 q 754 966 760 972 q 741 958 749 960 q 728 964 733 957 l 660 1026 l 589 968 q 572 963 581 961 q 558 970 564 964 q 552 984 553 976 q 560 999 551 992 z "},"Ð":{"ha":1085,"x_min":-303,"x_max":1167,"o":"m 1140 256 q 1157 253 1150 258 q 1165 241 1164 249 q 1163 225 1167 233 q 1150 214 1160 217 q 1108 203 1146 213 q 1017 183 1069 194 q 908 158 965 171 q 810 135 851 144 q 700 44 763 89 q 567 -43 638 0 q 422 -120 499 -83 q 271 -189 346 -157 q 128 -238 204 -215 q -11 -275 51 -261 q -75 -288 -35 -281 q -158 -298 -115 -296 q -237 -291 -200 -300 q -290 -254 -274 -282 q -294 -213 -303 -233 q -263 -174 -285 -193 q -212 -140 -242 -156 q -153 -110 -183 -124 q -98 -87 -124 -97 q -58 -72 -72 -78 l 4 -50 q 0 -37 1 -43 q 8 -21 -1 -31 q 30 9 7 -22 q 92 94 53 40 q 185 219 132 149 q 294 368 238 290 l 94 368 q 79 374 85 368 q 74 389 74 381 q 78 403 74 397 q 94 410 83 410 l 325 410 q 451 583 389 497 q 566 738 514 668 q 653 857 618 808 q 697 918 689 906 q 711 928 703 926 q 726 925 719 929 q 736 914 733 921 q 735 899 739 907 q 717 876 732 896 q 679 825 701 856 q 631 760 657 794 q 583 693 606 725 q 542 637 560 661 q 521 606 525 613 l 583 665 q 712 771 647 725 q 831 846 776 817 q 1004 899 928 899 q 1107 858 1071 899 q 1143 749 1143 818 q 1126 629 1143 696 q 1074 490 1108 563 q 988 340 1039 417 q 868 190 936 263 l 1140 256 m 254 -149 q 516 -26 396 -93 q 726 114 636 40 q 563 72 651 94 q 382 25 474 49 q 145 -46 254 -11 q -43 -110 36 -81 q -147 -153 -107 -135 q -211 -187 -187 -172 q -244 -212 -235 -201 q -257 -228 -254 -222 q -254 -240 -260 -235 q -241 -247 -249 -244 q -225 -252 -233 -250 q -212 -254 -217 -254 q -127 -253 -178 -258 q -15 -234 -76 -247 q 115 -199 46 -221 q 254 -149 183 -178 m 789 171 q 951 362 892 269 q 1042 518 1010 454 q 1086 643 1069 582 q 1103 749 1103 704 q 1079 826 1103 793 q 1003 858 1056 858 q 831 799 932 858 q 611 635 729 740 q 503 533 558 592 q 396 410 449 475 l 579 410 q 594 403 589 410 q 600 389 600 397 q 594 374 600 381 q 579 368 589 368 l 361 368 q 263 241 310 304 q 176 124 215 178 q 104 28 136 69 q 53 -32 72 -12 q 371 64 193 15 q 596 124 489 96 q 789 171 703 151 z "},"Ñ":{"ha":1010,"x_min":-135,"x_max":1214,"o":"m 336 557 q 321 563 326 557 q 314 577 314 568 q 319 593 314 586 l 594 883 q 615 895 604 893 q 633 894 625 897 q 647 883 642 890 q 650 868 651 876 q 645 846 649 860 q 631 806 642 832 q 600 741 621 781 q 544 643 579 701 q 411 438 481 539 q 269 231 342 338 q 356 319 311 275 q 449 411 401 364 q 800 717 654 611 q 901 784 847 751 q 1002 833 954 817 q 1088 842 1050 849 q 1142 789 1125 835 q 1135 707 1153 758 q 1074 588 1118 656 q 995 476 1042 538 q 904 356 949 414 l 881 325 q 773 183 826 256 q 681 51 719 111 q 658 12 674 40 q 633 -47 643 -17 q 628 -100 624 -76 q 669 -124 633 -124 q 720 -112 692 -124 q 780 -81 749 -100 q 845 -37 811 -62 q 911 13 879 -12 q 971 63 942 38 q 1023 108 1000 88 q 1060 142 1046 129 q 1075 157 1074 156 q 1092 164 1083 165 q 1106 156 1101 163 q 1112 141 1111 150 q 1104 125 1113 132 q 1088 110 1103 124 q 1050 76 1074 97 q 997 30 1026 56 q 936 -21 967 4 q 779 -126 849 -90 q 665 -161 710 -161 q 609 -140 633 -161 q 585 -83 585 -119 q 646 75 585 -26 q 738 208 685 138 q 849 350 792 279 q 951 485 899 417 q 1040 610 1003 553 q 1093 711 1076 669 q 1103 772 1110 753 q 1081 795 1099 790 q 1043 797 1064 800 q 1002 786 1022 793 q 971 775 982 779 q 824 682 906 743 q 665 553 753 631 q 476 381 576 476 q 288 181 374 281 q 131 -8 201 81 q 7 -169 61 -97 q -86 -286 -47 -242 q -99 -290 -90 -292 q -117 -282 -108 -287 q -130 -269 -125 -276 q -131 -258 -135 -262 q -89 -203 -115 -240 q -28 -119 -62 -167 q 46 -15 6 -71 q 127 101 86 42 q 208 217 168 160 q 285 326 249 275 q 414 514 358 429 q 510 665 469 599 q 561 756 543 719 q 588 815 579 792 l 350 564 q 336 557 346 560 m 890 1050 q 906 1059 892 1050 q 942 1075 919 1068 q 996 1082 965 1082 q 1061 1067 1026 1082 q 1118 1049 1094 1051 q 1157 1051 1142 1047 q 1180 1063 1172 1056 q 1190 1071 1188 1069 q 1207 1065 1200 1079 q 1208 1042 1214 1050 q 1197 1032 1207 1040 q 1169 1017 1188 1024 q 1121 1013 1150 1011 q 1053 1033 1092 1014 q 996 1045 1022 1046 q 949 1038 969 1044 q 918 1024 929 1032 q 906 1015 907 1015 q 896 1016 900 1013 q 889 1026 892 1019 q 886 1039 886 1032 q 890 1050 886 1046 z "},"Ò":{"ha":803,"x_min":32,"x_max":1182,"o":"m 240 -286 q 112 -256 157 -285 q 49 -180 67 -228 q 40 -69 32 -132 q 71 64 47 -6 q 130 205 94 133 q 204 342 165 276 q 281 463 243 408 q 346 554 318 518 q 454 677 399 619 q 567 783 510 735 q 684 872 628 836 q 793 926 740 907 q 908 947 849 947 q 1014 910 967 947 q 1085 910 1050 917 q 1144 876 1121 904 q 1174 753 1182 833 q 1111 561 1165 674 q 989 354 1064 463 q 822 143 914 246 q 681 -6 757 71 q 528 -144 606 -82 q 376 -247 450 -207 q 240 -286 301 -286 m 807 888 q 706 836 758 869 q 598 756 653 803 q 488 652 543 710 q 379 528 432 594 q 278 385 326 461 q 192 233 229 308 q 129 88 154 157 q 99 -33 104 18 q 99 -144 89 -101 q 133 -208 108 -186 q 192 -233 157 -229 q 267 -230 228 -237 q 348 -206 307 -222 q 425 -168 389 -189 q 510 -108 464 -146 q 603 -24 556 -69 q 700 72 651 22 q 792 171 749 122 q 954 377 881 271 q 1074 579 1028 483 q 1131 747 1121 679 q 1132 792 1133 769 q 1122 832 1131 814 q 1098 861 1114 850 q 1057 872 1082 872 q 743 710 950 875 q 669 648 703 678 q 608 594 635 618 q 567 556 582 571 q 551 542 551 542 q 537 535 544 533 q 524 542 529 536 q 517 556 518 547 q 522 571 515 564 q 538 586 522 571 q 580 626 554 601 q 641 681 606 650 q 717 743 676 711 q 849 838 788 800 q 960 894 910 875 q 883 906 924 911 q 807 888 842 900 m 1065 969 q 1050 975 1056 969 l 1051 975 l 974 1049 q 966 1064 967 1056 q 972 1079 965 1072 q 1000 1081 985 1092 l 1079 1007 q 1087 992 1086 1000 q 1081 976 1088 983 l 1081 978 q 1065 969 1074 969 z "},"Ó":{"ha":803,"x_min":32,"x_max":1182,"o":"m 240 -286 q 112 -256 157 -285 q 49 -180 67 -228 q 40 -69 32 -132 q 71 64 47 -6 q 130 205 94 133 q 204 342 165 276 q 281 463 243 408 q 346 554 318 518 q 454 677 399 619 q 567 783 510 735 q 684 872 628 836 q 793 926 740 907 q 908 947 849 947 q 1014 910 967 947 q 1085 910 1050 917 q 1144 876 1121 904 q 1174 753 1182 833 q 1111 561 1165 674 q 989 354 1064 463 q 822 143 914 246 q 681 -6 757 71 q 528 -144 606 -82 q 376 -247 450 -207 q 240 -286 301 -286 m 807 888 q 706 836 758 869 q 598 756 653 803 q 488 652 543 710 q 379 528 432 594 q 278 385 326 461 q 192 233 229 308 q 129 88 154 157 q 99 -33 104 18 q 99 -144 89 -101 q 133 -208 108 -186 q 192 -233 157 -229 q 267 -230 228 -237 q 348 -206 307 -222 q 425 -168 389 -189 q 510 -108 464 -146 q 603 -24 556 -69 q 700 72 651 22 q 792 171 749 122 q 954 377 881 271 q 1074 579 1028 483 q 1131 747 1121 679 q 1132 792 1133 769 q 1122 832 1131 814 q 1098 861 1114 850 q 1057 872 1082 872 q 743 710 950 875 q 669 648 703 678 q 608 594 635 618 q 567 556 582 571 q 551 542 551 542 q 537 535 544 533 q 524 542 529 536 q 517 556 518 547 q 522 571 515 564 q 538 586 522 571 q 580 626 554 601 q 641 681 606 650 q 717 743 676 711 q 849 838 788 800 q 960 894 910 875 q 883 906 924 911 q 807 888 842 900 m 1117 1042 q 1113 1037 1115 1039 q 1099 1031 1110 1035 q 1065 1021 1088 1028 q 1003 1003 1043 1014 q 976 1019 982 1003 q 989 1043 969 1035 l 1092 1074 q 1115 1065 1107 1076 q 1117 1042 1124 1053 z "},"Ô":{"ha":803,"x_min":32,"x_max":1182,"o":"m 240 -286 q 112 -256 157 -285 q 49 -180 67 -228 q 40 -69 32 -132 q 71 64 47 -6 q 130 205 94 133 q 204 342 165 276 q 281 463 243 408 q 346 554 318 518 q 454 677 399 619 q 567 783 510 735 q 684 872 628 836 q 793 926 740 907 q 908 947 849 947 q 1014 910 967 947 q 1085 910 1050 917 q 1144 876 1121 904 q 1174 753 1182 833 q 1111 561 1165 674 q 989 354 1064 463 q 822 143 914 246 q 681 -6 757 71 q 528 -144 606 -82 q 376 -247 450 -207 q 240 -286 301 -286 m 807 888 q 706 836 758 869 q 598 756 653 803 q 488 652 543 710 q 379 528 432 594 q 278 385 326 461 q 192 233 229 308 q 129 88 154 157 q 99 -33 104 18 q 99 -144 89 -101 q 133 -208 108 -186 q 192 -233 157 -229 q 267 -230 228 -237 q 348 -206 307 -222 q 425 -168 389 -189 q 510 -108 464 -146 q 603 -24 556 -69 q 700 72 651 22 q 792 171 749 122 q 954 377 881 271 q 1074 579 1028 483 q 1131 747 1121 679 q 1132 792 1133 769 q 1122 832 1131 814 q 1098 861 1114 850 q 1057 872 1082 872 q 743 710 950 875 q 669 648 703 678 q 608 594 635 618 q 567 556 582 571 q 551 542 551 542 q 537 535 544 533 q 524 542 529 536 q 517 556 518 547 q 522 571 515 564 q 538 586 522 571 q 580 626 554 601 q 641 681 606 650 q 717 743 676 711 q 849 838 788 800 q 960 894 910 875 q 883 906 924 911 q 807 888 842 900 m 1135 1065 q 1151 1065 1143 1068 q 1162 1054 1158 1061 q 1164 1040 1165 1047 q 1153 1028 1163 1032 l 1132 1018 q 1117 1019 1125 1015 q 1105 1028 1110 1022 q 1099 1040 1100 1033 q 1106 1050 1099 1046 l 1135 1065 m 996 1065 q 1012 1065 1004 1068 q 1023 1054 1019 1061 q 1025 1040 1026 1047 q 1014 1028 1024 1032 l 993 1018 q 978 1019 986 1015 q 966 1028 971 1022 q 960 1040 961 1033 q 967 1050 960 1046 l 996 1065 z "},"Õ":{"ha":803,"x_min":32,"x_max":1186,"o":"m 240 -286 q 112 -256 157 -285 q 49 -180 67 -228 q 40 -69 32 -132 q 71 64 47 -6 q 130 205 94 133 q 204 342 165 276 q 281 463 243 408 q 346 554 318 518 q 454 677 399 619 q 567 783 510 735 q 684 872 628 836 q 793 926 740 907 q 908 947 849 947 q 1014 910 967 947 q 1085 910 1050 917 q 1144 876 1121 904 q 1174 753 1182 833 q 1111 561 1165 674 q 989 354 1064 463 q 822 143 914 246 q 681 -6 757 71 q 528 -144 606 -82 q 376 -247 450 -207 q 240 -286 301 -286 m 807 888 q 706 836 758 869 q 598 756 653 803 q 488 652 543 710 q 379 528 432 594 q 278 385 326 461 q 192 233 229 308 q 129 88 154 157 q 99 -33 104 18 q 99 -144 89 -101 q 133 -208 108 -186 q 192 -233 157 -229 q 267 -230 228 -237 q 348 -206 307 -222 q 425 -168 389 -189 q 510 -108 464 -146 q 603 -24 556 -69 q 700 72 651 22 q 792 171 749 122 q 954 377 881 271 q 1074 579 1028 483 q 1131 747 1121 679 q 1132 792 1133 769 q 1122 832 1131 814 q 1098 861 1114 850 q 1057 872 1082 872 q 743 710 950 875 q 669 648 703 678 q 608 594 635 618 q 567 556 582 571 q 551 542 551 542 q 537 535 544 533 q 524 542 529 536 q 517 556 518 547 q 522 571 515 564 q 538 586 522 571 q 580 626 554 601 q 641 681 606 650 q 717 743 676 711 q 849 838 788 800 q 960 894 910 875 q 883 906 924 911 q 807 888 842 900 m 863 1049 q 878 1058 864 1049 q 915 1074 892 1067 q 968 1081 938 1081 q 1033 1065 999 1081 q 1090 1048 1067 1050 q 1129 1050 1114 1046 q 1152 1061 1144 1054 q 1163 1069 1160 1068 q 1179 1063 1172 1078 q 1181 1040 1186 1049 q 1169 1031 1179 1039 q 1141 1016 1160 1022 q 1093 1011 1122 1010 q 1025 1032 1064 1013 q 968 1044 994 1044 q 922 1037 942 1043 q 890 1022 901 1031 q 878 1014 879 1014 q 868 1015 872 1011 q 861 1024 864 1018 q 858 1038 858 1031 q 863 1049 858 1044 z "},"Ø":{"ha":1018,"x_min":-49,"x_max":1197,"o":"m 1182 1067 q 1185 1038 1197 1054 l 1092 926 q 1138 863 1119 900 q 1156 735 1160 810 q 1124 592 1151 669 q 1049 426 1097 514 q 959 281 1010 356 q 847 136 908 207 q 724 1 788 65 q 596 -115 661 -62 q 464 -212 528 -172 q 342 -275 400 -253 q 213 -304 271 -304 q 125 -283 163 -304 q 97 -267 108 -276 l -6 -390 q -21 -397 -10 -397 q -35 -393 -29 -397 q -37 -362 -49 -379 l 67 -239 q 43 -206 53 -222 q 17 -97 17 -157 q 79 158 13 13 q 151 297 108 225 q 246 440 193 368 q 360 581 300 513 q 484 708 421 649 q 611 815 547 767 q 733 899 675 864 q 822 947 782 928 q 901 974 861 965 q 1053 954 992 990 q 1058 951 1058 951 l 1153 1065 q 1182 1067 1165 1081 m 58 -96 q 94 -206 58 -162 l 1031 919 q 956 938 999 938 q 847 915 903 938 q 746 865 792 893 q 628 783 689 831 q 508 678 568 736 q 390 554 449 621 q 281 417 332 488 q 113 133 171 267 q 58 -96 56 0 m 1114 738 q 1064 894 1121 840 l 124 -235 l 144 -247 q 326 -236 211 -282 q 442 -176 381 -215 q 569 -83 504 -137 q 697 33 633 -31 q 817 165 760 96 q 924 305 874 233 q 1013 446 974 376 q 1114 738 1106 615 z "},"":{"ha":1764,"x_min":-10,"x_max":1875,"o":"m 971 413 q 898 345 940 389 q 806 251 856 301 q 703 149 757 200 q 595 60 649 99 q 491 4 542 22 q 397 1 440 -14 q 365 25 376 8 q 351 62 354 42 q 350 104 347 82 q 360 146 353 126 q 249 65 292 93 q 176 22 206 36 q 112 -2 147 7 q 42 1 76 -11 q -4 71 0 19 q 43 241 -10 153 q 186 440 96 329 q 201 447 192 446 q 217 445 210 447 q 230 440 225 443 q 232 432 235 436 q 166 347 201 394 q 100 251 131 300 q 51 155 69 201 q 36 72 32 108 q 58 39 39 46 q 149 57 89 26 q 300 151 208 88 q 363 203 335 176 q 420 263 392 229 q 481 338 449 296 q 557 435 514 379 q 574 444 565 444 q 590 440 583 444 q 597 428 596 436 q 593 413 599 419 q 542 349 569 383 q 486 278 514 314 q 435 208 458 243 q 400 141 413 172 q 390 83 388 110 q 414 39 392 57 q 502 53 450 26 q 612 125 554 79 q 728 228 669 171 q 836 336 786 286 q 924 420 886 386 q 976 453 961 454 l 1185 451 l 1188 451 q 1206 436 1203 451 q 1216 414 1207 433 q 1238 365 1225 394 q 1267 301 1251 336 q 1299 235 1283 267 q 1328 176 1315 203 q 1350 138 1342 150 l 1718 431 q 1733 435 1725 436 q 1746 427 1740 433 q 1751 413 1751 421 q 1744 397 1751 404 l 1372 103 q 1436 42 1404 56 q 1504 41 1468 29 q 1584 85 1540 53 q 1683 161 1628 118 q 1743 210 1715 186 q 1792 252 1771 233 q 1826 282 1814 271 q 1839 293 1839 293 q 1854 299 1846 300 q 1868 293 1863 299 q 1874 279 1874 288 q 1867 264 1875 271 q 1854 251 1867 264 q 1820 220 1842 239 q 1770 177 1799 201 q 1710 128 1742 153 q 1620 60 1668 96 q 1524 8 1572 25 q 1428 2 1475 -10 q 1340 76 1381 14 l 971 -222 q 956 -227 964 -229 q 943 -219 949 -225 q 938 -204 938 -212 q 944 -189 938 -196 l 1317 111 q 1285 169 1304 129 q 1244 256 1265 210 q 1203 344 1222 301 q 1171 413 1183 388 l 971 413 l 971 413 z "},"":{"ha":1358,"x_min":-21,"x_max":1469,"o":"m 596 407 q 500 302 549 357 q 399 195 451 247 q 288 99 346 143 q 163 24 229 54 q 99 -1 133 8 q 29 3 64 -10 q -8 35 6 14 q -21 85 -21 57 q 3 177 -21 126 q 61 278 26 228 q 134 376 96 329 q 200 457 172 422 q 217 469 207 467 q 235 468 226 471 q 247 460 243 465 q 247 449 251 454 q 213 406 233 431 q 169 351 192 381 q 123 290 146 322 q 81 228 100 258 q 46 163 60 194 q 26 106 32 131 q 25 63 21 81 q 46 40 29 46 q 138 56 76 28 q 288 153 200 85 q 374 229 328 183 q 460 319 419 275 q 533 399 501 364 q 575 446 564 435 q 606 446 592 446 q 640 447 619 446 q 696 447 661 447 q 792 447 731 447 q 820 394 800 436 q 863 303 840 353 q 908 206 886 253 q 944 138 931 160 l 1313 431 q 1327 435 1319 436 q 1340 427 1335 433 q 1346 413 1346 421 q 1339 397 1346 404 l 967 103 q 1031 42 999 56 q 1099 41 1063 29 q 1178 85 1135 53 q 1278 161 1222 118 q 1338 210 1310 186 q 1387 252 1365 233 q 1421 282 1408 271 q 1433 293 1433 293 q 1449 299 1440 300 q 1463 293 1457 299 q 1469 279 1468 288 q 1461 264 1469 271 q 1449 251 1461 264 q 1415 220 1436 239 q 1365 177 1393 201 q 1304 128 1336 153 q 1215 60 1263 96 q 1118 8 1167 25 q 1022 2 1069 -10 q 935 76 975 14 l 565 -222 q 551 -227 558 -229 q 538 -219 543 -225 q 532 -204 532 -212 q 539 -189 532 -196 l 911 111 q 878 169 899 129 q 835 254 857 210 q 792 341 813 299 q 760 407 771 383 l 596 407 l 596 407 z "},"Ù":{"ha":1286,"x_min":-33,"x_max":1375,"o":"m 275 550 l 582 797 q 601 806 590 806 q 619 801 611 806 q 631 786 628 796 q 625 765 633 776 q 568 689 604 738 q 494 590 532 640 q 424 499 457 540 q 376 440 390 457 q 303 355 342 400 q 226 265 264 310 q 155 176 189 219 q 94 96 121 133 q 69 60 85 82 q 40 13 54 38 q 17 -37 26 -12 q 10 -83 8 -62 q 30 -114 13 -103 q 86 -124 47 -125 q 207 -93 136 -119 q 273 -65 236 -82 q 350 -26 310 -47 q 433 19 390 -6 q 517 68 475 43 q 654 157 588 111 q 776 242 721 203 q 869 309 831 281 q 922 349 907 338 l 1235 743 q 1285 807 1258 775 q 1336 871 1313 839 q 1353 882 1344 881 q 1367 879 1361 883 q 1374 867 1374 875 q 1369 851 1375 860 l 1232 676 l 936 299 q 796 118 864 207 q 679 -46 728 29 q 638 -118 656 -86 q 611 -176 621 -150 q 604 -229 599 -212 q 628 -249 610 -246 q 714 -233 665 -254 q 815 -176 763 -212 q 922 -94 868 -140 q 1027 -1 976 -47 q 1120 87 1078 46 q 1193 154 1163 128 q 1212 163 1203 163 q 1226 160 1221 164 q 1232 148 1232 156 q 1224 132 1232 140 q 1183 90 1218 126 q 1092 3 1147 54 q 971 -103 1038 -47 q 838 -206 904 -160 q 709 -277 771 -251 q 604 -293 647 -303 q 572 -271 583 -287 q 560 -221 560 -254 q 587 -124 560 -172 q 644 -24 614 -76 q 727 95 681 32 q 825 225 774 158 q 693 133 767 183 q 540 33 619 83 q 365 -67 446 -25 q 222 -132 285 -110 q 156 -154 192 -143 q 74 -165 119 -165 q 37 -160 56 -165 q 2 -146 18 -156 q -24 -121 -14 -136 q -33 -83 -33 -106 q -8 3 -33 -50 q 61 119 17 56 q 124 202 89 158 q 196 291 158 246 q 272 381 233 336 q 344 465 310 425 q 449 590 397 528 q 550 719 501 653 l 301 517 q 285 514 293 511 q 272 523 276 517 q 267 537 267 529 q 275 550 267 544 m 1029 961 q 1014 967 1019 961 l 1015 967 l 938 1040 q 930 1056 931 1047 q 936 1071 929 1064 q 964 1072 949 1083 l 1043 999 q 1051 983 1050 992 q 1044 968 1051 975 l 1044 969 q 1029 961 1038 961 z "},"Ú":{"ha":1286,"x_min":-33,"x_max":1375,"o":"m 275 550 l 582 797 q 601 806 590 806 q 619 801 611 806 q 631 786 628 796 q 625 765 633 776 q 568 689 604 738 q 494 590 532 640 q 424 499 457 540 q 376 440 390 457 q 303 355 342 400 q 226 265 264 310 q 155 176 189 219 q 94 96 121 133 q 69 60 85 82 q 40 13 54 38 q 17 -37 26 -12 q 10 -83 8 -62 q 30 -114 13 -103 q 86 -124 47 -125 q 207 -93 136 -119 q 273 -65 236 -82 q 350 -26 310 -47 q 433 19 390 -6 q 517 68 475 43 q 654 157 588 111 q 776 242 721 203 q 869 309 831 281 q 922 349 907 338 l 1235 743 q 1285 807 1258 775 q 1336 871 1313 839 q 1353 882 1344 881 q 1367 879 1361 883 q 1374 867 1374 875 q 1369 851 1375 860 l 1232 676 l 936 299 q 796 118 864 207 q 679 -46 728 29 q 638 -118 656 -86 q 611 -176 621 -150 q 604 -229 599 -212 q 628 -249 610 -246 q 714 -233 665 -254 q 815 -176 763 -212 q 922 -94 868 -140 q 1027 -1 976 -47 q 1120 87 1078 46 q 1193 154 1163 128 q 1212 163 1203 163 q 1226 160 1221 164 q 1232 148 1232 156 q 1224 132 1232 140 q 1183 90 1218 126 q 1092 3 1147 54 q 971 -103 1038 -47 q 838 -206 904 -160 q 709 -277 771 -251 q 604 -293 647 -303 q 572 -271 583 -287 q 560 -221 560 -254 q 587 -124 560 -172 q 644 -24 614 -76 q 727 95 681 32 q 825 225 774 158 q 693 133 767 183 q 540 33 619 83 q 365 -67 446 -25 q 222 -132 285 -110 q 156 -154 192 -143 q 74 -165 119 -165 q 37 -160 56 -165 q 2 -146 18 -156 q -24 -121 -14 -136 q -33 -83 -33 -106 q -8 3 -33 -50 q 61 119 17 56 q 124 202 89 158 q 196 291 158 246 q 272 381 233 336 q 344 465 310 425 q 449 590 397 528 q 550 719 501 653 l 301 517 q 285 514 293 511 q 272 523 276 517 q 267 537 267 529 q 275 550 267 544 m 1117 1042 q 1113 1037 1115 1039 q 1099 1031 1110 1035 q 1065 1021 1088 1028 q 1003 1003 1043 1014 q 976 1019 982 1003 q 989 1043 969 1035 l 1092 1074 q 1115 1065 1107 1076 q 1117 1042 1124 1053 z "},"Û":{"ha":1286,"x_min":-33,"x_max":1375,"o":"m 275 550 l 582 797 q 601 806 590 806 q 619 801 611 806 q 631 786 628 796 q 625 765 633 776 q 568 689 604 738 q 494 590 532 640 q 424 499 457 540 q 376 440 390 457 q 303 355 342 400 q 226 265 264 310 q 155 176 189 219 q 94 96 121 133 q 69 60 85 82 q 40 13 54 38 q 17 -37 26 -12 q 10 -83 8 -62 q 30 -114 13 -103 q 86 -124 47 -125 q 207 -93 136 -119 q 273 -65 236 -82 q 350 -26 310 -47 q 433 19 390 -6 q 517 68 475 43 q 654 157 588 111 q 776 242 721 203 q 869 309 831 281 q 922 349 907 338 l 1235 743 q 1285 807 1258 775 q 1336 871 1313 839 q 1353 882 1344 881 q 1367 879 1361 883 q 1374 867 1374 875 q 1369 851 1375 860 l 1232 676 l 936 299 q 796 118 864 207 q 679 -46 728 29 q 638 -118 656 -86 q 611 -176 621 -150 q 604 -229 599 -212 q 628 -249 610 -246 q 714 -233 665 -254 q 815 -176 763 -212 q 922 -94 868 -140 q 1027 -1 976 -47 q 1120 87 1078 46 q 1193 154 1163 128 q 1212 163 1203 163 q 1226 160 1221 164 q 1232 148 1232 156 q 1224 132 1232 140 q 1183 90 1218 126 q 1092 3 1147 54 q 971 -103 1038 -47 q 838 -206 904 -160 q 709 -277 771 -251 q 604 -293 647 -303 q 572 -271 583 -287 q 560 -221 560 -254 q 587 -124 560 -172 q 644 -24 614 -76 q 727 95 681 32 q 825 225 774 158 q 693 133 767 183 q 540 33 619 83 q 365 -67 446 -25 q 222 -132 285 -110 q 156 -154 192 -143 q 74 -165 119 -165 q 37 -160 56 -165 q 2 -146 18 -156 q -24 -121 -14 -136 q -33 -83 -33 -106 q -8 3 -33 -50 q 61 119 17 56 q 124 202 89 158 q 196 291 158 246 q 272 381 233 336 q 344 465 310 425 q 449 590 397 528 q 550 719 501 653 l 301 517 q 285 514 293 511 q 272 523 276 517 q 267 537 267 529 q 275 550 267 544 m 838 1010 q 897 1057 879 1043 q 925 1079 914 1071 q 951 1081 939 1090 l 1032 1008 q 1038 992 1039 1001 q 1032 977 1038 983 q 1019 969 1026 971 q 1006 975 1011 968 l 938 1038 l 867 979 q 850 974 858 972 q 836 981 842 975 q 830 995 831 988 q 838 1010 829 1003 z "},"Ý":{"ha":806,"x_min":10,"x_max":1001,"o":"m 957 883 q 817 725 879 799 q 698 587 754 651 q 589 465 642 522 q 479 356 536 407 q 424 307 457 335 q 354 251 392 279 q 276 197 317 222 q 199 158 236 172 q 131 145 163 144 q 78 168 99 146 q 54 247 54 197 q 65 349 54 296 q 92 450 76 401 q 117 526 108 499 q 157 635 136 583 q 195 728 178 688 q 224 794 213 769 q 235 818 235 818 q 235 834 239 826 q 226 845 232 842 q 212 848 219 849 q 199 840 204 847 l 46 643 q 41 627 39 635 q 49 615 43 619 q 64 610 56 610 q 78 618 72 610 l 133 689 q 106 618 119 656 q 78 540 92 581 q 47 442 64 499 q 19 328 29 386 q 14 219 10 271 q 47 139 18 168 q 121 105 78 107 q 214 123 164 103 q 320 180 264 143 q 433 265 376 217 q 553 374 493 315 q 667 490 613 432 q 767 599 721 547 q 847 688 814 650 q 799 605 825 650 q 746 511 774 560 q 690 413 718 463 q 633 318 661 364 q 601 265 628 310 q 533 157 574 219 q 444 24 493 94 q 348 -107 396 -47 q 258 -206 300 -167 q 188 -246 215 -246 q 151 -190 156 -246 q 171 -33 147 -135 q 183 14 178 -3 q 190 39 188 31 q 194 49 193 47 q 194 51 194 51 q 194 71 199 64 q 183 80 190 78 q 167 78 175 82 q 154 65 158 75 q 153 62 154 64 q 149 51 151 60 q 143 26 147 43 q 132 -24 139 8 q 118 -92 125 -49 q 112 -178 111 -135 q 128 -253 113 -221 q 182 -287 143 -285 q 261 -256 217 -289 q 353 -168 306 -222 q 449 -47 401 -114 q 538 85 496 19 q 615 206 581 150 q 668 296 649 263 q 781 484 726 392 q 878 653 835 576 q 953 785 922 731 q 994 861 983 840 q 999 880 1001 871 q 991 893 997 889 q 975 895 985 897 q 957 883 965 893 m 617 1042 q 613 1037 615 1039 q 599 1031 610 1035 q 565 1021 588 1028 q 503 1003 543 1014 q 476 1019 482 1003 q 489 1043 469 1035 l 592 1074 q 615 1065 607 1076 q 617 1042 624 1053 z "},"÷":{"ha":1246,"x_min":408,"x_max":879,"o":"m 858 349 q 879 328 879 349 q 874 313 879 319 q 858 307 868 307 l 429 307 q 414 313 419 307 q 408 328 408 319 q 429 349 408 349 l 858 349 m 668 201 l 654 132 l 590 132 l 601 201 l 668 201 m 694 510 l 681 440 l 617 440 l 628 510 l 694 510 z "},"ø":{"ha":489,"x_min":-19,"x_max":679,"o":"m 33 -79 q 21 -85 29 -85 q 6 -81 13 -85 q -3 -70 0 -76 q -1 -56 -6 -64 l 39 10 q 0 34 13 17 q -16 73 -12 51 q -15 117 -19 94 q -3 160 -11 140 q 38 237 13 196 q 99 318 63 278 q 163 383 129 353 q 231 436 196 414 q 299 470 265 458 q 361 481 332 482 l 400 539 q 413 547 406 547 q 427 543 421 547 q 435 531 433 539 q 433 515 438 524 l 403 468 q 441 424 431 451 q 444 364 451 396 q 418 294 438 329 q 483 301 447 289 q 547 329 518 314 q 620 372 590 350 q 650 394 650 393 q 663 398 656 400 q 674 391 669 396 q 678 379 678 386 q 672 367 679 372 q 639 343 669 365 q 564 299 608 321 q 485 265 529 279 q 400 263 442 250 q 318 160 369 213 q 267 111 294 136 q 212 65 240 86 q 152 29 183 44 q 89 10 121 14 l 33 -79 m 129 290 q 73 215 97 253 q 36 144 49 178 q 28 114 32 132 q 26 81 24 96 q 36 56 28 65 q 65 49 44 46 l 332 438 q 232 385 288 426 q 129 290 176 343 m 288 189 q 329 236 311 213 q 363 282 347 260 q 342 314 351 293 q 336 371 333 335 l 129 67 q 207 117 165 86 q 288 189 249 149 m 382 314 q 397 340 390 322 q 406 377 404 358 q 403 412 408 396 q 383 432 399 428 q 376 403 379 419 q 371 371 372 388 q 372 339 369 354 q 382 314 374 324 z "},"ÿ":{"ha":546,"x_min":-282,"x_max":697,"o":"m 38 32 q 3 44 17 32 q -15 75 -10 57 q 81 300 -31 140 q 119 355 100 329 q 155 400 139 381 q 181 432 171 419 q 190 444 190 444 q 206 451 197 451 q 219 445 214 450 q 226 432 225 440 q 222 417 228 424 l 188 375 q 153 330 172 356 q 115 276 135 304 q 62 194 81 228 q 35 137 43 160 q 26 102 26 114 q 26 85 25 90 q 47 74 29 71 q 85 86 64 76 q 123 106 106 96 q 143 119 140 117 q 311 247 214 165 q 393 318 354 283 q 462 381 432 353 q 510 426 492 408 q 529 444 528 443 q 543 453 535 453 q 558 448 551 453 q 566 435 564 443 q 563 421 568 428 q 483 309 542 392 q 336 108 424 226 q 462 197 403 156 q 566 267 521 238 q 638 315 611 297 q 665 333 664 333 q 681 335 674 338 q 693 326 689 332 q 697 312 697 319 q 688 299 696 304 q 646 271 683 296 q 548 205 608 246 q 410 110 488 164 q 250 -4 333 56 l 231 -29 q 88 -206 154 -128 q -31 -342 22 -283 q -110 -422 -76 -392 q -167 -468 -143 -451 q -206 -490 -190 -485 q -235 -497 -222 -496 q -270 -481 -258 -497 q -281 -444 -282 -464 q -274 -419 -279 -435 q -251 -380 -268 -403 q -204 -324 -235 -357 q -122 -244 -174 -290 q 18 -128 -62 -192 q 201 11 99 -64 q 210 19 206 15 q 221 26 215 22 q 319 157 272 93 q 407 274 367 221 q 374 244 392 258 q 339 215 357 231 q 244 140 288 172 q 165 85 201 108 q 38 32 85 32 m -233 -456 q -203 -442 -225 -454 q -141 -393 -182 -431 q -36 -286 -100 -356 q 122 -100 28 -217 q -68 -253 3 -190 q -177 -356 -139 -315 q -227 -417 -215 -396 q -239 -447 -239 -439 q -233 -456 -239 -456 m 482 586 q 498 586 490 589 q 509 577 506 583 q 511 564 513 571 q 500 553 510 557 l 438 525 q 423 526 431 522 q 410 535 415 529 q 405 547 406 540 q 411 557 404 553 l 482 586 m 315 586 q 331 586 324 589 q 342 577 339 583 q 344 564 346 571 q 333 553 343 557 l 271 525 q 256 526 264 522 q 244 535 249 529 q 238 547 239 540 q 244 557 238 553 l 315 586 z "},"¿":{"ha":1063,"x_min":285,"x_max":947,"o":"m 288 86 q 317 178 285 124 q 399 294 350 233 q 503 415 449 354 q 599 525 557 475 q 690 638 649 582 q 761 740 731 694 q 810 816 792 785 q 832 854 828 847 q 847 864 836 863 q 865 861 857 865 q 878 849 874 857 q 878 832 883 842 q 849 783 869 817 q 798 703 828 749 q 728 603 768 657 q 643 494 689 549 l 608 456 l 550 392 q 520 359 539 379 q 478 313 501 339 q 431 258 456 286 q 388 201 407 229 q 356 149 368 174 q 343 106 343 124 q 348 85 343 94 q 367 67 353 75 q 418 64 390 58 q 474 83 446 69 q 531 114 503 96 q 582 151 558 132 q 631 192 608 172 q 670 229 653 213 q 699 258 688 246 q 714 275 710 271 q 732 281 722 283 q 748 272 742 279 q 756 256 754 265 q 749 239 757 246 q 700 188 738 225 q 613 111 663 151 q 543 63 576 83 q 482 28 510 42 q 386 8 433 8 q 323 26 354 8 q 288 86 292 43 m 714 275 q 714 275 714 275 m 935 978 l 947 1047 l 882 1049 l 867 979 l 935 978 z "},"±":{"ha":847,"x_min":269,"x_max":643,"o":"m 479 265 q 473 251 479 256 q 459 246 467 246 q 444 251 451 246 q 438 265 438 256 l 438 376 l 299 376 q 284 382 289 376 q 279 395 279 388 q 284 409 279 403 q 299 417 289 415 l 438 417 l 438 528 q 444 543 438 538 q 457 549 450 549 q 471 543 464 549 q 479 528 478 538 l 479 417 l 618 417 q 633 410 628 417 q 638 397 638 404 q 633 383 638 390 q 618 376 628 376 l 479 376 l 479 265 m 622 210 q 638 203 632 210 q 643 189 643 197 q 638 174 643 181 q 622 168 632 168 l 290 168 q 275 174 281 168 q 269 189 269 181 q 274 203 269 197 q 290 210 279 210 l 622 210 z "},"ß":{"ha":613,"x_min":-46,"x_max":615,"o":"m -42 29 q -20 91 -37 38 q 29 219 -3 144 q 108 378 61 293 q 219 533 156 463 q 361 650 282 604 q 536 693 440 696 q 606 658 590 690 q 602 611 615 636 q 563 562 589 586 q 501 513 536 538 q 431 469 465 489 q 369 433 397 449 q 329 410 342 418 q 372 416 351 413 q 415 419 393 419 q 460 412 439 419 q 496 388 482 404 q 476 269 524 347 q 404 185 450 228 q 304 107 358 143 q 192 44 250 71 q 83 6 135 17 q 51 3 74 3 q 7 6 29 3 q -31 14 -15 8 q -42 29 -46 19 m 83 49 q 181 81 129 57 q 283 138 233 104 q 374 209 332 171 q 440 285 415 247 q 456 358 474 338 q 393 378 444 378 q 313 369 363 378 q 268 358 293 367 q 218 340 243 350 q 170 321 193 331 q 131 306 147 311 l 14 46 q 49 43 32 40 q 83 49 67 46 m 349 464 q 450 526 401 493 q 528 587 499 560 q 561 632 558 614 q 524 650 564 650 q 457 639 494 650 q 399 619 419 628 q 364 602 386 614 q 310 562 342 590 q 239 485 279 533 q 149 361 199 438 q 186 380 161 367 q 240 408 211 393 q 299 438 269 422 q 349 464 328 453 z "},"e":{"ha":365,"x_min":-29,"x_max":475,"o":"m 21 1 q -17 26 -6 6 q -28 78 -29 47 q -12 147 -26 108 q 26 225 1 185 q 85 306 53 268 q 149 371 118 343 q 209 417 181 399 q 257 440 238 435 q 336 438 314 456 q 358 385 358 419 q 340 338 358 363 q 293 288 322 313 q 228 240 264 263 q 158 199 193 217 q 93 169 124 181 q 43 157 63 158 q 33 128 39 146 q 23 93 26 111 q 21 61 19 75 q 33 46 22 47 q 111 63 61 40 q 219 122 161 86 q 293 172 258 146 q 357 222 328 199 q 408 262 386 244 q 440 288 429 279 q 458 294 450 294 q 471 289 467 293 q 474 277 475 285 q 464 263 474 269 q 374 189 428 233 q 253 99 319 144 q 187 57 219 76 q 124 24 154 38 q 68 5 94 11 q 21 1 42 -1 m 278 403 q 236 383 263 401 q 180 338 210 365 q 122 275 150 310 q 75 206 93 240 q 133 234 101 218 q 195 268 165 250 q 252 307 225 286 q 297 351 279 328 q 310 390 317 375 q 278 403 304 406 z "},"p":{"ha":554,"x_min":-408,"x_max":661,"o":"m -369 -421 q -383 -426 -375 -426 q -397 -423 -390 -426 q -406 -412 -403 -419 q -404 -397 -408 -406 l 174 447 q 187 456 179 456 q 201 451 194 456 q 209 440 207 447 q 207 424 211 432 l 203 418 q 313 471 258 458 q 408 454 368 483 q 453 343 461 417 q 420 255 446 303 q 350 158 394 207 q 419 163 381 151 q 497 194 458 174 q 572 241 536 215 q 631 288 607 267 q 645 292 638 293 q 657 286 653 292 q 661 273 661 281 q 653 260 661 265 q 594 215 633 244 q 509 159 556 185 q 412 121 463 133 q 318 125 361 108 q 227 51 274 82 q 139 4 181 19 q 74 -8 101 -8 q 33 -1 49 -8 q 6 17 17 7 q -14 43 -6 26 q -22 88 -22 60 l -369 -421 m 125 43 q 205 85 164 58 q 283 149 246 113 q 260 197 267 168 q 308 365 250 260 q 331 403 319 386 q 351 432 343 421 q 306 425 328 432 q 263 407 285 418 q 186 351 225 386 q 111 274 147 317 q 61 201 82 238 q 29 133 40 165 q 20 88 22 113 q 33 47 18 63 q 77 33 51 31 q 125 43 103 36 m 411 349 q 392 415 417 392 q 360 371 378 397 q 328 315 343 344 q 306 256 314 286 q 301 204 297 226 q 313 179 303 190 q 379 267 353 222 q 411 349 406 313 z "},"b":{"ha":554,"x_min":-100,"x_max":654,"o":"m -61 44 q -74 39 -67 39 q -88 42 -82 39 q -97 53 -94 46 q -96 68 -100 60 l 482 913 q 495 921 488 921 q 509 917 503 921 q 517 905 515 913 q 515 889 519 897 l 183 404 q 303 468 243 450 q 408 454 364 486 q 453 343 461 417 q 420 255 446 303 q 350 158 394 207 q 419 163 381 151 q 497 194 458 174 q 572 241 536 215 q 631 288 607 267 q 644 292 638 293 q 652 285 650 290 q 652 271 654 279 q 642 257 650 263 q 585 213 622 242 q 503 158 549 183 q 410 121 458 133 q 318 125 361 108 q 227 51 274 82 q 139 4 181 19 q 74 -8 101 -8 q 33 -1 49 -8 q 6 17 17 7 q -15 49 -6 28 q -21 103 -24 69 l -61 44 m 125 43 q 205 85 164 58 q 283 149 246 113 q 260 197 267 168 q 308 365 250 260 q 331 403 319 386 q 351 432 343 421 q 306 425 328 432 q 263 407 285 418 q 186 351 225 386 q 111 274 147 317 q 61 201 82 238 q 29 133 40 165 q 20 88 22 113 q 33 47 18 63 q 77 33 51 31 q 125 43 103 36 m 411 349 q 392 415 417 392 q 360 371 378 397 q 328 315 343 344 q 306 256 314 286 q 301 204 297 226 q 313 179 303 190 q 379 267 353 222 q 411 349 406 313 z "},"à":{"ha":685,"x_min":-31,"x_max":782,"o":"m 757 283 q 712 249 743 272 q 640 198 681 226 q 555 140 600 169 q 469 89 510 111 q 399 56 429 67 q 356 56 368 46 q 347 104 339 68 q 381 192 356 140 q 443 306 406 243 q 522 431 481 368 q 523 442 525 436 q 517 451 521 447 q 506 453 513 454 q 494 447 500 453 q 467 408 482 429 q 436 365 451 388 q 426 423 438 403 q 399 453 415 443 q 362 463 382 463 q 324 463 342 464 q 245 435 286 458 q 166 378 204 411 q 95 310 128 346 q 42 247 63 274 q 8 194 25 224 q -20 135 -10 165 q -31 76 -31 104 q -14 25 -31 47 q 30 1 3 3 q 88 9 57 -1 q 153 39 119 19 q 218 80 188 58 q 273 122 249 101 q 310 154 297 143 q 300 113 304 135 q 297 71 296 92 q 304 33 297 50 q 331 7 311 15 q 390 10 354 0 q 467 42 425 21 q 552 92 508 64 q 637 150 596 121 q 713 206 678 179 q 771 250 747 232 q 780 265 778 257 q 780 280 782 274 q 772 288 778 286 q 757 283 765 290 m 292 192 q 192 107 247 143 q 93 54 136 71 q 26 50 50 39 q 17 117 3 61 q 51 193 26 154 q 108 267 76 232 q 174 333 139 303 q 240 382 208 363 q 284 406 257 393 q 336 424 311 419 q 379 418 361 428 q 396 374 397 408 q 365 292 393 339 q 292 192 338 244 m 385 531 q 361 549 379 533 q 303 603 343 564 q 297 619 296 611 q 302 632 297 626 q 314 639 307 638 q 329 635 321 640 l 408 561 q 408 535 418 547 q 385 531 397 524 z "},"á":{"ha":685,"x_min":-31,"x_max":782,"o":"m 757 283 q 712 249 743 272 q 640 198 681 226 q 555 140 600 169 q 469 89 510 111 q 399 56 429 67 q 356 56 368 46 q 347 104 339 68 q 381 192 356 140 q 443 306 406 243 q 522 431 481 368 q 523 442 525 436 q 517 451 521 447 q 506 453 513 454 q 494 447 500 453 q 467 408 482 429 q 436 365 451 388 q 426 423 438 403 q 399 453 415 443 q 362 463 382 463 q 324 463 342 464 q 245 435 286 458 q 166 378 204 411 q 95 310 128 346 q 42 247 63 274 q 8 194 25 224 q -20 135 -10 165 q -31 76 -31 104 q -14 25 -31 47 q 30 1 3 3 q 88 9 57 -1 q 153 39 119 19 q 218 80 188 58 q 273 122 249 101 q 310 154 297 143 q 300 113 304 135 q 297 71 296 92 q 304 33 297 50 q 331 7 311 15 q 390 10 354 0 q 467 42 425 21 q 552 92 508 64 q 637 150 596 121 q 713 206 678 179 q 771 250 747 232 q 780 265 778 257 q 780 280 782 274 q 772 288 778 286 q 757 283 765 290 m 292 192 q 192 107 247 143 q 93 54 136 71 q 26 50 50 39 q 17 117 3 61 q 51 193 26 154 q 108 267 76 232 q 174 333 139 303 q 240 382 208 363 q 284 406 257 393 q 336 424 311 419 q 379 418 361 428 q 396 374 397 408 q 365 292 393 339 q 292 192 338 244 m 456 585 q 431 568 453 581 q 361 529 410 556 q 345 528 353 525 q 334 536 338 531 q 331 549 331 542 q 339 564 332 557 l 433 617 q 458 609 449 622 q 456 585 467 596 z "},"â":{"ha":685,"x_min":-31,"x_max":782,"o":"m 757 283 q 712 249 743 272 q 640 198 681 226 q 555 140 600 169 q 469 89 510 111 q 399 56 429 67 q 356 56 368 46 q 347 104 339 68 q 381 192 356 140 q 443 306 406 243 q 522 431 481 368 q 523 442 525 436 q 517 451 521 447 q 506 453 513 454 q 494 447 500 453 q 467 408 482 429 q 436 365 451 388 q 426 423 438 403 q 399 453 415 443 q 362 463 382 463 q 324 463 342 464 q 245 435 286 458 q 166 378 204 411 q 95 310 128 346 q 42 247 63 274 q 8 194 25 224 q -20 135 -10 165 q -31 76 -31 104 q -14 25 -31 47 q 30 1 3 3 q 88 9 57 -1 q 153 39 119 19 q 218 80 188 58 q 273 122 249 101 q 310 154 297 143 q 300 113 304 135 q 297 71 296 92 q 304 33 297 50 q 331 7 311 15 q 390 10 354 0 q 467 42 425 21 q 552 92 508 64 q 637 150 596 121 q 713 206 678 179 q 771 250 747 232 q 780 265 778 257 q 780 280 782 274 q 772 288 778 286 q 757 283 765 290 m 292 192 q 192 107 247 143 q 93 54 136 71 q 26 50 50 39 q 17 117 3 61 q 51 193 26 154 q 108 267 76 232 q 174 333 139 303 q 240 382 208 363 q 284 406 257 393 q 336 424 311 419 q 379 418 361 428 q 396 374 397 408 q 365 292 393 339 q 292 192 338 244 m 338 565 q 397 613 379 599 q 425 635 414 626 q 451 636 439 646 l 532 564 q 538 548 539 557 q 532 533 538 539 q 519 525 526 526 q 506 531 511 524 l 438 593 l 367 535 q 350 529 358 528 q 336 537 342 531 q 330 551 331 543 q 338 565 329 558 z "},"ã":{"ha":685,"x_min":-31,"x_max":782,"o":"m 757 283 q 712 249 743 272 q 640 198 681 226 q 555 140 600 169 q 469 89 510 111 q 399 56 429 67 q 356 56 368 46 q 347 104 339 68 q 381 192 356 140 q 443 306 406 243 q 522 431 481 368 q 523 442 525 436 q 517 451 521 447 q 506 453 513 454 q 494 447 500 453 q 467 408 482 429 q 436 365 451 388 q 426 423 438 403 q 399 453 415 443 q 362 463 382 463 q 324 463 342 464 q 245 435 286 458 q 166 378 204 411 q 95 310 128 346 q 42 247 63 274 q 8 194 25 224 q -20 135 -10 165 q -31 76 -31 104 q -14 25 -31 47 q 30 1 3 3 q 88 9 57 -1 q 153 39 119 19 q 218 80 188 58 q 273 122 249 101 q 310 154 297 143 q 300 113 304 135 q 297 71 296 92 q 304 33 297 50 q 331 7 311 15 q 390 10 354 0 q 467 42 425 21 q 552 92 508 64 q 637 150 596 121 q 713 206 678 179 q 771 250 747 232 q 780 265 778 257 q 780 280 782 274 q 772 288 778 286 q 757 283 765 290 m 292 192 q 192 107 247 143 q 93 54 136 71 q 26 50 50 39 q 17 117 3 61 q 51 193 26 154 q 108 267 76 232 q 174 333 139 303 q 240 382 208 363 q 284 406 257 393 q 336 424 311 419 q 379 418 361 428 q 396 374 397 408 q 365 292 393 339 q 292 192 338 244 m 279 576 q 294 585 281 576 q 331 601 308 594 q 385 608 354 608 q 450 593 415 608 q 507 576 483 578 q 546 578 531 574 q 569 589 561 582 q 579 597 576 596 q 596 591 589 606 q 597 568 603 576 q 586 558 596 567 q 558 544 576 550 q 510 539 539 538 q 442 560 481 540 q 385 572 411 572 q 338 565 358 571 q 307 550 318 558 q 294 542 296 542 q 285 542 289 539 q 278 552 281 546 q 275 565 275 558 q 279 576 275 572 z "},"ä":{"ha":685,"x_min":-31,"x_max":782,"o":"m 757 283 q 772 288 765 290 q 780 280 778 286 q 780 265 782 274 q 771 250 778 257 q 713 206 747 232 q 637 150 678 179 q 552 92 596 121 q 467 42 508 64 q 390 10 425 21 q 331 7 354 0 q 304 33 311 15 q 297 71 297 50 q 300 113 296 92 q 310 154 304 135 q 273 122 297 143 q 218 80 249 101 q 153 39 188 58 q 88 9 119 19 q 30 1 57 -1 q -14 25 3 3 q -31 76 -31 47 q -20 135 -31 104 q 8 194 -10 165 q 42 247 25 224 q 95 310 63 274 q 166 378 128 346 q 245 435 204 411 q 324 463 286 458 q 362 463 342 464 q 399 453 382 463 q 426 423 415 443 q 436 365 438 403 q 467 408 451 388 q 494 447 482 429 q 506 453 500 453 q 517 451 513 454 q 523 442 521 447 q 522 431 525 436 q 443 306 481 368 q 381 192 406 243 q 347 104 356 140 q 356 56 339 68 q 399 56 368 46 q 469 89 429 67 q 555 140 510 111 q 640 198 600 169 q 712 249 681 226 q 757 283 743 272 m 292 192 q 365 292 338 244 q 396 374 393 339 q 379 418 397 408 q 336 424 361 428 q 284 406 311 419 q 240 382 257 393 q 174 333 208 363 q 108 267 139 303 q 51 193 76 232 q 17 117 26 154 q 26 50 3 61 q 93 54 50 39 q 192 107 136 71 q 292 192 247 143 m 510 579 q 526 578 518 582 q 537 568 533 575 q 539 553 540 561 q 528 542 538 546 l 507 532 q 492 533 500 529 q 480 542 485 536 q 474 553 475 547 q 481 564 474 560 l 510 579 m 371 579 q 387 578 379 582 q 398 568 394 575 q 400 553 401 561 q 389 542 399 546 l 368 532 q 353 533 361 529 q 341 542 346 536 q 335 553 336 547 q 342 564 335 560 l 371 579 z "},"æ":{"ha":1050,"x_min":-31,"x_max":1160,"o":"m 706 1 q 669 22 682 6 q 656 65 657 39 q 664 122 656 90 q 690 189 672 154 q 596 122 647 157 q 495 58 544 86 q 402 14 446 29 q 331 7 358 -1 q 304 33 311 15 q 297 71 297 50 q 300 113 296 92 q 310 154 304 135 q 273 122 297 143 q 218 80 249 101 q 153 39 188 58 q 88 9 119 19 q 30 1 57 -1 q -14 25 3 3 q -31 76 -31 47 q -20 135 -31 104 q 8 194 -10 165 q 42 247 25 224 q 95 310 63 274 q 166 378 128 346 q 245 435 204 411 q 324 463 286 458 q 362 463 342 464 q 399 453 382 463 q 426 423 415 443 q 436 365 438 403 q 467 408 451 388 q 494 447 482 429 q 506 453 500 453 q 517 451 513 454 q 523 442 521 447 q 522 431 525 436 q 443 306 481 368 q 381 192 406 243 q 347 104 356 140 q 356 56 339 68 q 394 56 367 47 q 459 83 422 64 q 538 128 496 101 q 618 183 579 156 q 690 233 657 210 q 743 272 724 257 q 797 335 769 307 q 851 386 825 364 q 901 422 878 408 q 942 440 925 436 q 1021 438 999 456 q 1043 385 1043 419 q 1025 338 1043 363 q 978 288 1007 313 q 913 240 949 263 q 843 199 878 217 q 778 169 808 181 q 728 157 747 158 q 717 128 724 146 q 708 93 711 111 q 706 61 704 75 q 718 46 707 47 q 796 63 746 40 q 904 122 846 86 q 978 172 943 146 q 1042 222 1013 199 q 1092 262 1071 244 q 1125 288 1114 279 q 1143 294 1135 294 q 1156 289 1151 293 q 1159 277 1160 285 q 1149 263 1158 269 q 1058 189 1113 233 q 938 99 1004 144 q 872 57 904 76 q 809 24 839 38 q 753 5 779 11 q 706 1 726 -1 m 292 192 q 365 292 338 244 q 396 374 393 339 q 379 418 397 408 q 336 424 361 428 q 284 406 311 419 q 240 382 257 393 q 174 333 208 363 q 108 267 139 303 q 51 193 76 232 q 17 117 26 154 q 26 50 3 61 q 93 54 50 39 q 192 107 136 71 q 292 192 247 143 m 963 403 q 921 383 947 401 q 865 338 894 365 q 806 275 835 310 q 760 206 778 240 q 818 234 786 218 q 880 268 850 250 q 937 307 910 286 q 982 351 964 328 q 995 390 1001 375 q 963 403 989 406 z "},"è":{"ha":365,"x_min":-29,"x_max":475,"o":"m 21 1 q 68 5 42 -1 q 124 24 94 11 q 187 57 154 38 q 253 99 219 76 q 374 189 319 144 q 464 263 428 233 q 474 277 474 269 q 471 289 475 285 q 458 294 467 293 q 440 288 450 294 q 408 262 429 279 q 357 222 386 244 q 293 172 328 199 q 219 122 258 146 q 111 63 161 86 q 33 46 61 40 q 21 61 22 47 q 23 93 19 75 q 33 128 26 111 q 43 157 39 146 q 93 169 63 158 q 158 199 124 181 q 228 240 193 217 q 293 288 264 263 q 340 338 322 313 q 358 385 358 363 q 336 438 358 419 q 257 440 314 456 q 209 417 238 435 q 149 371 181 399 q 85 306 118 343 q 26 225 53 268 q -12 147 1 185 q -28 78 -26 108 q -17 26 -29 47 q 21 1 -6 6 m 278 403 q 310 390 304 406 q 297 351 317 375 q 252 307 279 328 q 195 268 225 286 q 133 234 165 250 q 75 206 101 218 q 122 275 93 240 q 180 338 150 310 q 236 383 210 365 q 278 403 263 401 m 272 529 q 257 535 263 529 l 258 535 l 181 608 q 173 624 174 615 q 179 639 172 632 q 207 640 192 651 l 286 567 q 294 551 293 560 q 288 536 294 543 l 288 538 q 272 529 281 529 z "},"é":{"ha":365,"x_min":-29,"x_max":475,"o":"m 21 1 q 68 5 42 -1 q 124 24 94 11 q 187 57 154 38 q 253 99 219 76 q 374 189 319 144 q 464 263 428 233 q 474 277 474 269 q 471 289 475 285 q 458 294 467 293 q 440 288 450 294 q 408 262 429 279 q 357 222 386 244 q 293 172 328 199 q 219 122 258 146 q 111 63 161 86 q 33 46 61 40 q 21 61 22 47 q 23 93 19 75 q 33 128 26 111 q 43 157 39 146 q 93 169 63 158 q 158 199 124 181 q 228 240 193 217 q 293 288 264 263 q 340 338 322 313 q 358 385 358 363 q 336 438 358 419 q 257 440 314 456 q 209 417 238 435 q 149 371 181 399 q 85 306 118 343 q 26 225 53 268 q -12 147 1 185 q -28 78 -26 108 q -17 26 -29 47 q 21 1 -6 6 m 278 403 q 310 390 304 406 q 297 351 317 375 q 252 307 279 328 q 195 268 225 286 q 133 234 165 250 q 75 206 101 218 q 122 275 93 240 q 180 338 150 310 q 236 383 210 365 q 278 403 263 401 m 353 585 q 328 568 350 581 q 258 529 307 556 q 242 528 250 525 q 231 536 235 531 q 228 549 228 542 q 236 564 229 557 l 331 617 q 355 609 346 622 q 353 585 364 596 z "},"ê":{"ha":365,"x_min":-29,"x_max":475,"o":"m 21 1 q 68 5 42 -1 q 124 24 94 11 q 187 57 154 38 q 253 99 219 76 q 374 189 319 144 q 464 263 428 233 q 474 277 474 269 q 471 289 475 285 q 458 294 467 293 q 440 288 450 294 q 408 262 429 279 q 357 222 386 244 q 293 172 328 199 q 219 122 258 146 q 111 63 161 86 q 33 46 61 40 q 21 61 22 47 q 23 93 19 75 q 33 128 26 111 q 43 157 39 146 q 93 169 63 158 q 158 199 124 181 q 228 240 193 217 q 293 288 264 263 q 340 338 322 313 q 358 385 358 363 q 336 438 358 419 q 257 440 314 456 q 209 417 238 435 q 149 371 181 399 q 85 306 118 343 q 26 225 53 268 q -12 147 1 185 q -28 78 -26 108 q -17 26 -29 47 q 21 1 -6 6 m 278 403 q 310 390 304 406 q 297 351 317 375 q 252 307 279 328 q 195 268 225 286 q 133 234 165 250 q 75 206 101 218 q 122 275 93 240 q 180 338 150 310 q 236 383 210 365 q 278 403 263 401 m 167 565 q 226 613 208 599 q 254 635 243 626 q 281 636 268 646 l 361 564 q 367 548 368 557 q 361 533 367 539 q 348 525 356 526 q 335 531 340 524 l 267 593 l 196 535 q 179 529 188 528 q 165 537 171 531 q 159 551 160 543 q 167 565 158 558 z "},"ë":{"ha":365,"x_min":-29,"x_max":475,"o":"m 21 1 q -17 26 -6 6 q -28 78 -29 47 q -12 147 -26 108 q 26 225 1 185 q 85 306 53 268 q 149 371 118 343 q 209 417 181 399 q 257 440 238 435 q 336 438 314 456 q 358 385 358 419 q 340 338 358 363 q 293 288 322 313 q 228 240 264 263 q 158 199 193 217 q 93 169 124 181 q 43 157 63 158 q 33 128 39 146 q 23 93 26 111 q 21 61 19 75 q 33 46 22 47 q 111 63 61 40 q 219 122 161 86 q 293 172 258 146 q 357 222 328 199 q 408 262 386 244 q 440 288 429 279 q 458 294 450 294 q 471 289 467 293 q 474 277 475 285 q 464 263 474 269 q 374 189 428 233 q 253 99 319 144 q 187 57 219 76 q 124 24 154 38 q 68 5 94 11 q 21 1 42 -1 m 278 403 q 236 383 263 401 q 180 338 210 365 q 122 275 150 310 q 75 206 93 240 q 133 234 101 218 q 195 268 165 250 q 252 307 225 286 q 297 351 279 328 q 310 390 317 375 q 278 403 304 406 m 389 579 q 405 578 397 582 q 416 568 413 575 q 418 553 419 561 q 407 542 417 546 l 386 532 q 372 533 379 529 q 359 542 364 536 q 353 553 354 547 q 360 564 353 560 l 389 579 m 250 579 q 266 578 258 582 q 277 568 274 575 q 279 553 281 561 q 268 542 278 546 l 247 532 q 233 533 240 529 q 220 542 225 536 q 215 553 215 547 q 221 564 214 560 l 250 579 z "},"ì":{"ha":404,"x_min":-35,"x_max":508,"o":"m 479 283 q 421 241 458 267 q 338 185 383 215 q 243 126 292 156 q 152 75 194 97 q 78 41 110 53 q 36 36 47 29 q 18 74 17 47 q 35 135 19 100 q 75 211 50 171 q 128 291 100 251 q 185 366 157 331 q 232 426 213 401 q 232 437 235 431 q 223 447 229 443 q 208 450 217 450 q 194 442 200 450 q 100 320 146 381 q 22 205 54 260 q -22 105 -10 150 q -15 31 -35 60 q 20 4 -1 10 q 65 2 42 -1 q 111 14 89 6 q 147 29 133 22 q 228 72 182 44 q 323 131 274 99 q 419 195 372 163 q 500 256 465 228 q 508 270 507 263 q 504 283 508 278 q 493 288 500 288 q 479 283 486 289 m 343 532 q 328 538 333 532 l 329 538 l 251 611 q 244 626 244 618 q 250 642 243 635 q 278 643 263 654 l 357 569 q 365 554 364 563 q 358 539 365 546 l 358 540 q 343 532 351 532 z "},"í":{"ha":404,"x_min":-35,"x_max":508,"o":"m 479 283 q 421 241 458 267 q 338 185 383 215 q 243 126 292 156 q 152 75 194 97 q 78 41 110 53 q 36 36 47 29 q 18 74 17 47 q 35 135 19 100 q 75 211 50 171 q 128 291 100 251 q 185 366 157 331 q 232 426 213 401 q 232 437 235 431 q 223 447 229 443 q 208 450 217 450 q 194 442 200 450 q 100 320 146 381 q 22 205 54 260 q -22 105 -10 150 q -15 31 -35 60 q 20 4 -1 10 q 65 2 42 -1 q 111 14 89 6 q 147 29 133 22 q 228 72 182 44 q 323 131 274 99 q 419 195 372 163 q 500 256 465 228 q 508 270 507 263 q 504 283 508 278 q 493 288 500 288 q 479 283 486 289 m 353 585 q 328 568 350 581 q 258 529 307 556 q 242 528 250 525 q 231 536 235 531 q 228 549 228 542 q 236 564 229 557 l 331 617 q 355 609 346 622 q 353 585 364 596 z "},"î":{"ha":404,"x_min":-35,"x_max":508,"o":"m 479 283 q 421 241 458 267 q 338 185 383 215 q 243 126 292 156 q 152 75 194 97 q 78 41 110 53 q 36 36 47 29 q 18 74 17 47 q 35 135 19 100 q 75 211 50 171 q 128 291 100 251 q 185 366 157 331 q 232 426 213 401 q 232 437 235 431 q 223 447 229 443 q 208 450 217 450 q 194 442 200 450 q 100 320 146 381 q 22 205 54 260 q -22 105 -10 150 q -15 31 -35 60 q 20 4 -1 10 q 65 2 42 -1 q 111 14 89 6 q 147 29 133 22 q 228 72 182 44 q 323 131 274 99 q 419 195 372 163 q 500 256 465 228 q 508 270 507 263 q 504 283 508 278 q 493 288 500 288 q 479 283 486 289 m 143 565 q 202 613 185 599 q 231 635 219 626 q 257 636 244 646 l 338 564 q 344 548 344 557 q 338 533 343 539 q 324 525 332 526 q 311 531 317 524 l 243 593 l 172 535 q 156 529 164 528 q 142 537 147 531 q 135 551 136 543 q 143 565 135 558 z "},"ï":{"ha":404,"x_min":-35,"x_max":508,"o":"m 479 283 q 493 288 486 289 q 504 283 500 288 q 508 270 508 278 q 500 256 507 263 q 419 195 465 228 q 323 131 372 163 q 228 72 274 99 q 147 29 182 44 q 111 14 133 22 q 65 2 89 6 q 20 4 42 -1 q -15 31 -1 10 q -22 105 -35 60 q 22 205 -10 150 q 100 320 54 260 q 194 442 146 381 q 208 450 200 450 q 223 447 217 450 q 232 437 229 443 q 232 426 235 431 q 185 366 213 401 q 128 291 157 331 q 75 211 100 251 q 35 135 50 171 q 18 74 19 100 q 36 36 17 47 q 78 41 47 29 q 152 75 110 53 q 243 126 194 97 q 338 185 292 156 q 421 241 383 215 q 479 283 458 267 m 332 579 q 348 578 340 582 q 359 568 356 575 q 361 553 363 561 q 350 542 360 546 l 329 532 q 315 533 322 529 q 302 542 307 536 q 297 553 297 547 q 303 564 296 560 l 332 579 m 193 579 q 209 578 201 582 q 220 568 217 575 q 222 553 224 561 q 211 542 221 546 l 190 532 q 176 533 183 529 q 163 542 168 536 q 158 553 158 547 q 164 564 157 560 l 193 579 z "},"ñ":{"ha":618,"x_min":-107,"x_max":728,"o":"m 692 285 q 633 240 667 267 q 563 185 599 214 q 490 128 526 157 q 421 79 453 100 q 365 47 389 58 q 329 39 340 35 q 323 67 317 44 q 342 115 329 89 q 370 163 356 140 q 388 192 385 186 q 426 256 407 224 q 454 313 446 288 q 465 367 465 342 q 438 413 464 393 q 301 384 394 438 q 56 193 207 331 l 210 428 q 214 445 217 438 q 205 456 211 453 q 190 459 199 460 q 176 450 182 458 l -101 29 q -106 15 -107 22 q -101 4 -106 8 q -91 -1 -97 0 q -79 6 -85 -1 q 9 97 -46 40 q 132 215 64 154 q 197 268 154 236 q 285 329 240 300 q 366 376 329 358 q 415 383 403 393 q 424 357 426 375 q 410 315 421 339 q 384 264 400 292 q 351 210 368 236 q 296 108 318 154 q 282 32 274 63 q 306 2 289 8 q 340 -4 322 -4 q 385 12 356 -4 q 450 53 414 28 q 526 110 486 79 q 601 169 565 140 q 668 223 638 199 q 715 260 699 247 q 726 274 724 265 q 724 288 728 282 q 713 293 721 293 q 692 285 704 293 m 206 576 q 221 585 207 576 q 258 601 235 594 q 311 608 281 608 q 376 593 342 608 q 433 576 410 578 q 472 578 457 574 q 495 589 488 582 q 506 597 503 596 q 522 591 515 606 q 524 568 529 576 q 513 558 522 567 q 484 544 503 550 q 436 539 465 538 q 368 560 407 540 q 311 572 338 572 q 265 565 285 571 q 233 550 244 558 q 221 542 222 542 q 211 542 215 539 q 204 552 207 546 q 201 565 201 558 q 206 576 201 572 z "},"ò":{"ha":554,"x_min":-29,"x_max":661,"o":"m 631 288 q 572 241 607 267 q 497 194 536 215 q 419 163 458 174 q 350 158 381 151 q 420 255 394 207 q 453 343 446 303 q 408 454 461 417 q 333 474 375 478 q 247 446 292 469 q 159 383 203 422 q 79 300 115 344 q 24 222 47 261 q -11 147 1 182 q -19 62 -29 92 q 6 17 -10 32 q 33 -1 17 7 q 74 -8 49 -8 q 139 4 101 -8 q 227 51 181 19 q 318 125 274 82 q 412 121 361 108 q 509 159 463 133 q 594 215 556 185 q 653 260 633 244 q 661 273 661 265 q 657 286 661 281 q 645 292 653 292 q 631 288 638 293 m 411 349 q 379 267 406 313 q 313 179 353 222 q 301 204 303 190 q 306 256 297 226 q 328 315 314 286 q 360 371 343 344 q 392 415 378 397 q 411 349 417 392 m 125 43 q 77 33 103 36 q 33 47 51 31 q 20 88 18 63 q 29 133 22 113 q 61 201 40 165 q 111 274 82 238 q 186 351 147 317 q 263 407 225 386 q 306 425 285 418 q 351 432 328 432 q 331 403 343 421 q 308 365 319 386 q 260 197 250 260 q 283 149 267 168 q 205 85 246 113 q 125 43 164 58 m 425 531 q 410 536 415 531 l 411 536 l 333 610 q 326 625 326 617 q 332 640 325 633 q 360 642 344 653 l 439 568 q 447 553 446 561 q 440 538 447 544 l 440 539 q 425 531 433 531 z "},"ó":{"ha":554,"x_min":-29,"x_max":661,"o":"m 631 288 q 572 241 607 267 q 497 194 536 215 q 419 163 458 174 q 350 158 381 151 q 420 255 394 207 q 453 343 446 303 q 408 454 461 417 q 333 474 375 478 q 247 446 292 469 q 159 383 203 422 q 79 300 115 344 q 24 222 47 261 q -11 147 1 182 q -19 62 -29 92 q 6 17 -10 32 q 33 -1 17 7 q 74 -8 49 -8 q 139 4 101 -8 q 227 51 181 19 q 318 125 274 82 q 412 121 361 108 q 509 159 463 133 q 594 215 556 185 q 653 260 633 244 q 661 273 661 265 q 657 286 661 281 q 645 292 653 292 q 631 288 638 293 m 411 349 q 379 267 406 313 q 313 179 353 222 q 301 204 303 190 q 306 256 297 226 q 328 315 314 286 q 360 371 343 344 q 392 415 378 397 q 411 349 417 392 m 125 43 q 77 33 103 36 q 33 47 51 31 q 20 88 18 63 q 29 133 22 113 q 61 201 40 165 q 111 274 82 238 q 186 351 147 317 q 263 407 225 386 q 306 425 285 418 q 351 432 328 432 q 331 403 343 421 q 308 365 319 386 q 260 197 250 260 q 283 149 267 168 q 205 85 246 113 q 125 43 164 58 m 458 585 q 434 568 456 581 q 364 529 413 556 q 348 528 356 525 q 337 536 340 531 q 334 549 333 542 q 342 564 335 557 l 436 617 q 460 609 451 622 q 458 585 469 596 z "},"ô":{"ha":554,"x_min":-29,"x_max":661,"o":"m 631 288 q 572 241 607 267 q 497 194 536 215 q 419 163 458 174 q 350 158 381 151 q 420 255 394 207 q 453 343 446 303 q 408 454 461 417 q 333 474 375 478 q 247 446 292 469 q 159 383 203 422 q 79 300 115 344 q 24 222 47 261 q -11 147 1 182 q -19 62 -29 92 q 6 17 -10 32 q 33 -1 17 7 q 74 -8 49 -8 q 139 4 101 -8 q 227 51 181 19 q 318 125 274 82 q 412 121 361 108 q 509 159 463 133 q 594 215 556 185 q 653 260 633 244 q 661 273 661 265 q 657 286 661 281 q 645 292 653 292 q 631 288 638 293 m 411 349 q 379 267 406 313 q 313 179 353 222 q 301 204 303 190 q 306 256 297 226 q 328 315 314 286 q 360 371 343 344 q 392 415 378 397 q 411 349 417 392 m 125 43 q 77 33 103 36 q 33 47 51 31 q 20 88 18 63 q 29 133 22 113 q 61 201 40 165 q 111 274 82 238 q 186 351 147 317 q 263 407 225 386 q 306 425 285 418 q 351 432 328 432 q 331 403 343 421 q 308 365 319 386 q 260 197 250 260 q 283 149 267 168 q 205 85 246 113 q 125 43 164 58 m 304 565 q 363 613 346 599 q 392 635 381 626 q 418 636 406 646 l 499 564 q 505 548 506 557 q 499 533 504 539 q 485 525 493 526 q 472 531 478 524 l 404 593 l 333 535 q 317 529 325 528 q 303 537 308 531 q 297 551 297 543 q 304 565 296 558 z "},"õ":{"ha":554,"x_min":-29,"x_max":661,"o":"m 631 288 q 572 241 607 267 q 497 194 536 215 q 419 163 458 174 q 350 158 381 151 q 420 255 394 207 q 453 343 446 303 q 408 454 461 417 q 333 474 375 478 q 247 446 292 469 q 159 383 203 422 q 79 300 115 344 q 24 222 47 261 q -11 147 1 182 q -19 62 -29 92 q 6 17 -10 32 q 33 -1 17 7 q 74 -8 49 -8 q 139 4 101 -8 q 227 51 181 19 q 318 125 274 82 q 412 121 361 108 q 509 159 463 133 q 594 215 556 185 q 653 260 633 244 q 661 273 661 265 q 657 286 661 281 q 645 292 653 292 q 631 288 638 293 m 411 349 q 379 267 406 313 q 313 179 353 222 q 301 204 303 190 q 306 256 297 226 q 328 315 314 286 q 360 371 343 344 q 392 415 378 397 q 411 349 417 392 m 125 43 q 77 33 103 36 q 33 47 51 31 q 20 88 18 63 q 29 133 22 113 q 61 201 40 165 q 111 274 82 238 q 186 351 147 317 q 263 407 225 386 q 306 425 285 418 q 351 432 328 432 q 331 403 343 421 q 308 365 319 386 q 260 197 250 260 q 283 149 267 168 q 205 85 246 113 q 125 43 164 58 m 229 576 q 244 585 231 576 q 281 601 258 594 q 335 608 304 608 q 400 593 365 608 q 457 576 433 578 q 496 578 481 574 q 519 589 511 582 q 529 597 526 596 q 546 591 539 606 q 547 568 553 576 q 536 558 546 567 q 508 544 526 550 q 460 539 489 538 q 392 560 431 540 q 335 572 361 572 q 288 565 308 571 q 257 550 268 558 q 244 542 246 542 q 235 542 239 539 q 228 552 231 546 q 225 565 225 558 q 229 576 225 572 z "},"ö":{"ha":554,"x_min":-29,"x_max":661,"o":"m 631 288 q 645 292 638 293 q 657 286 653 292 q 661 273 661 281 q 653 260 661 265 q 594 215 633 244 q 509 159 556 185 q 412 121 463 133 q 318 125 361 108 q 227 51 274 82 q 139 4 181 19 q 74 -8 101 -8 q 33 -1 49 -8 q 6 17 17 7 q -19 62 -10 32 q -11 147 -29 92 q 24 222 1 182 q 79 300 47 261 q 159 383 115 344 q 247 446 203 422 q 333 474 292 469 q 408 454 375 478 q 453 343 461 417 q 420 255 446 303 q 350 158 394 207 q 419 163 381 151 q 497 194 458 174 q 572 241 536 215 q 631 288 607 267 m 411 349 q 392 415 417 392 q 360 371 378 397 q 328 315 343 344 q 306 256 314 286 q 301 204 297 226 q 313 179 303 190 q 379 267 353 222 q 411 349 406 313 m 125 43 q 205 85 164 58 q 283 149 246 113 q 260 197 267 168 q 308 365 250 260 q 331 403 319 386 q 351 432 343 421 q 306 425 328 432 q 263 407 285 418 q 186 351 225 386 q 111 274 147 317 q 61 201 82 238 q 29 133 40 165 q 20 88 22 113 q 33 47 18 63 q 77 33 51 31 q 125 43 103 36 m 461 579 q 477 578 469 582 q 488 568 485 575 q 490 553 492 561 q 479 542 489 546 l 458 532 q 444 533 451 529 q 431 542 436 536 q 426 553 426 547 q 432 564 425 560 l 461 579 m 322 579 q 338 578 331 582 q 349 568 346 575 q 351 553 353 561 q 340 542 350 546 l 319 532 q 305 533 313 529 q 292 542 297 536 q 287 553 288 547 q 293 564 286 560 l 322 579 z "},"ù":{"ha":696,"x_min":-18,"x_max":801,"o":"m 772 286 q 719 247 753 272 q 644 194 685 222 q 560 135 604 165 q 477 84 517 106 q 406 51 438 63 q 358 47 375 40 q 349 81 343 54 q 372 147 354 108 q 417 228 390 185 q 471 313 444 272 q 520 385 497 353 q 554 435 543 418 q 553 445 557 439 q 542 455 550 451 q 526 458 535 458 q 513 449 518 457 q 471 389 488 413 q 439 344 454 365 q 408 299 424 322 q 368 238 392 275 q 274 144 322 183 q 181 81 225 106 q 101 44 136 56 q 50 35 67 32 q 29 55 32 36 q 34 103 26 74 q 58 168 42 132 q 94 242 74 204 q 137 315 114 279 q 179 379 160 351 q 182 394 185 388 q 172 405 179 401 q 156 407 165 408 q 142 397 147 406 q 88 317 115 361 q 38 230 61 274 q 0 144 15 186 q -17 71 -15 103 q -3 19 -18 39 q 50 -1 13 0 q 122 15 83 -1 q 197 56 160 32 q 268 104 235 79 q 324 146 301 129 q 312 103 317 125 q 306 63 307 82 q 311 28 306 43 q 332 8 317 14 q 389 9 354 0 q 465 39 424 18 q 553 88 507 60 q 642 147 599 117 q 724 206 685 178 q 789 256 763 235 q 799 269 797 261 q 799 284 801 278 q 789 292 796 290 q 772 286 782 293 m 400 535 q 385 540 390 535 l 386 540 l 308 614 q 301 629 301 621 q 307 644 300 638 q 335 646 319 657 l 414 572 q 422 557 421 565 q 415 542 422 549 l 415 543 q 400 535 408 535 z "},"ú":{"ha":696,"x_min":-18,"x_max":801,"o":"m 772 286 q 719 247 753 272 q 644 194 685 222 q 560 135 604 165 q 477 84 517 106 q 406 51 438 63 q 358 47 375 40 q 349 81 343 54 q 372 147 354 108 q 417 228 390 185 q 471 313 444 272 q 520 385 497 353 q 554 435 543 418 q 553 445 557 439 q 542 455 550 451 q 526 458 535 458 q 513 449 518 457 q 471 389 488 413 q 439 344 454 365 q 408 299 424 322 q 368 238 392 275 q 274 144 322 183 q 181 81 225 106 q 101 44 136 56 q 50 35 67 32 q 29 55 32 36 q 34 103 26 74 q 58 168 42 132 q 94 242 74 204 q 137 315 114 279 q 179 379 160 351 q 182 394 185 388 q 172 405 179 401 q 156 407 165 408 q 142 397 147 406 q 88 317 115 361 q 38 230 61 274 q 0 144 15 186 q -17 71 -15 103 q -3 19 -18 39 q 50 -1 13 0 q 122 15 83 -1 q 197 56 160 32 q 268 104 235 79 q 324 146 301 129 q 312 103 317 125 q 306 63 307 82 q 311 28 306 43 q 332 8 317 14 q 389 9 354 0 q 465 39 424 18 q 553 88 507 60 q 642 147 599 117 q 724 206 685 178 q 789 256 763 235 q 799 269 797 261 q 799 284 801 278 q 789 292 796 290 q 772 286 782 293 m 433 585 q 409 568 431 581 q 339 529 388 556 q 323 528 331 525 q 312 536 315 531 q 309 549 308 542 q 317 564 310 557 l 411 617 q 435 609 426 622 q 433 585 444 596 z "}}}
